<svg width="2198" height="995" fill="none" xmlns="http://www.w3.org/2000/svg"><path d="M1224 702.272c0-27.614 22.39-50 50-50h110c27.61 0 50 22.386 50 50v242c0 27.614-22.39 50-50 50h-110c-27.61 0-50-22.386-50-50v-242ZM1988 54.272c0-27.614 22.39-50 50-50h110c27.61 0 50 22.386 50 50v890c0 27.614-22.39 50-50 50h-110c-27.61 0-50-22.386-50-50v-890Z" fill="#383838"/><path d="M1997.68 24.166c16.65-21.836 47.8-26.155 69.76-9.674l73.89 55.44c22.09 16.576 26.56 47.926 9.98 70.014l-390.06 519.546c-20.23 26.944-60.77 26.575-80.51-.733l-59.52-82.363c-12.91-17.866-12.6-42.08.76-59.607l375.7-492.623Z" fill="#383838"/><path d="M1237.86 83.667c-25.61-32.968-1.93-80.94 39.81-80.666l120.36.788c15.4.101 29.89 7.29 39.28 19.487l371.32 482.041c16.91 21.962 12.73 53.497-9.32 70.292l-73.35 55.852c-21.83 16.616-52.96 12.55-69.79-9.114l-418.31-538.68Z" fill="#383838"/><path d="M432.391 112.446c-10.775-25.425 1.101-54.772 26.526-65.547L560.198 3.977c25.425-10.776 54.771 1.1 65.546 26.526L978.331 875.5c10.775 25.425 3.889 53.512-21.537 64.287l-101.28 42.923c-25.425 10.775-54.771-1.101-65.546-26.526L432.391 112.446Z" fill="#191919"/><path d="M50.082 993.89c-39.593 0-63.479-43.831-42.017-77.103l68.374-106a50 50 0 0 1 42.018-22.897H911.16c20.68 0 37.372 12.813 44.805 32.11l42.683 105.917c12.612 32.754-11.558 67.973-46.658 67.973H50.082ZM341.854 702.5a50.003 50.003 0 0 1-46.259 30.942l-117.548-.078c-36.077-.024-60.255-37.082-45.744-70.112l278.214-633.26A50 50 0 0 1 456.276.104L585.403.059c17.035-.006 30.845 13.805 30.84 30.84a30.847 30.847 0 0 1-2.328 11.74L341.854 702.5Z" fill="#191919"/></svg>