<svg width="2253" height="438" viewBox="0 0 2253 438" fill="none" xmlns="http://www.w3.org/2000/svg">
<path d="M383.062 154.7H292.139C290.478 142.937 287.087 132.488 281.967 123.354C276.846 114.082 270.273 106.194 262.246 99.6894C254.219 93.185 244.947 88.2029 234.429 84.7431C224.05 81.2833 212.771 79.5534 200.592 79.5534C178.588 79.5534 159.421 85.0199 143.091 95.9528C126.76 106.747 114.097 122.524 105.102 143.283C96.1064 163.903 91.6087 188.952 91.6087 218.43C91.6087 248.738 96.1064 274.202 105.102 294.822C114.236 315.443 126.968 331.012 143.298 341.53C159.628 352.047 178.519 357.306 199.97 357.306C212.01 357.306 223.15 355.715 233.391 352.532C243.771 349.349 252.974 344.713 261.001 338.623C269.027 332.396 275.67 324.853 280.929 315.996C286.326 307.139 290.063 297.036 292.139 285.688L383.062 286.104C380.71 305.617 374.828 324.438 365.417 342.567C356.145 360.558 343.621 376.681 327.844 390.935C312.206 405.051 293.523 416.261 271.795 424.565C250.206 432.73 225.78 436.812 198.517 436.812C160.597 436.812 126.691 428.232 96.7984 411.072C67.0441 393.911 43.5174 369.07 26.2184 336.547C9.05782 304.025 0.477509 264.653 0.477509 218.43C0.477509 172.068 9.19621 132.627 26.6336 100.105C44.071 67.5824 67.7361 42.8103 97.6287 25.7881C127.521 8.62743 161.151 0.0471147 198.517 0.0471147C223.15 0.0471147 245.985 3.50692 267.021 10.4265C288.195 17.3461 306.947 27.4487 323.277 40.7344C339.607 53.8816 352.893 70.0043 363.134 89.1024C373.513 108.201 380.156 130.066 383.062 154.7ZM589.924 437.228C557.679 437.228 529.793 430.377 506.266 416.676C482.878 402.837 464.817 383.601 452.085 358.967C439.353 334.195 432.987 305.478 432.987 272.818C432.987 239.881 439.353 211.095 452.085 186.461C464.817 161.689 482.878 142.453 506.266 128.752C529.793 114.913 557.679 107.993 589.924 107.993C622.169 107.993 649.986 114.913 673.374 128.752C696.901 142.453 715.03 161.689 727.762 186.461C740.494 211.095 746.861 239.881 746.861 272.818C746.861 305.478 740.494 334.195 727.762 358.967C715.03 383.601 696.901 402.837 673.374 416.676C649.986 430.377 622.169 437.228 589.924 437.228ZM590.339 368.724C605.009 368.724 617.256 364.572 627.082 356.268C636.908 347.826 644.312 336.34 649.294 321.809C654.415 307.277 656.975 290.74 656.975 272.195C656.975 253.651 654.415 237.113 649.294 222.582C644.312 208.05 636.908 196.564 627.082 188.122C617.256 179.68 605.009 175.459 590.339 175.459C575.531 175.459 563.076 179.68 552.973 188.122C543.009 196.564 535.467 208.05 530.346 222.582C525.364 237.113 522.873 253.651 522.873 272.195C522.873 290.74 525.364 307.277 530.346 321.809C535.467 336.34 543.009 347.826 552.973 356.268C563.076 364.572 575.531 368.724 590.339 368.724ZM892.795 246.662V431H804.362V112.145H888.643V168.401H892.38C899.438 149.857 911.27 135.187 927.877 124.392C944.484 113.459 964.62 107.993 988.285 107.993C1010.43 107.993 1029.73 112.837 1046.2 122.524C1062.67 132.212 1075.47 146.051 1084.61 164.042C1093.74 181.894 1098.31 203.207 1098.31 227.979V431H1009.87V243.756C1010.01 224.242 1005.03 209.019 994.928 198.086C984.826 187.015 970.917 181.479 953.203 181.479C941.301 181.479 930.784 184.039 921.65 189.16C912.654 194.28 905.596 201.754 900.476 211.579C895.494 221.267 892.933 232.961 892.795 246.662ZM1337.6 112.145V178.573H1145.59V112.145H1337.6ZM1189.18 35.7523H1277.61V333.018C1277.61 341.184 1278.86 347.55 1281.35 352.117C1283.84 356.545 1287.3 359.659 1291.73 361.458C1296.29 363.257 1301.55 364.157 1307.5 364.157C1311.66 364.157 1315.81 363.811 1319.96 363.119C1324.11 362.288 1327.29 361.666 1329.51 361.25L1343.42 427.056C1338.99 428.44 1332.76 430.031 1324.73 431.83C1316.71 433.768 1306.95 434.944 1295.46 435.359C1274.15 436.19 1255.47 433.353 1239.42 426.848C1223.5 420.344 1211.11 410.241 1202.26 396.54C1193.4 382.84 1189.04 365.541 1189.18 344.643V35.7523ZM1486.13 437.02C1465.79 437.02 1447.66 433.491 1431.75 426.433C1415.83 419.237 1403.24 408.65 1393.96 394.672C1384.83 380.556 1380.26 362.98 1380.26 341.945C1380.26 324.231 1383.52 309.353 1390.02 297.313C1396.52 285.273 1405.38 275.586 1416.59 268.251C1427.8 260.916 1440.53 255.38 1454.79 251.644C1469.18 247.907 1484.27 245.278 1500.04 243.756C1518.59 241.818 1533.53 240.019 1544.88 238.358C1556.23 236.559 1564.46 233.93 1569.58 230.47C1574.7 227.01 1577.26 221.89 1577.26 215.108V213.863C1577.26 200.716 1573.11 190.544 1564.81 183.347C1556.64 176.151 1545.02 172.553 1529.93 172.553C1514.02 172.553 1501.36 176.082 1491.95 183.14C1482.54 190.059 1476.31 198.778 1473.26 209.296L1391.47 202.653C1395.63 183.278 1403.79 166.533 1415.97 152.417C1428.15 138.162 1443.85 127.229 1463.09 119.618C1482.47 111.868 1504.89 107.993 1530.35 107.993C1548.06 107.993 1565.02 110.069 1581.21 114.221C1597.54 118.372 1612 124.808 1624.59 133.526C1637.33 142.245 1647.36 153.455 1654.7 167.156C1662.03 180.718 1665.7 196.979 1665.7 215.939V431H1581.83V386.784H1579.34C1574.22 396.748 1567.37 405.536 1558.79 413.147C1550.21 420.621 1539.9 426.502 1527.86 430.792C1515.82 434.944 1501.91 437.02 1486.13 437.02ZM1511.46 375.989C1524.47 375.989 1535.95 373.429 1545.92 368.308C1555.88 363.049 1563.7 355.992 1569.38 347.134C1575.05 338.277 1577.89 328.244 1577.89 317.034V283.197C1575.12 284.996 1571.31 286.657 1566.47 288.179C1561.76 289.563 1556.44 290.878 1550.49 292.124C1544.54 293.231 1538.58 294.269 1532.63 295.237C1526.68 296.068 1521.29 296.829 1516.44 297.521C1506.06 299.043 1497 301.465 1489.25 304.786C1481.5 308.108 1475.48 312.606 1471.19 318.28C1466.9 323.815 1464.75 330.735 1464.75 339.038C1464.75 351.079 1469.11 360.282 1477.83 366.648C1486.69 372.875 1497.9 375.989 1511.46 375.989ZM1878.37 437.228C1845.71 437.228 1817.62 430.308 1794.09 416.469C1770.7 402.491 1752.71 383.116 1740.12 358.344C1727.66 333.572 1721.43 305.063 1721.43 272.818C1721.43 240.157 1727.73 211.51 1740.33 186.876C1753.06 162.104 1771.12 142.799 1794.51 128.959C1817.89 114.982 1845.71 107.993 1877.96 107.993C1905.77 107.993 1930.13 113.044 1951.03 123.147C1971.92 133.249 1988.46 147.435 2000.64 165.702C2012.82 183.97 2019.53 205.421 2020.78 230.055H1937.33C1934.97 214.14 1928.75 201.338 1918.64 191.651C1908.68 181.825 1895.6 176.912 1879.41 176.912C1865.71 176.912 1853.74 180.649 1843.5 188.122C1833.39 195.457 1825.51 206.182 1819.83 220.298C1814.16 234.414 1811.32 251.505 1811.32 271.572C1811.32 291.916 1814.09 309.215 1819.62 323.469C1825.3 337.724 1833.26 348.588 1843.5 356.061C1853.74 363.534 1865.71 367.27 1879.41 367.27C1889.51 367.27 1898.58 365.195 1906.6 361.043C1914.77 356.891 1921.48 350.871 1926.74 342.983C1932.14 334.956 1935.67 325.338 1937.33 314.128H2020.78C2019.39 338.485 2012.75 359.936 2000.85 378.48C1989.08 396.886 1972.82 411.279 1952.07 421.659C1931.31 432.038 1906.74 437.228 1878.37 437.228ZM2247 112.145V178.573H2054.98V112.145H2247ZM2098.57 35.7523H2187V333.018C2187 341.184 2188.25 347.55 2190.74 352.117C2193.23 356.545 2196.69 359.659 2201.12 361.458C2205.69 363.257 2210.94 364.157 2216.9 364.157C2221.05 364.157 2225.2 363.811 2229.35 363.119C2233.5 362.288 2236.69 361.666 2238.9 361.25L2252.81 427.056C2248.38 428.44 2242.15 430.031 2234.13 431.83C2226.1 433.768 2216.34 434.944 2204.86 435.359C2183.54 436.19 2164.86 433.353 2148.81 426.848C2132.89 420.344 2120.51 410.241 2111.65 396.54C2102.79 382.84 2098.43 365.541 2098.57 344.643V35.7523Z" fill="#E4E4E4" fill-opacity="0.45"/>
</svg>
