<svg xmlns="http://www.w3.org/2000/svg" width="3159" height="570" fill="none"><path fill="#CDCDCD" fill-opacity=".45" d="M.95 450V24.86h286.472v74.109H90.836v101.303h181.847v74.108H90.836v101.511h197.417V450H.951Zm430.175-318.855 58.54 111.474 59.993-111.474h90.716l-92.377 159.427L642.865 450h-90.301l-62.899-110.229L427.804 450h-91.339l94.66-159.428-91.339-159.427h91.339Zm261.769 438.426V131.145h87.187v53.557h3.944c3.875-8.58 9.48-17.299 16.814-26.156 7.474-8.995 17.161-16.468 29.063-22.419 12.04-6.089 26.986-9.134 44.839-9.134 23.25 0 44.7 6.089 64.352 18.268 19.652 12.04 35.359 30.238 47.123 54.595 11.763 24.219 17.644 54.596 17.644 91.132 0 35.566-5.743 65.597-17.229 90.093-11.348 24.357-26.848 42.832-46.5 55.426-19.513 12.455-41.379 18.683-65.598 18.683-17.16 0-31.761-2.837-43.801-8.511-11.902-5.674-21.658-12.802-29.27-21.382-7.611-8.719-13.424-17.507-17.437-26.364h-2.699v170.638h-88.432Zm86.564-278.999c0 18.96 2.629 35.498 7.888 49.614s12.871 25.118 22.835 33.006c9.964 7.75 22.073 11.625 36.328 11.625 14.393 0 26.571-3.944 36.535-11.832 9.965-8.027 17.507-19.098 22.627-33.214 5.259-14.255 7.889-30.654 7.889-49.199 0-18.406-2.56-34.598-7.681-48.575-5.12-13.978-12.663-24.911-22.627-32.799-9.964-7.889-22.212-11.833-36.743-11.833-14.393 0-26.571 3.806-36.536 11.418-9.825 7.611-17.368 18.406-22.627 32.383-5.259 13.978-7.888 30.447-7.888 49.406Zm428.672 165.656c-32.8 0-61.03-6.643-84.7-19.929-23.53-13.424-41.65-32.384-54.39-56.879-12.73-24.634-19.09-53.765-19.09-87.395 0-32.798 6.36-61.584 19.09-86.356 12.74-24.772 30.66-44.078 53.77-57.917 23.25-13.839 50.51-20.759 81.79-20.759 21.03 0 40.62 3.391 58.75 10.172 18.26 6.643 34.18 16.676 47.74 30.1 13.7 13.424 24.36 30.308 31.97 50.652 7.61 20.205 11.42 43.87 11.42 70.995v24.287h-269.24v-54.803h185.99c0-12.732-2.76-24.011-8.3-33.837-5.54-9.826-13.22-17.506-23.04-23.042-9.69-5.674-20.97-8.511-33.84-8.511-13.42 0-25.32 3.114-35.7 9.341-10.24 6.09-18.27 14.324-24.08 24.703-5.82 10.241-8.79 21.659-8.93 34.252v52.105c0 15.777 2.91 29.408 8.72 40.895 5.95 11.486 14.32 20.344 25.12 26.571 10.79 6.228 23.59 9.342 38.4 9.342 9.83 0 18.82-1.384 26.99-4.152 8.16-2.768 15.15-6.92 20.96-12.455 5.82-5.536 10.24-12.317 13.29-20.344l81.79 5.397c-4.15 19.652-12.66 36.813-25.53 51.482-12.74 14.531-29.21 25.879-49.41 34.045-20.07 8.026-43.25 12.04-69.54 12.04ZM1412.19 450V131.145h85.73v55.633h3.32c5.81-19.79 15.57-34.736 29.27-44.839 13.7-10.241 29.48-15.361 47.33-15.361 4.43 0 9.2.277 14.33.83 5.12.554 9.61 1.315 13.49 2.284v78.468c-4.15-1.246-9.9-2.353-17.23-3.322-7.34-.968-14.05-1.453-20.14-1.453-13.01 0-24.63 2.837-34.87 8.511-10.1 5.536-18.13 13.286-24.08 23.25-5.81 9.965-8.72 21.451-8.72 34.46V450h-88.43Zm239.19 0V131.145h88.43V450h-88.43Zm44.42-359.958c-13.14 0-24.42-4.36-33.83-13.078-9.28-8.857-13.91-19.444-13.91-31.76 0-12.18 4.63-22.628 13.91-31.347C1671.38 5 1682.66.572 1695.8.572c13.15 0 24.36 4.428 33.63 13.285 9.41 8.72 14.12 19.168 14.12 31.346 0 12.317-4.71 22.904-14.12 31.761-9.27 8.719-20.48 13.078-33.63 13.078Zm260.16 366.186c-32.8 0-61.03-6.643-84.69-19.929-23.53-13.424-41.66-32.384-54.39-56.879-12.73-24.634-19.1-53.765-19.1-87.395 0-32.798 6.37-61.584 19.1-86.356 12.73-24.772 30.65-44.078 53.76-57.917 23.25-13.839 50.52-20.759 81.79-20.759 21.04 0 40.62 3.391 58.75 10.172 18.27 6.643 34.18 16.676 47.75 30.1 13.7 13.424 24.35 30.308 31.97 50.652 7.61 20.205 11.41 43.87 11.41 70.995v24.287h-269.24v-54.803h186c0-12.732-2.77-24.011-8.3-33.837-5.54-9.826-13.22-17.506-23.05-23.042-9.68-5.674-20.96-8.511-33.83-8.511-13.43 0-25.33 3.114-35.71 9.341-10.24 6.09-18.27 14.324-24.08 24.703-5.81 10.241-8.79 21.659-8.92 34.252v52.105c0 15.777 2.9 29.408 8.71 40.895 5.96 11.486 14.33 20.344 25.12 26.571 10.8 6.228 23.6 9.342 38.41 9.342 9.82 0 18.82-1.384 26.98-4.152 8.17-2.768 15.16-6.92 20.97-12.455 5.81-5.536 10.24-12.317 13.29-20.344l81.78 5.397c-4.15 19.652-12.66 36.813-25.53 51.482-12.73 14.531-29.2 25.879-49.4 34.045-20.07 8.026-43.25 12.04-69.55 12.04Zm292.49-190.566V450h-88.43V131.145h84.28v56.256h3.74c7.06-18.544 18.89-33.214 35.5-44.009 16.6-10.933 36.74-16.399 60.41-16.399 22.14 0 41.44 4.844 57.91 14.531 16.47 9.688 29.27 23.527 38.41 41.518 9.13 17.852 13.7 39.165 13.7 63.937V450h-88.44V262.756c.14-19.514-4.84-34.737-14.94-45.67-10.1-11.071-24.01-16.607-41.73-16.607-11.9 0-22.42 2.56-31.55 7.681-9 5.12-16.05 12.594-21.17 22.419-4.99 9.688-7.55 21.382-7.69 35.083Zm419.28 190.566c-32.66 0-60.75-6.92-84.28-20.759-23.39-13.978-41.38-33.353-53.97-58.125-12.46-24.772-18.69-53.281-18.69-85.526 0-32.661 6.3-61.308 18.9-85.942 12.73-24.772 30.79-44.077 54.18-57.917 23.38-13.977 51.2-20.966 83.45-20.966 27.81 0 52.17 5.051 73.07 15.154 20.89 10.102 37.43 24.288 49.61 42.555 12.18 18.268 18.89 39.719 20.14 64.353h-83.45c-2.36-15.915-8.58-28.717-18.69-38.404-9.96-9.826-23.04-14.739-39.23-14.739-13.7 0-25.67 3.737-35.91 11.21-10.11 7.335-17.99 18.06-23.67 32.176-5.67 14.116-8.51 31.207-8.51 51.274 0 20.344 2.77 37.643 8.3 51.897 5.68 14.255 13.64 25.119 23.88 32.592 10.24 7.473 22.21 11.209 35.91 11.209 10.1 0 19.17-2.075 27.19-6.227 8.17-4.152 14.88-10.172 20.14-18.06 5.4-8.027 8.93-17.645 10.59-28.855h83.45c-1.39 24.357-8.03 45.808-19.93 64.352-11.77 18.406-28.03 32.799-48.79 43.179-20.75 10.379-45.32 15.569-73.69 15.569Zm344.34 0c-32.8 0-61.03-6.643-84.7-19.929-23.52-13.424-41.65-32.384-54.39-56.879-12.73-24.634-19.09-53.765-19.09-87.395 0-32.798 6.36-61.584 19.09-86.356 12.74-24.772 30.66-44.078 53.77-57.917 23.25-13.839 50.51-20.759 81.79-20.759 21.03 0 40.62 3.391 58.75 10.172 18.26 6.643 34.18 16.676 47.74 30.1 13.7 13.424 24.36 30.308 31.97 50.652 7.61 20.205 11.42 43.87 11.42 70.995v24.287h-269.24v-54.803h185.99c0-12.732-2.76-24.011-8.3-33.837-5.53-9.826-13.22-17.506-23.04-23.042-9.69-5.674-20.97-8.511-33.84-8.511-13.42 0-25.32 3.114-35.7 9.341-10.24 6.09-18.27 14.324-24.08 24.703-5.82 10.241-8.79 21.659-8.93 34.252v52.105c0 15.777 2.91 29.408 8.72 40.895 5.95 11.486 14.32 20.344 25.12 26.571 10.79 6.228 23.59 9.342 38.4 9.342 9.83 0 18.82-1.384 26.99-4.152 8.16-2.768 15.15-6.92 20.96-12.455 5.82-5.536 10.24-12.317 13.29-20.344l81.79 5.397c-4.15 19.652-12.66 36.813-25.53 51.482-12.74 14.531-29.21 25.879-49.41 34.045-20.07 8.026-43.25 12.04-69.54 12.04Z"/></svg>