<svg width="1245" height="787" viewBox="0 0 1245 787" fill="none" xmlns="http://www.w3.org/2000/svg">
<g opacity="0.5" clip-path="url(#clip0_456_911)">
<g clip-path="url(#clip1_456_911)">
<g clip-path="url(#clip2_456_911)">
<circle cx="592.724" cy="16.7239" r="4.18095" fill="#D6D6D6"/>
<circle cx="605.267" cy="16.7239" r="4.18095" fill="#D6D6D6"/>
<circle cx="617.81" cy="16.7239" r="4.18095" fill="#D6D6D6"/>
<line x1="576" y1="32.9251" x2="1244.95" y2="32.9251" stroke="#D6D6D6" stroke-width="1.04524"/>
</g>
</g>
<rect x="577.045" y="1.04524" width="666.862" height="436.91" rx="7.31667" stroke="#D6D6D6" stroke-width="2.09048"/>
<g clip-path="url(#clip3_456_911)">
<g clip-path="url(#clip4_456_911)">
<rect x="458.32" y="279.453" width="46.867" height="1.74877" rx="0.874384" fill="#D6D6D6"/>
<path fill-rule="evenodd" clip-rule="evenodd" d="M454.123 2.44828C454.123 0.734483 453.389 0 451.675 0H454.123V2.44828ZM454.123 0H508.685H511.133C509.421 0 508.687 0.732551 508.685 2.44152L508.685 2.44828L508.685 3.49754C508.685 7.74714 505.24 11.1921 500.99 11.1921H461.818C457.568 11.1921 454.123 7.74714 454.123 3.49754V0Z" fill="#D6D6D6"/>
</g>
</g>
<rect x="415" y="-1" width="133.158" height="286" rx="17.0887" stroke="#D6D6D6" stroke-width="2"/>
<g clip-path="url(#clip5_456_911)">
<line y1="-1" x2="742.36" y2="-1" transform="matrix(0.901017 0.433784 -0.609015 0.793159 576 459.952)" stroke="#D6D6D6" stroke-width="2"/>
<line y1="-1" x2="742.407" y2="-1" transform="matrix(0.899877 -0.436143 0.611478 0.791262 576.458 782.799)" stroke="#D6D6D6" stroke-width="2"/>
</g>
<rect x="577.001" y="460.95" width="666.508" height="321.271" transform="rotate(-0.0813181 577.001 460.95)" stroke="#D6D6D6" stroke-width="2"/>
<g filter="url(#filter0_b_456_911)">
<rect x="1" y="440" width="553" height="345.953" rx="22.0052" stroke="#D6D6D6" stroke-width="2"/>
</g>
<path d="M470.866 466.416C471.315 466.725 471.385 467.356 471.044 467.781L461.931 479.154C461.158 480.121 459.69 480.121 458.917 479.154L449.804 467.781C449.463 467.356 449.533 466.725 449.981 466.415C451.57 465.319 455.327 463.135 460.424 463.135C465.514 463.135 469.275 465.319 470.866 466.416Z" fill="#D6D6D6"/>
<path d="M522.476 465.598C522.476 464.782 521.815 464.121 520.999 464.121H519.521V462.151H513.612V464.121H512.134C511.318 464.121 510.657 464.782 510.657 465.598V480.373C510.657 481.189 511.318 481.85 512.134 481.85H520.999C521.815 481.85 522.476 481.189 522.476 480.373V465.598Z" fill="#D6D6D6"/>
<path d="M494.201 463.832C494.821 463.212 495.882 463.651 495.882 464.529V479.88C495.882 480.968 495 481.85 493.912 481.85H478.561C477.684 481.85 477.244 480.789 477.865 480.169L494.201 463.832Z" fill="#D6D6D6"/>
<rect x="-1" y="417.852" width="136.852" height="294" rx="9.63054" transform="rotate(-90 -1 417.852)" stroke="#D6D6D6" stroke-width="2"/>
<g clip-path="url(#clip6_456_911)">
<path d="M197.338 99.9402L202.403 97.4075C203.143 97.0376 204.013 97.5755 204.013 98.4026V105.928C204.013 106.755 203.143 107.293 202.403 106.923L197.338 104.391M186.212 108.841H195.112C196.341 108.841 197.338 107.845 197.338 106.616V97.715C197.338 96.486 196.341 95.4897 195.112 95.4897H186.212C184.983 95.4897 183.986 96.486 183.986 97.715V106.616C183.986 107.845 184.983 108.841 186.212 108.841Z" stroke="#D6D6D6" stroke-width="1.66892" stroke-linecap="round" stroke-linejoin="round"/>
<path d="M15.855 220.297V233.649L26.703 226.973L15.855 220.297Z" stroke="#D6D6D6" stroke-width="1.66892" stroke-linecap="round" stroke-linejoin="round"/>
<path d="M52.5711 223.635C53.0893 224.024 53.5099 224.528 53.7996 225.107C54.0892 225.686 54.24 226.325 54.24 226.973C54.24 227.621 54.0892 228.26 53.7996 228.839C53.5099 229.418 53.0893 229.922 52.5711 230.311M54.8242 221.132C55.6953 221.836 56.398 222.726 56.8807 223.736C57.3634 224.747 57.6139 225.853 57.6139 226.973C57.6139 228.093 57.3634 229.199 56.8807 230.21C56.398 231.22 55.6953 232.11 54.8242 232.814M45.061 229.476H43.3921C43.1708 229.476 42.9585 229.388 42.802 229.232C42.6455 229.075 42.5576 228.863 42.5576 228.642V225.304C42.5576 225.083 42.6455 224.871 42.802 224.714C42.9585 224.558 43.1708 224.47 43.3921 224.47H45.061L47.9816 220.715C48.0545 220.573 48.1757 220.462 48.3233 220.402C48.4709 220.342 48.6351 220.336 48.7862 220.387C48.9374 220.437 49.0655 220.54 49.1475 220.677C49.2295 220.813 49.2599 220.975 49.2333 221.132V232.814C49.2599 232.971 49.2295 233.133 49.1475 233.269C49.0655 233.406 48.9374 233.509 48.7862 233.559C48.6351 233.61 48.4709 233.604 48.3233 233.544C48.1757 233.484 48.0545 233.373 47.9816 233.231L45.061 229.476Z" stroke="#D6D6D6" stroke-width="1.66892" stroke-linecap="round" stroke-linejoin="round"/>
<path d="M361.321 223.635V220.297M361.321 220.297H364.659M361.321 220.297L365.493 224.47M374.672 223.635V220.297M374.672 220.297H371.334M374.672 220.297L370.5 224.47M361.321 230.311V233.649M361.321 233.649H364.659M361.321 233.649L365.493 229.476M374.672 233.649L370.5 229.476M374.672 233.649V230.311M374.672 233.649H371.334" stroke="#D6D6D6" stroke-width="1.66892" stroke-linecap="round" stroke-linejoin="round"/>
<path d="M336.558 220.562C336.914 219.096 338.998 219.096 339.354 220.562C339.584 221.509 340.669 221.958 341.501 221.451C342.789 220.667 344.262 222.14 343.478 223.428C342.971 224.26 343.42 225.345 344.367 225.575C345.832 225.931 345.832 228.015 344.367 228.371C343.42 228.601 342.971 229.686 343.478 230.518C344.262 231.806 342.789 233.28 341.501 232.495C340.669 231.988 339.584 232.437 339.354 233.384C338.998 234.85 336.914 234.85 336.558 233.384C336.328 232.437 335.243 231.988 334.411 232.495C333.123 233.28 331.649 231.806 332.434 230.518C332.941 229.686 332.492 228.601 331.545 228.371C330.079 228.015 330.079 225.931 331.545 225.575C332.492 225.345 332.941 224.26 332.434 223.428C331.649 222.14 333.123 220.667 334.411 221.451C335.243 221.958 336.328 221.509 336.558 220.562Z" stroke="#D6D6D6" stroke-width="1.66892" stroke-linecap="round" stroke-linejoin="round"/>
<path d="M340.459 226.973C340.459 228.356 339.339 229.476 337.956 229.476C336.573 229.476 335.453 228.356 335.453 226.973C335.453 225.59 336.573 224.47 337.956 224.47C339.339 224.47 340.459 225.59 340.459 226.973Z" stroke="#D6D6D6" stroke-width="1.66892" stroke-linecap="round" stroke-linejoin="round"/>
<path d="M0 207.78H388.024V206.111H0V207.78Z" fill="#D6D6D6" mask="url(#path-24-inside-1_456_911)"/>
</g>
<rect x="0.41723" y="0.41723" width="387.189" height="246.166" rx="4.58953" stroke="#D6D6D6" stroke-width="0.834459"/>
<path d="M428.534 365.433L432.814 361.153C433.543 360.424 434.725 360.424 435.454 361.153L439.734 365.433M437.867 363.567L439.347 362.087C440.076 361.358 441.258 361.358 441.987 362.087L443.467 363.567M437.867 357.967H437.876M430.4 369.167H441.6C442.631 369.167 443.467 368.331 443.467 367.3V356.1C443.467 355.069 442.631 354.233 441.6 354.233H430.4C429.369 354.233 428.534 355.069 428.534 356.1V367.3C428.534 368.331 429.369 369.167 430.4 369.167Z" stroke="#D6D6D6" stroke-width="1.4" stroke-linecap="round" stroke-linejoin="round"/>
<rect x="319.05" y="299.05" width="233.9" height="125.9" stroke="#D6D6D6" stroke-width="2.1"/>
</g>
<defs>
<filter id="filter0_b_456_911" x="-109.655" y="329.345" width="774.31" height="567.263" filterUnits="userSpaceOnUse" color-interpolation-filters="sRGB">
<feFlood flood-opacity="0" result="BackgroundImageFix"/>
<feGaussianBlur in="BackgroundImageFix" stdDeviation="54.8275"/>
<feComposite in2="SourceAlpha" operator="in" result="effect1_backgroundBlur_456_911"/>
<feBlend mode="normal" in="SourceGraphic" in2="effect1_backgroundBlur_456_911" result="shape"/>
</filter>
<clipPath id="clip0_456_911">
<rect width="1244.97" height="786.953" fill="white"/>
</clipPath>
<clipPath id="clip1_456_911">
<rect x="576" width="668.952" height="439" rx="8.3619" fill="white"/>
</clipPath>
<clipPath id="clip2_456_911">
<rect width="668.952" height="33.4476" fill="white" transform="translate(576)"/>
</clipPath>
<clipPath id="clip3_456_911">
<rect x="416" width="131.158" height="284" rx="16.0887" fill="white"/>
</clipPath>
<clipPath id="clip4_456_911">
<rect x="416" width="131.158" height="284" rx="8.39409" fill="white"/>
</clipPath>
<clipPath id="clip5_456_911">
<rect x="576" y="459.952" width="668.508" height="323.271" transform="rotate(-0.0813181 576 459.952)" fill="white"/>
</clipPath>
<clipPath id="clip6_456_911">
<rect width="388.024" height="247" rx="5.00676" fill="white"/>
</clipPath>
</defs>
</svg>
