<svg width="655" height="293" viewBox="0 0 655 293" fill="none" xmlns="http://www.w3.org/2000/svg">
<rect x="204.258" y="156.709" width="256.544" height="75.6129" rx="37.8064" fill="#EE9D00"/>
<path d="M231.379 136.245L231.379 136.245L231.377 136.259C231.241 137.244 230.792 138.16 230.095 138.871C229.399 139.582 228.492 140.05 227.51 140.206L227.502 140.207L200.874 144.739L200.522 144.799L200.373 145.124L189.149 169.693L189.146 169.699C188.743 170.609 188.057 171.364 187.191 171.854C186.326 172.344 185.327 172.544 184.34 172.423L184.242 172.41L184.236 172.409C183.267 172.292 182.36 171.872 181.643 171.21C180.926 170.547 180.437 169.676 180.244 168.72L180.242 168.711L180.24 168.703L166.124 107.045L166.122 107.032L166.115 106.994C165.938 106.129 166.007 105.231 166.316 104.403C166.624 103.575 167.158 102.85 167.858 102.311C168.558 101.771 169.395 101.439 170.274 101.352C171.153 101.265 172.039 101.426 172.831 101.818L172.839 101.822L172.847 101.825L172.882 101.842L228.835 131.343L228.843 131.347L228.851 131.35C229.739 131.79 230.464 132.502 230.919 133.382C231.374 134.263 231.535 135.266 231.379 136.245Z" fill="#EE9D00" stroke="white" stroke-width="1.35023"/>
<path d="M269.801 206.904C268.542 206.904 267.438 206.664 266.491 206.184C265.543 205.705 264.806 205.033 264.278 204.169C263.751 203.306 263.487 202.311 263.487 201.183V201.147C263.487 199.492 264.098 198.185 265.322 197.226C266.557 196.254 268.29 195.703 270.52 195.571L277.68 195.139V197.873L271.042 198.287C269.879 198.359 268.979 198.641 268.344 199.133C267.72 199.612 267.408 200.254 267.408 201.057V201.093C267.408 201.921 267.72 202.574 268.344 203.054C268.979 203.534 269.819 203.774 270.862 203.774C271.774 203.774 272.589 203.588 273.309 203.216C274.04 202.844 274.616 202.335 275.036 201.687C275.455 201.027 275.665 200.29 275.665 199.474V193.844C275.665 192.8 275.341 191.985 274.694 191.397C274.046 190.798 273.117 190.498 271.906 190.498C270.79 190.498 269.891 190.738 269.207 191.217C268.536 191.697 268.116 192.315 267.948 193.07L267.912 193.232H264.242L264.26 193.034C264.356 191.943 264.722 190.965 265.358 190.102C265.993 189.227 266.875 188.537 268.002 188.033C269.129 187.53 270.466 187.278 272.014 187.278C273.561 187.278 274.898 187.536 276.025 188.051C277.152 188.567 278.028 189.292 278.651 190.228C279.275 191.163 279.587 192.261 279.587 193.52V206.562H275.665V203.576H275.593C275.222 204.259 274.742 204.853 274.154 205.357C273.567 205.848 272.901 206.232 272.157 206.508C271.426 206.772 270.64 206.904 269.801 206.904ZM290.452 206.94C288.869 206.94 287.508 206.7 286.369 206.22C285.241 205.729 284.354 205.051 283.706 204.187C283.059 203.312 282.669 202.299 282.537 201.147L282.519 200.985H286.369L286.405 201.165C286.597 202.029 287.022 202.706 287.682 203.198C288.342 203.678 289.265 203.918 290.452 203.918C291.244 203.918 291.915 203.822 292.467 203.63C293.019 203.426 293.444 203.138 293.744 202.766C294.044 202.395 294.194 201.951 294.194 201.435V201.417C294.194 200.806 293.996 200.314 293.6 199.942C293.205 199.57 292.497 199.258 291.478 199.007L288.384 198.305C286.585 197.897 285.235 197.256 284.336 196.38C283.449 195.493 283.005 194.365 283.005 192.998V192.98C283.005 191.841 283.311 190.846 283.922 189.994C284.534 189.131 285.391 188.465 286.495 187.997C287.598 187.518 288.875 187.278 290.326 187.278C291.813 187.278 293.097 187.53 294.176 188.033C295.255 188.537 296.095 189.227 296.695 190.102C297.306 190.965 297.642 191.931 297.702 192.998V193.214H294.05L294.032 193.088C293.924 192.261 293.552 191.589 292.917 191.073C292.281 190.546 291.418 190.282 290.326 190.282C289.631 190.282 289.025 190.384 288.509 190.588C287.994 190.792 287.598 191.085 287.322 191.469C287.046 191.841 286.908 192.279 286.908 192.782V192.8C286.908 193.376 287.124 193.868 287.556 194.275C287.988 194.683 288.707 195.001 289.715 195.229L292.809 195.948C294.74 196.392 296.107 197.022 296.91 197.837C297.726 198.641 298.134 199.726 298.134 201.093V201.111C298.134 202.263 297.804 203.276 297.144 204.151C296.485 205.027 295.573 205.711 294.41 206.202C293.259 206.694 291.939 206.94 290.452 206.94ZM301.138 206.562V187.637H305.059V190.57H305.131C305.539 189.574 306.205 188.777 307.128 188.177C308.052 187.578 309.131 187.278 310.366 187.278C311.23 187.278 312.009 187.422 312.705 187.709C313.412 187.997 314.018 188.423 314.522 188.987C315.025 189.538 315.397 190.21 315.637 191.001H315.727C316.051 190.234 316.501 189.574 317.076 189.023C317.664 188.459 318.341 188.027 319.109 187.727C319.888 187.428 320.728 187.278 321.627 187.278C322.875 187.278 323.96 187.542 324.883 188.069C325.807 188.585 326.526 189.31 327.042 190.246C327.558 191.181 327.816 192.279 327.816 193.538V206.562H323.894V194.491C323.894 193.268 323.582 192.321 322.959 191.649C322.335 190.965 321.442 190.624 320.278 190.624C319.511 190.624 318.833 190.798 318.245 191.145C317.67 191.493 317.214 191.979 316.878 192.602C316.554 193.226 316.393 193.934 316.393 194.725V206.562H312.561V194.204C312.561 193.1 312.237 192.231 311.589 191.595C310.954 190.947 310.084 190.624 308.981 190.624C308.226 190.624 307.548 190.81 306.948 191.181C306.361 191.541 305.899 192.039 305.563 192.674C305.227 193.31 305.059 194.042 305.059 194.869V206.562H301.138ZM331.701 206.562V187.637H335.623V206.562H331.701ZM333.662 184.723C333.038 184.723 332.505 184.507 332.061 184.076C331.617 183.632 331.395 183.104 331.395 182.493C331.395 181.857 331.617 181.323 332.061 180.892C332.505 180.46 333.038 180.244 333.662 180.244C334.298 180.244 334.831 180.46 335.263 180.892C335.707 181.323 335.929 181.857 335.929 182.493C335.929 183.104 335.707 183.632 335.263 184.076C334.831 184.507 334.298 184.723 333.662 184.723ZM346.272 206.94C344.402 206.94 343.004 206.52 342.081 205.681C341.17 204.829 340.714 203.456 340.714 201.561V190.732H337.997V187.637H340.714V182.708H344.707V187.637H348.251V190.732H344.707V201.345C344.707 202.305 344.917 202.964 345.337 203.324C345.757 203.672 346.38 203.846 347.208 203.846C347.412 203.846 347.598 203.84 347.766 203.828C347.945 203.804 348.107 203.786 348.251 203.774V206.778C348.023 206.814 347.736 206.85 347.388 206.886C347.04 206.922 346.668 206.94 346.272 206.94ZM361.527 206.94C360.16 206.94 358.967 206.622 357.947 205.986C356.94 205.339 356.154 204.463 355.591 203.36H355.501V206.562H351.597V180.604H355.501V190.858H355.591C356.154 189.742 356.952 188.867 357.983 188.231C359.027 187.596 360.22 187.278 361.563 187.278C363.146 187.278 364.525 187.679 365.701 188.483C366.876 189.275 367.793 190.402 368.453 191.865C369.113 193.328 369.442 195.067 369.442 197.082V197.1C369.442 199.115 369.113 200.859 368.453 202.335C367.805 203.798 366.888 204.931 365.701 205.735C364.513 206.538 363.122 206.94 361.527 206.94ZM360.484 203.576C361.503 203.576 362.385 203.318 363.128 202.802C363.872 202.287 364.441 201.543 364.837 200.572C365.245 199.588 365.449 198.431 365.449 197.1V197.082C365.449 195.751 365.245 194.605 364.837 193.646C364.441 192.674 363.872 191.931 363.128 191.415C362.385 190.888 361.503 190.624 360.484 190.624C359.512 190.624 358.649 190.894 357.893 191.433C357.15 191.961 356.562 192.71 356.13 193.682C355.699 194.641 355.483 195.775 355.483 197.082V197.1C355.483 198.407 355.693 199.546 356.112 200.518C356.544 201.489 357.138 202.245 357.893 202.784C358.649 203.312 359.512 203.576 360.484 203.576ZM372.411 206.562V187.637H376.332V190.57H376.404C376.812 189.574 377.478 188.777 378.401 188.177C379.324 187.578 380.404 187.278 381.639 187.278C382.502 187.278 383.282 187.422 383.978 187.709C384.685 187.997 385.291 188.423 385.794 188.987C386.298 189.538 386.67 190.21 386.91 191.001H387C387.324 190.234 387.773 189.574 388.349 189.023C388.937 188.459 389.614 188.027 390.382 187.727C391.161 187.428 392.001 187.278 392.9 187.278C394.147 187.278 395.233 187.542 396.156 188.069C397.08 188.585 397.799 189.31 398.315 190.246C398.831 191.181 399.088 192.279 399.088 193.538V206.562H395.167V194.491C395.167 193.268 394.855 192.321 394.231 191.649C393.608 190.965 392.714 190.624 391.551 190.624C390.783 190.624 390.106 190.798 389.518 191.145C388.943 191.493 388.487 191.979 388.151 192.602C387.827 193.226 387.665 193.934 387.665 194.725V206.562H383.834V194.204C383.834 193.1 383.51 192.231 382.862 191.595C382.227 190.947 381.357 190.624 380.254 190.624C379.498 190.624 378.821 190.81 378.221 191.181C377.633 191.541 377.172 192.039 376.836 192.674C376.5 193.31 376.332 194.042 376.332 194.869V206.562H372.411Z" fill="black"/>
</svg>
