<svg width="655" height="293" viewBox="0 0 655 293" fill="none" xmlns="http://www.w3.org/2000/svg">
<g clip-path="url(#clip0_452_35)">
<rect x="-93.166" y="183.631" width="228.189" height="70.212" rx="35.106" fill="#4C4C4C"/>
<rect x="-93.166" y="56.7095" width="186.332" height="70.212" rx="35.106" fill="#4C4C4C"/>
<rect x="541.12" y="169.41" width="228.189" height="70.212" rx="35.106" fill="#4C4C4C"/>
<path d="M568.908 146.351C568.752 147.48 568.237 148.529 567.439 149.344C566.642 150.158 565.603 150.694 564.477 150.873L537.849 155.404L526.625 179.973C526.163 181.015 525.377 181.88 524.386 182.442C523.394 183.004 522.248 183.232 521.116 183.093L521.016 183.079C519.906 182.945 518.867 182.464 518.047 181.706C517.226 180.947 516.665 179.949 516.444 178.853L502.325 117.185C502.32 117.167 502.317 117.148 502.315 117.13C502.113 116.14 502.192 115.114 502.545 114.167C502.897 113.221 503.508 112.392 504.308 111.776C505.107 111.159 506.064 110.78 507.069 110.68C508.074 110.58 509.087 110.765 509.992 111.212L510.043 111.236L566.012 140.745C567.029 141.249 567.859 142.064 568.38 143.073C568.901 144.081 569.086 145.23 568.908 146.351Z" fill="black"/>
<rect x="572.862" y="30" width="228.189" height="70.212" rx="35.106" fill="#4C4C4C"/>
</g>
<defs>
<clipPath id="clip0_452_35">
<rect width="654.862" height="293" fill="white"/>
</clipPath>
</defs>
</svg>
