<svg width="2309" height="570" fill="none" xmlns="http://www.w3.org/2000/svg"><path d="M.95 450V24.86h167.732c32.245 0 59.716 6.158 82.412 18.475 22.697 12.178 39.996 29.131 51.897 50.859 12.04 21.589 18.061 46.5 18.061 74.732s-6.09 53.142-18.268 74.731c-12.179 21.59-29.824 38.404-52.935 50.444-22.973 12.04-50.79 18.061-83.451 18.061H59.491v-72.034h92.376c17.299 0 31.554-2.975 42.763-8.926 11.349-6.089 19.79-14.462 25.326-25.118 5.674-10.795 8.511-23.181 8.511-37.158 0-14.116-2.837-26.433-8.511-36.951-5.536-10.656-13.977-18.89-25.326-24.703-11.348-5.951-25.741-8.926-43.178-8.926H90.836V450H.951Zm376.825 0V131.145h85.734v55.633h3.321c5.813-19.79 15.569-34.736 29.27-44.839 13.701-10.241 29.478-15.361 47.33-15.361 4.429 0 9.203.277 14.324.83 5.12.554 9.618 1.315 13.493 2.284v78.468c-4.152-1.246-9.895-2.353-17.23-3.322-7.335-.968-14.047-1.453-20.136-1.453-13.009 0-24.634 2.837-34.875 8.511-10.102 5.536-18.129 13.286-24.08 23.25-5.812 9.965-8.719 21.451-8.719 34.46V450h-88.432Zm368.417 6.228c-32.245 0-60.131-6.851-83.658-20.552-23.388-13.839-41.448-33.075-54.181-57.709-12.732-24.772-19.098-53.489-19.098-86.149 0-32.937 6.366-61.723 19.098-86.357 12.733-24.772 30.793-44.008 54.181-57.709 23.527-13.839 51.413-20.759 83.658-20.759 32.245 0 60.062 6.92 83.45 20.759 23.527 13.701 41.656 32.937 54.388 57.709 12.732 24.634 19.099 53.42 19.099 86.357 0 32.66-6.367 61.377-19.099 86.149-12.732 24.634-30.861 43.87-54.388 57.709-23.388 13.701-51.205 20.552-83.45 20.552Zm.415-68.504c14.67 0 26.917-4.152 36.743-12.456 9.826-8.442 17.23-19.928 22.212-34.459 5.121-14.532 7.681-31.069 7.681-49.614 0-18.544-2.56-35.082-7.681-49.613-4.982-14.532-12.386-26.018-22.212-34.46s-22.073-12.663-36.743-12.663c-14.808 0-27.263 4.221-37.366 12.663-9.964 8.442-17.506 19.928-22.627 34.46-4.982 14.531-7.473 31.069-7.473 49.613 0 18.545 2.491 35.082 7.473 49.614 5.121 14.531 12.663 26.017 22.627 34.459 10.103 8.304 22.558 12.456 37.366 12.456ZM960.63 131.145h88.43v334.632c0 24.633-4.84 44.562-14.53 59.785-9.69 15.223-23.59 26.364-41.723 33.422-17.991 7.058-39.511 10.587-64.56 10.587-3.045 0-5.951-.069-8.719-.208-2.906 0-5.951-.069-9.134-.207v-69.127c2.353.138 4.429.207 6.228.207 1.66.139 3.46.208 5.397.208 14.254 0 24.219-3.045 29.893-9.134 5.812-5.951 8.718-14.946 8.718-26.986V131.145Zm44.01-41.103c-13.01 0-24.22-4.36-33.63-13.078-9.411-8.857-14.116-19.444-14.116-31.76 0-12.18 4.705-22.628 14.116-31.347C980.42 5 991.63.572 1004.64.572c13.28 0 24.56 4.428 33.84 13.285 9.41 8.72 14.11 19.168 14.11 31.346 0 12.317-4.7 22.904-14.11 31.761-9.28 8.719-20.56 13.078-33.84 13.078Zm260.57 366.186c-32.79 0-61.03-6.643-84.69-19.929-23.53-13.424-41.66-32.384-54.39-56.879-12.73-24.634-19.1-53.765-19.1-87.395 0-32.798 6.37-61.584 19.1-86.356 12.73-24.772 30.65-44.078 53.77-57.917 23.25-13.839 50.51-20.759 81.79-20.759 21.03 0 40.61 3.391 58.74 10.172 18.27 6.643 34.19 16.676 47.75 30.1 13.7 13.424 24.35 30.308 31.97 50.652 7.61 20.205 11.41 43.87 11.41 70.995v24.287h-269.24v-54.803h186c0-12.732-2.77-24.011-8.3-33.837-5.54-9.826-13.22-17.506-23.04-23.042-9.69-5.674-20.97-8.511-33.84-8.511-13.43 0-25.33 3.114-35.71 9.341-10.24 6.09-18.26 14.324-24.08 24.703-5.81 10.241-8.79 21.659-8.92 34.252v52.105c0 15.777 2.9 29.408 8.72 40.895 5.95 11.486 14.32 20.344 25.11 26.571 10.8 6.228 23.6 9.342 38.41 9.342 9.82 0 18.82-1.384 26.98-4.152 8.17-2.768 15.16-6.92 20.97-12.455 5.81-5.536 10.24-12.317 13.29-20.344l81.79 5.397c-4.16 19.652-12.67 36.813-25.54 51.482-12.73 14.531-29.2 25.879-49.4 34.045-20.07 8.026-43.25 12.04-69.55 12.04Zm348.13 0c-32.66 0-60.75-6.92-84.28-20.759-23.39-13.978-41.38-33.353-53.97-58.125-12.46-24.772-18.69-53.281-18.69-85.526 0-32.661 6.3-61.308 18.89-85.942 12.74-24.772 30.8-44.077 54.18-57.917 23.39-13.977 51.21-20.966 83.45-20.966 27.82 0 52.18 5.051 73.08 15.154 20.89 10.102 37.43 24.288 49.61 42.555 12.18 18.268 18.89 39.719 20.13 64.353h-83.45c-2.35-15.915-8.58-28.717-18.68-38.404-9.96-9.826-23.04-14.739-39.23-14.739-13.7 0-25.67 3.737-35.92 11.21-10.1 7.335-17.99 18.06-23.66 32.176-5.67 14.116-8.51 31.207-8.51 51.274 0 20.344 2.77 37.643 8.3 51.897 5.68 14.255 13.63 25.119 23.87 32.592 10.25 7.473 22.22 11.209 35.92 11.209 10.1 0 19.16-2.075 27.19-6.227 8.17-4.152 14.88-10.172 20.14-18.06 5.39-8.027 8.92-17.645 10.58-28.855h83.45c-1.38 24.357-8.02 45.808-19.92 64.352-11.77 18.406-28.03 32.799-48.79 43.179-20.76 10.379-45.32 15.569-73.69 15.569Zm368.62-325.083v66.428h-192.02v-66.428h192.02Zm-148.42-76.393h88.43v297.266c0 8.166 1.25 14.532 3.74 19.099 2.49 4.428 5.95 7.542 10.38 9.341 4.56 1.799 9.82 2.699 15.77 2.699 4.16 0 8.31-.346 12.46-1.038 4.15-.831 7.33-1.453 9.55-1.869l13.91 65.806c-4.43 1.384-10.66 2.975-18.69 4.774-8.02 1.938-17.78 3.114-29.27 3.529-21.31.831-39.99-2.006-56.05-8.511-15.91-6.504-28.3-16.607-37.15-30.308-8.86-13.7-13.22-30.999-13.08-51.897V54.753Zm467.33 167.316-80.96 4.982c-1.38-6.919-4.36-13.147-8.92-18.683-4.57-5.674-10.59-10.171-18.06-13.493-7.34-3.46-16.13-5.189-26.37-5.189-13.7 0-25.26 2.906-34.67 8.718-9.41 5.674-14.11 13.286-14.11 22.835 0 7.611 3.04 14.047 9.13 19.306 6.09 5.259 16.54 9.479 31.35 12.662l57.71 11.625c31 6.366 54.11 16.607 69.33 30.723 15.23 14.116 22.84 32.661 22.84 55.634 0 20.897-6.16 39.234-18.48 55.011-12.18 15.777-28.92 28.094-50.24 36.951-21.17 8.718-45.6 13.078-73.27 13.078-42.21 0-75.84-8.788-100.89-26.364-24.91-17.714-39.51-41.794-43.8-72.241l86.98-4.567c2.63 12.871 8.99 22.697 19.09 29.478 10.11 6.643 23.05 9.964 38.82 9.964 15.5 0 27.96-2.975 37.37-8.926 9.55-6.089 14.39-13.909 14.53-23.458-.14-8.026-3.53-14.6-10.17-19.721-6.64-5.258-16.88-9.272-30.72-12.04l-55.22-11.002c-31.14-6.227-54.32-17.022-69.54-32.384-15.09-15.361-22.63-34.944-22.63-58.747 0-20.482 5.53-38.127 16.61-52.935 11.21-14.808 26.91-26.225 47.12-34.252 20.34-8.027 44.15-12.04 71.41-12.04 40.27 0 71.96 8.511 95.07 25.533 23.25 17.022 36.82 40.203 40.69 69.542Z" fill="#CDCDCD" fill-opacity=".45"/></svg>