<svg width="3672" height="457" viewBox="0 0 3672 457" fill="none" xmlns="http://www.w3.org/2000/svg">
<path d="M121.649 450L0.00216903 24.8596H98.1913L168.564 320.257H172.093L249.731 24.8596H333.804L411.234 320.88H414.971L485.343 24.8596H583.532L461.886 450H374.284L293.324 172.04H290.003L209.251 450H121.649ZM739.794 456.228C707.549 456.228 679.663 449.377 656.136 435.676C632.748 421.837 614.688 402.601 601.956 377.967C589.224 353.195 582.858 324.478 582.858 291.818C582.858 258.881 589.224 230.095 601.956 205.461C614.688 180.689 632.748 161.453 656.136 147.752C679.663 133.913 707.549 126.993 739.794 126.993C772.04 126.993 799.856 133.913 823.245 147.752C846.771 161.453 864.901 180.689 877.633 205.461C890.365 230.095 896.731 258.881 896.731 291.818C896.731 324.478 890.365 353.195 877.633 377.967C864.901 402.601 846.771 421.837 823.245 435.676C799.856 449.377 772.04 456.228 739.794 456.228ZM740.209 387.724C754.879 387.724 767.127 383.572 776.952 375.268C786.778 366.826 794.182 355.34 799.164 340.809C804.285 326.277 806.845 309.74 806.845 291.195C806.845 272.651 804.285 256.113 799.164 241.582C794.182 227.05 786.778 215.564 776.952 207.122C767.127 198.68 754.879 194.459 740.209 194.459C725.401 194.459 712.946 198.68 702.844 207.122C692.879 215.564 685.337 227.05 680.216 241.582C675.234 256.113 672.743 272.651 672.743 291.195C672.743 309.74 675.234 326.277 680.216 340.809C685.337 355.34 692.879 366.826 702.844 375.268C712.946 383.572 725.401 387.724 740.209 387.724ZM954.233 450V131.145H1039.97V186.778H1043.29C1049.1 166.988 1058.86 152.042 1072.56 141.939C1086.26 131.698 1102.04 126.578 1119.89 126.578C1124.32 126.578 1129.09 126.855 1134.21 127.408C1139.33 127.962 1143.83 128.723 1147.7 129.692V208.16C1143.55 206.914 1137.81 205.807 1130.48 204.838C1123.14 203.87 1116.43 203.385 1110.34 203.385C1097.33 203.385 1085.71 206.222 1075.46 211.896C1065.36 217.432 1057.33 225.182 1051.38 235.146C1045.57 245.111 1042.67 256.597 1042.67 269.606V450H954.233ZM1273.56 358.246L1273.76 252.169H1286.63L1388.77 131.145H1490.28L1353.06 291.403H1332.09L1273.56 358.246ZM1193.43 450V24.8596H1281.86V450H1193.43ZM1392.71 450L1298.88 311.124L1357.84 248.64L1496.3 450H1392.71ZM1665.84 456.228C1633.05 456.228 1604.81 449.585 1581.15 436.299C1557.62 422.875 1539.49 403.915 1526.76 379.42C1514.03 354.786 1507.66 325.655 1507.66 292.025C1507.66 259.227 1514.03 230.441 1526.76 205.669C1539.49 180.897 1557.41 161.591 1580.53 147.752C1603.78 133.913 1631.04 126.993 1662.32 126.993C1683.35 126.993 1702.93 130.384 1721.06 137.165C1739.33 143.808 1755.25 153.841 1768.81 167.265C1782.51 180.689 1793.17 197.573 1800.78 217.917C1808.39 238.122 1812.19 261.787 1812.19 288.912V313.199H1542.95V258.396H1728.95C1728.95 245.664 1726.18 234.385 1720.65 224.559C1715.11 214.733 1707.43 207.053 1697.61 201.517C1687.92 195.843 1676.64 193.006 1663.77 193.006C1650.34 193.006 1638.44 196.12 1628.06 202.347C1617.82 208.437 1609.8 216.671 1603.98 227.05C1598.17 237.291 1595.2 248.709 1595.06 261.302V313.407C1595.06 329.184 1597.96 342.815 1603.78 354.302C1609.73 365.788 1618.1 374.646 1628.89 380.873C1639.69 387.101 1652.49 390.215 1667.3 390.215C1677.12 390.215 1686.12 388.831 1694.28 386.063C1702.45 383.295 1709.44 379.143 1715.25 373.608C1721.06 368.072 1725.49 361.291 1728.54 353.264L1810.33 358.661C1806.17 378.313 1797.66 395.474 1784.79 410.143C1772.06 424.674 1755.59 436.022 1735.39 444.188C1715.32 452.214 1692.14 456.228 1665.84 456.228ZM1987.4 455.19C1963.18 455.19 1941.24 448.962 1921.59 436.507C1902.08 423.913 1886.58 405.438 1875.09 381.081C1863.75 356.585 1858.07 326.554 1858.07 290.988C1858.07 254.452 1863.95 224.075 1875.72 199.856C1887.48 175.499 1903.12 157.301 1922.63 145.261C1942.28 133.082 1963.8 126.993 1987.19 126.993C2005.04 126.993 2019.92 130.038 2031.82 136.127C2043.86 142.078 2053.55 149.551 2060.88 158.546C2068.36 167.403 2074.03 176.122 2077.91 184.702H2080.61V24.8596H2168.83V450H2081.64V398.933H2077.91C2073.76 407.79 2067.87 416.578 2060.26 425.297C2052.79 433.877 2043.03 441.005 2030.99 446.679C2019.09 452.353 2004.56 455.19 1987.4 455.19ZM2015.42 384.817C2029.68 384.817 2041.72 380.942 2051.54 373.192C2061.51 365.304 2069.12 354.302 2074.38 340.186C2079.78 326.07 2082.47 309.532 2082.47 290.572C2082.47 271.613 2079.84 255.144 2074.59 241.166C2069.33 227.189 2061.72 216.394 2051.75 208.783C2041.79 201.171 2029.68 197.365 2015.42 197.365C2000.89 197.365 1988.64 201.309 1978.68 209.198C1968.72 217.086 1961.17 228.019 1956.05 241.997C1950.93 255.974 1948.37 272.166 1948.37 290.572C1948.37 309.117 1950.93 325.516 1956.05 339.771C1961.31 353.887 1968.85 364.958 1978.68 372.985C1988.64 380.873 2000.89 384.817 2015.42 384.817ZM2474.19 450L2352.55 24.8596H2450.74L2521.11 320.257H2524.64L2602.27 24.8596H2686.35L2763.78 320.88H2767.51L2837.89 24.8596H2936.08L2814.43 450H2726.83L2645.87 172.04H2642.55L2561.79 450H2474.19ZM2982.52 450V131.145H3070.96V450H2982.52ZM3026.95 90.0422C3013.8 90.0422 3002.52 85.6829 2993.11 76.9642C2983.84 68.1071 2979.2 57.5201 2979.2 45.2032C2979.2 33.0247 2983.84 22.5761 2993.11 13.8574C3002.52 5.00032 3013.8 0.571769 3026.95 0.571769C3040.1 0.571769 3051.3 5.00032 3060.58 13.8574C3069.99 22.5761 3074.69 33.0247 3074.69 45.2032C3074.69 57.5201 3069.99 68.1071 3060.58 76.9642C3051.3 85.6829 3040.1 90.0422 3026.95 90.0422ZM3311.4 131.145V197.573H3119.38V131.145H3311.4ZM3162.97 54.7523H3251.4V352.018C3251.4 360.184 3252.65 366.55 3255.14 371.117C3257.63 375.545 3261.09 378.659 3265.52 380.458C3270.09 382.257 3275.34 383.157 3281.3 383.157C3285.45 383.157 3289.6 382.811 3293.75 382.119C3297.9 381.288 3301.09 380.666 3303.3 380.25L3317.21 446.056C3312.78 447.44 3306.55 449.031 3298.53 450.83C3290.5 452.768 3280.74 453.944 3269.26 454.359C3247.94 455.19 3229.26 452.353 3213.21 445.848C3197.29 439.344 3184.91 429.241 3176.05 415.54C3167.19 401.84 3162.83 384.541 3162.97 363.643V54.7523ZM3464.28 265.662V450H3375.85V24.8596H3461.79V187.401H3465.53C3472.73 168.58 3484.35 153.841 3500.4 143.185C3516.46 132.39 3536.59 126.993 3560.81 126.993C3582.96 126.993 3602.26 131.837 3618.73 141.524C3635.34 151.073 3648.21 164.843 3657.34 182.834C3666.61 200.687 3671.18 222.068 3671.04 246.979V450H3582.61V262.756C3582.75 243.104 3577.77 227.812 3567.66 216.879C3557.7 205.946 3543.72 200.479 3525.73 200.479C3513.69 200.479 3503.03 203.039 3493.76 208.16C3484.63 213.28 3477.43 220.754 3472.17 230.579C3467.05 240.267 3464.42 251.961 3464.28 265.662Z" fill="#E4E4E4" fill-opacity="0.45"/>
</svg>
