<svg width="718" height="425" viewBox="0 0 718 425" fill="none" xmlns="http://www.w3.org/2000/svg">
<g clip-path="url(#clip0_436_480)">
<mask id="mask0_436_480" style="mask-type:luminance" maskUnits="userSpaceOnUse" x="0" y="119" width="718" height="159">
<path d="M717.655 119H0V277.501H717.655V119Z" fill="white"/>
</mask>
<g mask="url(#mask0_436_480)">
<path d="M278.283 240.945H267.282L258.227 217.265H219.6L210.544 240.945H199.671L232.924 155.544H245.213L278.283 240.945ZM223.293 207.576H254.476L238.816 165.509L223.293 207.576Z" fill="#1B1130"/>
<path d="M311.87 242.245C305.835 242.302 299.872 240.926 294.472 238.23C289.352 235.735 285.092 231.769 282.241 226.838L291.043 220.498C292.838 224.363 295.742 227.607 299.385 229.818C303.403 232.153 307.996 233.317 312.641 233.178C317.243 233.178 320.799 232.304 323.388 230.532C324.368 229.94 325.21 229.146 325.859 228.203C326.509 227.259 326.949 226.189 327.151 225.061C327.354 223.934 327.315 222.777 327.034 221.667C326.754 220.557 326.241 219.519 325.528 218.623C324.354 217.089 322.133 215.988 318.866 215.32L303.332 212.053C297.026 210.764 292.519 208.608 289.812 205.586C287.063 202.494 285.602 198.468 285.727 194.333C285.705 190.857 286.771 187.461 288.776 184.621C290.983 181.539 293.975 179.104 297.441 177.568C301.614 175.718 306.144 174.814 310.708 174.921C316.335 174.746 321.913 176.043 326.886 178.684C331.199 181.097 334.642 184.809 336.724 189.293L328.048 195.046C326.784 191.482 324.247 188.511 320.925 186.704C317.798 184.971 314.283 184.057 310.708 184.046C307.997 183.984 305.298 184.421 302.745 185.335C300.772 186.042 299.029 187.276 297.705 188.902C296.536 190.384 295.916 192.227 295.952 194.115C295.987 196.003 296.677 197.82 297.901 199.257C299.19 200.853 301.603 202.004 305.138 202.709L321.316 206.081C327.361 207.285 331.58 209.268 333.974 212.03C336.401 214.821 337.695 218.422 337.598 222.121C337.673 225.932 336.541 229.669 334.365 232.799C332.081 235.965 328.938 238.413 325.309 239.852C321.033 241.537 316.464 242.35 311.87 242.245Z" fill="#1B1130"/>
<path d="M393.059 176.245H404.186L373.786 251.819C372.494 255.404 370.684 258.78 368.412 261.841C366.716 264.105 364.498 265.924 361.946 267.145C359.356 268.271 356.554 268.824 353.73 268.768C350.996 268.792 348.277 268.376 345.676 267.536C343.34 266.781 341.134 265.667 339.14 264.234L341.982 255.179C343.584 256.663 345.449 257.834 347.482 258.631C349.313 259.363 351.263 259.754 353.235 259.781C355.512 259.767 357.729 259.044 359.575 257.71C361.554 256.329 363.364 253.525 365.006 249.299L368.366 240.888L361.9 225.492L341.326 176.314H353.074L373.256 225.607L393.059 176.245Z" fill="#1B1130"/>
<path d="M413.08 240.945V176.244H422.113L423.01 190.742L421.33 189.316C422.52 186.143 424.425 183.288 426.899 180.973C429.212 178.864 431.962 177.292 434.954 176.371C438.037 175.425 441.244 174.948 444.47 174.956C448.832 174.9 453.152 175.803 457.127 177.602C460.889 179.338 464.062 182.138 466.251 185.657C468.552 189.285 469.703 193.887 469.703 199.464V240.887H459.347V203.158C459.347 196.001 457.814 191.015 454.745 188.199C451.655 185.39 447.597 183.885 443.422 184C440.191 184.031 437.008 184.781 434.102 186.197C430.894 187.766 428.217 190.243 426.404 193.32C424.379 196.603 423.367 201.002 423.367 206.518V240.933L413.08 240.945Z" fill="#1B1130"/>
<path d="M509.976 174.956C514.019 174.877 518.039 175.581 521.816 177.027C525.155 178.364 528.174 180.391 530.676 182.976C533.236 185.656 535.294 188.774 536.751 192.181L526.925 196.784C525.823 193.064 523.641 189.756 520.654 187.279C517.487 184.968 513.628 183.803 509.711 183.977C505.8 183.867 501.94 184.877 498.584 186.888C495.413 188.906 492.93 191.839 491.462 195.299C488.194 203.818 488.194 213.245 491.462 221.764C492.915 225.248 495.4 228.204 498.584 230.233C501.94 232.244 505.8 233.254 509.711 233.144C512.697 233.214 515.666 232.686 518.444 231.591C520.82 230.618 522.913 229.063 524.531 227.069C526.188 224.946 527.319 222.462 527.834 219.82L537.407 223.179C536.061 226.937 534.019 230.407 531.389 233.409C528.848 236.249 525.703 238.483 522.184 239.944C518.306 241.523 514.15 242.305 509.964 242.245C504.313 242.34 498.736 240.956 493.786 238.23C489.021 235.543 485.152 231.513 482.659 226.643C480.015 220.994 478.645 214.833 478.645 208.595C478.645 202.358 480.015 196.197 482.659 190.547C485.154 185.679 489.024 181.651 493.786 178.96C498.741 176.236 504.322 174.855 509.976 174.956Z" fill="#1B1130"/>
<path d="M624.833 240.945H610.208L602.062 218.565H566.219L558.061 240.945H543.828L576.046 155.544H592.615L624.833 240.945ZM570.097 207.3H598.161L584.181 167.454L570.097 207.3Z" fill="#1B1130"/>
<path d="M665.427 155.544C670.889 155.408 676.31 156.514 681.283 158.778C685.537 160.804 689.128 163.996 691.639 167.983C694.099 172.359 695.39 177.294 695.39 182.314C695.39 187.334 694.099 192.269 691.639 196.645C689.137 200.64 685.544 203.835 681.283 205.85C676.313 208.124 670.89 209.233 665.427 209.095H646.407V240.922H632.599V155.544H665.427ZM663.23 197.209C669.366 197.209 673.873 195.936 676.75 193.389C679.626 190.842 681.072 187.156 681.087 182.331C681.087 177.422 679.641 173.69 676.75 171.136C673.858 168.581 669.351 167.308 663.23 167.315H646.407V197.232L663.23 197.209Z" fill="#1B1130"/>
<path d="M717.655 155.544V240.945H703.847V155.544H717.655Z" fill="#1B1130"/>
<path d="M121.013 119H37.4879C16.7839 119 0 135.784 0 156.488V240.013C0 260.716 16.7839 277.501 37.4879 277.501H121.013C141.716 277.501 158.501 260.716 158.501 240.013V156.488C158.501 135.784 141.716 119 121.013 119Z" fill="url(#paint0_linear_436_480)"/>
<path d="M121.013 119H37.4879C16.7839 119 0 135.784 0 156.488V240.013C0 260.716 16.7839 277.501 37.4879 277.501H121.013C141.716 277.501 158.501 260.716 158.501 240.013V156.488C158.501 135.784 141.716 119 121.013 119Z" fill="url(#paint1_linear_436_480)"/>
<path d="M121.013 119H37.4879C16.7839 119 0 135.784 0 156.488V240.013C0 260.716 16.7839 277.501 37.4879 277.501H121.013C141.716 277.501 158.501 260.716 158.501 240.013V156.488C158.501 135.784 141.716 119 121.013 119Z" fill="url(#paint2_linear_436_480)"/>
<path d="M121.013 119H37.4879C16.7839 119 0 135.784 0 156.488V240.013C0 260.716 16.7839 277.501 37.4879 277.501H121.013C141.716 277.501 158.501 260.716 158.501 240.013V156.488C158.501 135.784 141.716 119 121.013 119Z" fill="url(#paint3_linear_436_480)"/>
<path d="M51.169 181.514L46.4514 188.015L83.2949 214.756L83.5481 214.94L88.2657 208.439L51.4222 181.698L51.169 181.514Z" fill="white"/>
<path d="M75.2403 181.698L74.9872 181.514L70.2695 188.015L107.113 214.756L107.366 214.94L112.084 208.439L75.2403 181.698Z" fill="white"/>
<path d="M79.2792 148.238C59.3041 148.238 43.057 160.653 43.057 175.911V176.221H51.1115V175.911C51.1115 165.083 63.7685 156.269 79.3022 156.269C94.8359 156.269 107.493 165.083 107.493 175.911V176.221H115.547V175.911C115.501 160.653 99.2543 148.238 79.2792 148.238Z" fill="white"/>
<path d="M107.412 220.579C107.412 231.406 94.7553 240.22 79.2102 240.22C63.665 240.22 51.0195 231.406 51.0195 220.579V220.268H42.965V220.579C42.965 235.836 59.2119 248.251 79.187 248.251C99.1622 248.251 115.409 235.836 115.409 220.579V220.268H107.355L107.412 220.579Z" fill="white"/>
</g>
</g>
<defs>
<linearGradient id="paint0_linear_436_480" x1="143.669" y1="133.82" x2="18.3642" y2="259.137" gradientUnits="userSpaceOnUse">
<stop stop-color="#2DCCFD"/>
<stop offset="1" stop-color="#AD20E2"/>
</linearGradient>
<linearGradient id="paint1_linear_436_480" x1="143.669" y1="262.669" x2="18.3527" y2="137.353" gradientUnits="userSpaceOnUse">
<stop stop-color="#A829E2"/>
<stop offset="0.05" stop-color="#A829E2" stop-opacity="0.84"/>
<stop offset="0.11" stop-color="#A829E2" stop-opacity="0.67"/>
<stop offset="0.18" stop-color="#A829E2" stop-opacity="0.51"/>
<stop offset="0.25" stop-color="#A829E2" stop-opacity="0.38"/>
<stop offset="0.33" stop-color="#A829E2" stop-opacity="0.28"/>
<stop offset="0.43" stop-color="#A829E2" stop-opacity="0.2"/>
<stop offset="0.54" stop-color="#A829E2" stop-opacity="0.14"/>
<stop offset="0.68" stop-color="#A829E2" stop-opacity="0.11"/>
<stop offset="1" stop-color="#A829E2" stop-opacity="0.1"/>
</linearGradient>
<linearGradient id="paint2_linear_436_480" x1="14.8318" y1="262.669" x2="140.137" y2="137.353" gradientUnits="userSpaceOnUse">
<stop stop-color="#E50E99"/>
<stop offset="1" stop-color="#A829E2" stop-opacity="0.1"/>
</linearGradient>
<linearGradient id="paint3_linear_436_480" x1="143.669" y1="133.832" x2="18.3527" y2="259.137" gradientUnits="userSpaceOnUse">
<stop stop-color="#21D4FD"/>
<stop offset="0.03" stop-color="#27CDFC" stop-opacity="0.96"/>
<stop offset="0.23" stop-color="#4E9CF4" stop-opacity="0.7"/>
<stop offset="0.43" stop-color="#6E73EE" stop-opacity="0.49"/>
<stop offset="0.61" stop-color="#8753E9" stop-opacity="0.32"/>
<stop offset="0.77" stop-color="#993CE5" stop-opacity="0.2"/>
<stop offset="0.9" stop-color="#A42EE3" stop-opacity="0.13"/>
<stop offset="1" stop-color="#A829E2" stop-opacity="0.1"/>
</linearGradient>
<clipPath id="clip0_436_480">
<rect width="718" height="158.788" fill="white" transform="translate(0 119)"/>
</clipPath>
</defs>
</svg>
