<svg width="605" height="127" viewBox="0 0 605 127" fill="none" xmlns="http://www.w3.org/2000/svg">
<g clip-path="url(#clip0_1179_1496)">
<path d="M164.12 31.3203H189.896C201.403 31.3203 209.231 39.1488 209.231 48.3514C209.231 53.2234 207.205 56.2632 205.275 58.3869C204.165 59.5806 202.888 60.5106 201.403 61.2462C203.526 62.079 205.359 63.2727 206.927 64.744C209.786 67.2286 212.451 71.1012 212.451 76.9032C212.451 87.0358 203.707 95.7804 191.27 95.7804H164.106V31.3203H164.12ZM189.896 57.5541C195.42 57.5541 199.099 53.9591 199.099 48.8095C199.099 43.6599 195.42 40.0649 189.896 40.0649H174.239V57.5541H189.896ZM191.284 87.0219C197.822 87.0219 202.333 82.4137 202.333 76.4312C202.333 70.4488 197.822 65.8406 191.284 65.8406H174.253V87.0219H191.284Z" fill="#001A4F"/>
<path d="M245.14 31.3203H255.272V95.7665H245.14V31.3203Z" fill="#001A4F"/>
<path d="M322.023 29.4922C341.358 29.4922 356.085 44.2192 356.085 62.6383C356.085 81.0575 341.358 95.7844 322.023 95.7844C302.687 95.7844 287.96 81.0575 287.96 62.6383C287.96 44.2192 302.687 29.4922 322.023 29.4922ZM322.023 86.5818C335.376 86.5818 345.966 75.9911 345.966 62.6383C345.966 49.2855 335.376 38.6948 322.023 38.6948C308.67 38.6948 298.079 49.2855 298.079 62.6383C298.079 75.9911 308.67 86.5818 322.023 86.5818Z" fill="#001A4F"/>
<path d="M388.773 31.3203H415.479C427.901 31.3203 436.66 40.1621 436.66 51.5717C436.66 58.8449 433.523 63.2589 430.497 66.1182C428.651 67.77 426.624 69.0608 424.334 69.9908L438.978 95.7665H427.471L414.118 71.823H398.933V95.7665H388.801V31.3203H388.773ZM415.479 62.6204C422.016 62.6204 426.527 58.1093 426.527 51.5717C426.527 45.034 422.016 40.5229 415.479 40.5229H398.906V62.6204H415.479Z" fill="#001A4F"/>
<path d="M527.326 83.802C525.397 86.1894 523.19 88.3131 520.511 90.2424C516 93.4626 509.462 96.6829 500.62 96.6829C481.285 96.6829 466.558 81.9559 466.558 63.5367C466.558 45.1176 481.285 30.3906 500.62 30.3906C509.462 30.3906 515.903 33.4304 520.316 36.6506C522.801 38.4967 525.008 40.5232 526.854 42.8135L520.414 49.2539C519.123 47.505 517.471 45.8533 515.528 44.4652C512.21 41.9807 507.241 39.5933 500.606 39.5933C487.254 39.5933 476.663 50.1839 476.663 63.5367C476.663 76.8896 487.254 87.4802 500.606 87.4802C507.241 87.4802 512.294 84.9957 515.708 82.4139C517.735 80.9426 519.484 79.277 520.858 77.3476L527.298 83.7881L527.326 83.802Z" fill="#001A4F"/>
<path d="M557.71 31.3203H603.279V40.9949H567.828V57.5679H595.908V67.2286H567.828V86.1058H604.195V95.7665H557.696V31.3203H557.71Z" fill="#001A4F"/>
<path d="M93.4007 79.7097C93.2897 78.4882 93.3174 77.2251 93.0259 76.0453C91.5685 70.0213 85.3224 65.3297 79.1873 65.5379C72.5525 65.7739 66.9449 70.5765 65.8483 77.0308C65.4042 79.7097 65.4042 82.4996 64.6408 85.0814C62.2534 93.0764 55.8129 97.6847 46.8879 98.337C44.9863 98.4758 43.0153 98.8645 41.2525 99.5724C33.9376 102.487 30.7729 111.509 34.4373 118.602C38.1433 125.778 47.221 128.346 53.9391 124.14C58.4502 121.323 60.5738 117.117 60.7543 111.967C60.8653 108.636 61.5732 105.555 63.2805 102.723C67.167 96.3244 73.0522 93.5761 80.381 93.4234C87.3767 93.2707 93.7755 86.4139 93.4007 79.7236V79.7097Z" fill="url(#paint0_linear_1179_1496)"/>
<path d="M46.4575 93.2913C47.679 93.1803 48.9421 93.2081 50.1219 92.9166C56.1459 91.4592 60.8375 85.213 60.6293 79.0779C60.3933 72.4432 55.5907 66.8355 49.1364 65.739C46.4575 65.2948 43.6676 65.2948 41.0858 64.5314C33.0908 62.144 28.4825 55.7035 27.8302 46.7785C27.6914 44.8769 27.3027 42.9059 26.5948 41.1431C23.68 33.8282 14.6578 30.6635 7.56494 34.3279C0.388833 38.0339 -2.17902 47.1116 2.02671 53.8297C4.84441 58.3408 9.05013 60.4645 14.1997 60.6449C17.531 60.7559 20.6124 61.4638 23.444 63.1711C29.8428 67.0576 32.5911 72.9428 32.7438 80.2716C32.8965 87.2673 39.7533 93.6661 46.4436 93.2913H46.4575Z" fill="url(#paint1_linear_1179_1496)"/>
<path d="M33.0904 46.4673C33.2014 47.6887 33.1737 48.9518 33.4652 50.1317C34.9226 56.1557 41.1687 60.8473 47.3038 60.639C53.9386 60.4031 59.5462 55.6005 60.6428 49.1462C61.0869 46.4673 61.0869 43.6773 61.8504 41.0956C64.2378 33.1006 70.6782 28.4923 79.6032 27.8399C81.5048 27.7011 83.4758 27.3125 85.2386 26.6046C92.5535 23.6897 95.7183 14.6675 92.0539 7.57471C88.3478 0.398599 79.2701 -2.16925 72.5521 2.03647C68.041 4.85417 65.9173 9.0599 65.7368 14.2095C65.6258 17.5408 64.9179 20.6222 63.2106 23.4538C59.3241 29.8526 53.4389 32.6009 46.1101 32.7535C39.1144 32.9062 32.7156 39.7631 33.0904 46.4534V46.4673Z" fill="url(#paint2_linear_1179_1496)"/>
<path d="M80.0339 32.8751C78.8124 32.9861 77.5493 32.9583 76.3695 33.2498C70.3455 34.7073 65.6539 40.9534 65.8621 47.0885C66.0981 53.7232 70.9007 59.3309 77.355 60.4274C80.0339 60.8716 82.8238 60.8716 85.4056 61.635C93.4006 64.0224 98.0089 70.4629 98.6613 79.3879C98.8001 81.2895 99.1887 83.2605 99.8966 85.0233C102.811 92.3382 111.834 95.5029 118.926 91.8385C126.103 88.1325 128.67 79.0548 124.465 72.3367C121.647 67.8256 117.441 65.7019 112.292 65.5215C108.96 65.4105 105.879 64.7026 103.047 62.9953C96.6486 59.1088 93.9003 53.2236 93.7476 45.8948C93.595 38.8991 86.7381 32.5003 80.0478 32.8751H80.0339Z" fill="url(#paint3_linear_1179_1496)"/>
<path d="M48.6224 28.6117C56.8534 28.5285 62.2806 20.5751 61.8781 13.968C61.4201 6.50045 54.4383 0.309839 47.1928 0.809529C39.1561 1.36474 33.2986 8.19384 33.951 16.2722C34.5339 23.4205 41.363 29.167 48.6224 28.6117Z" fill="url(#paint4_linear_1179_1496)"/>
<path d="M112.707 61.2133C120.938 61.13 126.366 53.1766 125.963 46.5696C125.505 39.102 118.523 32.9114 111.278 33.4111C103.241 33.9663 97.3835 40.7954 98.0359 48.8737C98.6189 56.0221 105.448 61.7685 112.707 61.2133Z" fill="url(#paint5_linear_1179_1496)"/>
<path d="M15.3793 92.5492C23.6103 92.466 29.0375 84.5126 28.6349 77.9055C28.1769 70.4379 21.1951 64.2473 13.9496 64.747C5.9129 65.3022 0.0554208 72.1313 0.707794 80.2097C1.29077 87.358 8.11987 93.1045 15.3793 92.5492Z" fill="url(#paint6_linear_1179_1496)"/>
<path d="M79.7142 125.495C87.9452 125.411 93.3724 117.458 92.9699 110.851C92.5118 103.383 85.5301 97.1927 78.2846 97.6923C70.2479 98.2476 64.3904 105.077 65.0428 113.155C65.6257 120.303 72.4548 126.05 79.7142 125.495Z" fill="url(#paint7_linear_1179_1496)"/>
</g>
<defs>
<linearGradient id="paint0_linear_1179_1496" x1="50.2885" y1="169.113" x2="74.704" y2="30.6706" gradientUnits="userSpaceOnUse">
<stop stop-color="#A5F6FF"/>
<stop offset="1" stop-color="#5EBABA"/>
</linearGradient>
<linearGradient id="paint1_linear_1179_1496" x1="24.7765" y1="94.5128" x2="44.9168" y2="-19.7081" gradientUnits="userSpaceOnUse">
<stop stop-color="#A5F6FF"/>
<stop offset="1" stop-color="#5EBABA"/>
</linearGradient>
<linearGradient id="paint2_linear_1179_1496" x1="50.3297" y1="103.751" x2="74.7451" y2="-34.7046" gradientUnits="userSpaceOnUse">
<stop stop-color="#A5F6FF"/>
<stop offset="1" stop-color="#5EBABA"/>
</linearGradient>
<linearGradient id="paint3_linear_1179_1496" x1="80.3809" y1="152.676" x2="100.521" y2="38.4549" gradientUnits="userSpaceOnUse">
<stop stop-color="#A5F6FF"/>
<stop offset="1" stop-color="#5EBABA"/>
</linearGradient>
<linearGradient id="paint4_linear_1179_1496" x1="38.7119" y1="66.8658" x2="61.073" y2="-59.9723" gradientUnits="userSpaceOnUse">
<stop stop-color="#A5F6FF"/>
<stop offset="1" stop-color="#5EBABA"/>
</linearGradient>
<linearGradient id="paint5_linear_1179_1496" x1="91.7204" y1="162.345" x2="114.082" y2="35.507" gradientUnits="userSpaceOnUse">
<stop stop-color="#A5F6FF"/>
<stop offset="1" stop-color="#5EBABA"/>
</linearGradient>
<linearGradient id="paint6_linear_1179_1496" x1="11.2152" y1="98.1708" x2="33.5763" y2="-28.6534" gradientUnits="userSpaceOnUse">
<stop stop-color="#A5F6FF"/>
<stop offset="1" stop-color="#5EBABA"/>
</linearGradient>
<linearGradient id="paint7_linear_1179_1496" x1="64.4181" y1="194.244" x2="86.7932" y2="67.4194" gradientUnits="userSpaceOnUse">
<stop stop-color="#A5F6FF"/>
<stop offset="1" stop-color="#5EBABA"/>
</linearGradient>
<clipPath id="clip0_1179_1496">
<rect width="604.209" height="126.158" fill="white" transform="translate(0 0.0078125)"/>
</clipPath>
</defs>
</svg>
