<svg width="718" height="425" viewBox="0 0 718 425" fill="none" xmlns="http://www.w3.org/2000/svg">
<path d="M114.671 360.907C116.112 360.907 117.347 360.701 118.787 360.084C120.022 359.466 121.051 358.643 121.874 357.614L125.784 361.524C124.55 362.965 122.903 364.406 121.051 365.229C119.199 366.052 117.141 366.464 115.083 366.464C113.231 366.464 111.379 366.258 109.732 365.64C108.086 365.023 106.439 363.994 104.999 362.759C103.764 361.524 102.735 360.084 101.912 358.437C101.294 356.791 100.883 355.145 100.883 353.293C100.883 351.44 101.089 349.794 101.912 348.148C102.529 346.501 103.558 345.061 104.999 343.826C106.234 342.591 107.88 341.562 109.526 340.945C111.173 340.327 113.025 339.916 114.877 339.916C116.935 339.916 118.993 340.327 120.845 341.15C122.697 341.974 124.344 343.208 125.784 344.855L122.08 348.971C121.257 347.942 120.228 346.913 118.993 346.501C117.758 345.884 116.318 345.678 115.083 345.678C113.025 345.678 110.967 346.501 109.321 347.942C108.497 348.765 107.88 349.588 107.468 350.617C107.057 351.646 106.851 352.675 106.851 353.704C106.851 354.733 107.057 355.762 107.263 356.791C107.674 357.82 108.292 358.643 108.909 359.466C109.526 360.29 110.35 360.701 111.379 361.113C112.613 360.907 113.642 360.907 114.671 360.907ZM151.921 362.553C149.245 365.023 145.747 366.464 142.042 366.464C140.19 366.464 138.338 366.258 136.692 365.435C135.045 364.817 133.399 363.788 132.164 362.553C129.694 360.084 128.254 356.585 128.254 353.087C128.254 349.588 129.694 346.09 132.164 343.62C134.839 341.151 138.338 339.71 142.042 339.71C143.895 339.71 145.747 339.916 147.393 340.739C149.039 341.356 150.686 342.385 151.921 343.62C154.39 346.09 155.831 349.588 155.831 353.087C155.831 356.585 154.39 359.878 151.921 362.553ZM150.068 353.087C150.068 350.823 149.245 348.765 147.805 347.119C147.187 346.295 146.158 345.678 145.335 345.266C144.306 344.855 143.277 344.649 142.248 344.649C141.219 344.649 140.19 344.855 139.161 345.266C138.132 345.678 137.309 346.295 136.692 347.119C135.868 347.942 135.251 348.765 135.045 349.794C134.839 350.823 134.428 351.852 134.634 352.881C134.634 355.145 135.457 357.203 136.897 358.849C137.515 359.672 138.544 360.29 139.367 360.701C140.396 361.113 141.425 361.319 142.454 361.319C143.483 361.319 144.512 361.113 145.541 360.701C146.57 360.29 147.393 359.672 148.01 358.849C149.245 357.203 150.068 355.145 150.068 353.087ZM184.848 349.794L177.645 363.994H174.147L166.944 349.794V366.052H160.976V339.916H169.002L175.793 354.116L182.584 339.916H190.611V366.052H184.848V349.794ZM215.512 342.591C216.541 343.414 217.364 344.649 217.776 345.884C218.187 347.119 218.393 348.559 218.393 349.794C218.393 353.087 217.364 355.351 215.512 356.791C213.66 358.437 210.779 359.055 206.663 359.055H203.37V366.258H197.402V340.327H206.869C210.779 340.327 213.66 340.945 215.512 342.591ZM211.19 352.675C212.013 351.646 212.425 350.411 212.219 349.177C212.219 348.559 212.219 347.942 212.013 347.324C211.808 346.707 211.396 346.295 210.779 345.884C209.544 345.266 207.898 344.855 206.457 344.855H203.37V353.498H207.28C207.898 353.498 208.721 353.498 209.338 353.293C210.161 353.498 210.779 353.087 211.19 352.675ZM230.124 359.466C230.535 360.084 231.153 360.495 231.976 360.907C232.593 361.319 233.416 361.319 234.24 361.319C235.063 361.319 235.68 361.113 236.503 360.907C237.121 360.495 237.738 360.084 238.356 359.466C239.385 358.026 240.002 356.174 239.796 354.527V340.121H245.764V354.527C245.764 356.174 245.558 357.614 245.147 359.261C244.529 360.701 243.706 362.142 242.677 363.377C240.414 365.229 237.532 366.258 234.445 366.258C231.358 366.258 228.477 365.023 226.419 363.171C225.39 361.936 224.567 360.701 223.95 359.055C223.332 357.614 223.127 355.968 223.332 354.322V339.916H229.3V354.322C228.477 356.174 229.095 357.82 230.124 359.466ZM262.845 345.266V366.052H256.877V345.266H249.469V340.327H270.46V345.266H262.845ZM274.782 340.327H280.75V366.258H274.782V340.327ZM305.651 340.327H311.619V366.258H305.651L293.098 350V366.258H287.13V340.327H292.686L305.857 356.997L305.651 340.327ZM335.492 353.087H341.46V362.348C340.019 363.788 338.373 365.023 336.521 365.64C334.669 366.464 332.611 366.669 330.553 366.669C326.848 366.669 323.35 365.435 320.675 362.965C319.44 361.73 318.411 360.29 317.588 358.643C316.764 356.997 316.559 355.351 316.559 353.498C316.559 351.646 316.764 350 317.588 348.353C318.205 346.707 319.234 345.266 320.469 344.032C321.704 342.797 323.35 341.768 324.996 341.15C326.643 340.533 328.495 340.121 330.347 340.121C334.051 340.121 337.55 341.356 340.225 343.826L337.138 348.148C336.315 347.119 335.08 346.501 333.846 346.09C332.817 345.678 331.788 345.472 330.553 345.472C328.495 345.472 326.437 346.295 324.79 347.736C323.967 348.559 323.35 349.382 322.938 350.411C322.527 351.44 322.321 352.469 322.321 353.704C322.321 355.968 323.144 358.026 324.585 359.672C325.202 360.29 326.025 360.907 327.054 361.319C327.877 361.73 328.906 361.936 329.935 361.936C331.788 361.936 333.434 361.73 335.08 360.907V353.498C335.08 353.087 335.492 353.087 335.492 353.087ZM375.005 340.327V345.472H362.657V351.029H374.388V356.174H362.657V366.258H356.689V340.327H375.005ZM402.376 362.553C399.701 365.023 396.202 366.464 392.498 366.464C390.646 366.464 388.793 366.258 387.147 365.435C385.501 364.817 383.854 363.788 382.62 362.553C380.15 360.084 378.709 356.585 378.709 353.087C378.709 349.588 380.15 346.09 382.62 343.62C385.295 341.151 388.793 339.71 392.498 339.71C394.35 339.71 396.202 339.916 397.849 340.739C399.495 341.356 401.141 342.385 402.376 343.62C404.846 346.09 406.286 349.588 406.286 353.087C406.286 356.585 405.051 359.878 402.376 362.553ZM400.318 353.087C400.318 350.823 399.495 348.765 398.054 347.119C397.437 346.295 396.408 345.678 395.585 345.266C394.556 344.855 393.527 344.649 392.498 344.649C391.469 344.649 390.44 344.855 389.411 345.266C388.382 345.678 387.559 346.295 386.941 347.119C386.118 347.942 385.501 348.765 385.295 349.794C384.883 350.823 384.678 351.852 384.883 352.881C384.883 355.145 385.707 357.203 387.147 358.849C387.765 359.672 388.793 360.29 389.617 360.701C390.646 361.113 391.675 361.319 392.704 361.319C393.733 361.319 394.762 361.113 395.791 360.701C396.82 360.29 397.643 359.672 398.26 358.849C399.083 358.026 399.701 357.203 399.907 356.174C400.318 355.145 400.524 354.116 400.318 353.087ZM418.634 359.466C419.046 360.084 419.663 360.495 420.486 360.907C421.104 361.319 421.927 361.319 422.75 361.319C423.573 361.319 424.191 361.113 425.014 360.907C425.631 360.495 426.249 360.084 426.866 359.466C427.895 358.026 428.512 356.174 428.307 354.527V340.121H434.275V354.527C434.275 356.174 434.069 357.614 433.657 359.261C433.04 360.701 432.217 362.142 431.188 363.377C428.924 365.229 426.043 366.258 422.956 366.258C419.869 366.258 416.988 365.023 414.93 363.171C413.901 361.936 413.078 360.701 412.46 359.055C411.843 357.614 411.637 355.968 411.843 354.322V339.916H417.811V354.322C416.782 356.174 417.399 358.026 418.634 359.466ZM458.559 340.327H464.527V366.258H458.559L446.005 350V366.258H440.037V340.327H445.594L458.765 356.997L458.559 340.327ZM491.281 343.62C492.515 344.855 493.544 346.295 494.162 347.942C494.779 349.588 495.191 351.235 494.985 353.087C494.985 354.733 494.779 356.585 494.162 358.232C493.544 359.878 492.515 361.319 491.281 362.553C488.811 364.817 485.107 366.052 479.962 366.052H470.907V340.121H480.373C485.313 340.327 489.017 341.356 491.281 343.62ZM486.959 359.055C487.782 358.232 488.399 357.409 488.605 356.38C489.017 355.351 489.223 354.322 489.017 353.293C489.017 352.264 488.811 351.029 488.605 350.206C488.194 349.177 487.576 348.353 486.959 347.53C486.136 346.707 484.901 346.295 483.872 345.884C482.637 345.472 481.608 345.472 480.373 345.472H477.081V361.113H480.991C483.049 361.113 485.312 360.495 486.959 359.055ZM518.446 366.052L515.976 360.495H504.863L502.394 366.052H496.014L507.539 340.121H513.301L524.826 366.052H518.446ZM510.42 347.942L507.127 355.351H513.918L510.42 347.942ZM537.379 345.266V366.052H531.411V345.266H523.797V340.327H544.788V345.266H537.379ZM549.11 340.327H555.078V366.258H549.11V340.327ZM583.889 362.553C581.214 365.023 577.716 366.464 574.011 366.464C572.159 366.464 570.307 366.258 568.66 365.435C567.014 364.817 565.368 363.788 564.133 362.553C561.663 360.084 560.223 356.585 560.223 353.087C560.223 349.588 561.663 346.09 564.133 343.62C566.808 341.151 570.307 339.71 574.011 339.71C575.863 339.71 577.716 339.916 579.362 340.739C581.008 341.356 582.655 342.385 583.889 343.62C586.359 346.09 587.8 349.588 587.8 353.087C587.8 356.585 586.359 359.878 583.889 362.553ZM582.037 353.087C582.037 350.823 581.214 348.765 579.774 347.119C579.156 346.295 578.127 345.678 577.304 345.266C576.275 344.855 575.246 344.649 574.217 344.649C573.188 344.649 572.159 344.855 571.13 345.266C570.101 345.678 569.278 346.295 568.66 347.119C567.837 347.942 567.22 348.765 567.014 349.794C566.602 350.823 566.397 351.852 566.602 352.881C566.602 355.145 567.426 357.203 568.866 358.849C569.484 359.672 570.513 360.29 571.336 360.701C572.365 361.113 573.394 361.319 574.423 361.319C575.452 361.319 576.481 361.113 577.51 360.701C578.539 360.29 579.362 359.672 579.979 358.849C581.214 357.203 582.037 355.145 582.037 353.087ZM611.466 340.327H617.434V366.258H611.466L598.913 350V366.258H592.945V340.327H598.501L611.672 356.997L611.466 340.327ZM123.315 312.133C125.784 312.133 128.254 311.721 130.518 310.487C132.781 309.252 134.634 307.811 136.28 305.959L143.277 312.956C137.721 318.924 131.547 322.011 123.932 322.011C120.639 322.217 117.141 321.6 114.054 320.365C110.967 319.13 108.086 317.484 105.616 315.22C103.352 312.956 101.5 310.281 100.265 307.4C99.0307 304.519 98.4133 301.226 98.6191 298.139C98.6191 294.846 99.0307 291.759 100.471 288.672C101.706 285.585 103.558 282.91 106.028 280.646C108.497 278.382 111.584 276.53 114.877 275.295C118.17 274.061 121.668 273.649 125.167 273.855C128.666 274.061 132.164 274.884 135.251 276.324C138.338 277.765 141.219 280.029 143.483 282.498L136.897 289.907C135.457 288.055 133.605 286.408 131.341 285.379C129.077 284.35 126.813 283.733 124.344 283.733C120.434 283.733 116.729 284.968 114.054 287.437C112.613 288.672 111.379 290.319 110.761 292.171C109.938 294.023 109.732 295.875 109.732 297.933C109.732 299.785 109.938 301.843 110.555 303.695C111.173 305.548 112.408 307.194 113.642 308.634C116.318 310.898 119.61 312.133 123.315 312.133ZM151.715 321.188V274.266H162.21V311.927H182.79V321.188H151.715ZM229.712 314.808C224.773 319.336 218.393 321.806 211.808 321.806C205.222 321.806 198.637 319.336 193.903 314.808C191.434 312.545 189.582 309.869 188.347 306.988C187.112 304.107 186.495 300.814 186.495 297.727C186.495 294.434 186.906 291.348 188.347 288.466C189.582 285.585 191.434 282.91 193.903 280.646C198.842 276.118 205.222 273.649 211.808 273.649C218.393 273.649 224.979 276.118 229.712 280.646C232.182 282.91 234.034 285.585 235.269 288.466C236.503 291.348 237.121 294.64 237.121 297.727C237.121 301.02 236.709 304.107 235.269 306.988C234.034 309.869 232.182 312.545 229.712 314.808ZM226.008 297.521C226.008 293.611 224.567 289.701 221.892 286.82C220.657 285.379 219.011 284.35 217.364 283.527C215.512 282.704 213.66 282.292 211.808 282.292C209.955 282.292 207.898 282.704 206.251 283.527C204.399 284.35 202.958 285.379 201.724 286.82C199.048 289.701 197.402 293.611 197.608 297.521C197.608 301.432 199.048 305.342 201.724 308.223C202.958 309.663 204.605 310.692 206.251 311.516C208.103 312.339 209.955 312.75 211.808 312.75C213.66 312.75 215.718 312.339 217.364 311.516C219.216 310.692 220.657 309.663 221.892 308.223C223.332 306.782 224.361 305.136 225.185 303.284C225.802 301.432 226.008 299.579 226.008 297.521ZM258.935 309.252C259.758 310.281 260.993 311.104 262.228 311.721C263.463 312.339 264.903 312.545 266.344 312.545C267.785 312.545 269.019 312.339 270.254 311.721C271.489 311.104 272.518 310.281 273.341 309.252C275.193 306.577 276.016 303.49 276.016 300.403V274.472H286.718V300.608C286.718 307.4 284.866 312.545 280.956 316.249C279.103 318.101 276.634 319.542 274.164 320.365C271.695 321.394 269.019 321.806 266.138 321.6C263.463 321.6 260.787 321.188 258.112 320.365C255.437 319.542 253.173 317.895 251.321 316.249C247.411 312.545 245.558 307.4 245.558 300.608V274.472H256.26V300.403C255.848 303.695 256.877 306.782 258.935 309.252ZM334.463 280.646C338.991 284.762 341.46 290.524 341.46 297.727C341.46 304.93 339.196 310.898 334.875 315.014C330.553 319.336 323.556 321.394 314.501 321.394H297.831V274.472H314.912C323.144 274.472 329.935 276.53 334.463 280.646ZM326.643 308.429C329.318 305.959 330.553 302.461 330.553 297.933C330.553 293.405 329.318 289.701 326.643 287.437C323.967 284.968 320.057 283.733 314.501 283.733H308.532V312.339H315.324C319.44 312.339 323.35 311.104 326.643 308.429ZM402.376 274.472H413.078V321.394H402.376L379.327 291.965V321.394H368.625V274.472H378.709L402.376 304.519V274.472ZM459.176 321.188L454.649 311.104H434.481L429.953 321.188H418.428L439.214 274.266H449.504L470.289 321.188H459.176ZM444.77 288.466L438.802 302.049H450.739L444.77 288.466ZM493.133 283.527V321.394H482.431V283.527H468.849V274.472H506.921V283.527H493.133ZM514.33 274.472H525.031V321.394H514.33V274.472ZM554.666 304.107L567.014 274.266H578.745L559.4 321.188H550.344L531 274.266H542.73L554.666 304.107ZM618.875 274.472V283.733H595.003V293.405H616.611V302.461H595.003V312.339H619.698V321.806H584.301V274.884L618.875 274.472Z" fill="black"/>
<path d="M291.246 170.338H267.785V225.904H323.144V201.825H291.246V170.338ZM410.197 170.544V201.825H378.504V225.698H433.863V170.133H409.991L410.197 170.544ZM267.785 114.979H291.657L291.451 114.773V83.4919H323.144V59.6194H267.785V114.979ZM378.504 59.6194V83.4919H410.197V114.979H433.863V59.4136C433.863 59.6194 378.504 59.6194 378.504 59.6194Z" fill="#0086FF"/>
<path d="M375.417 114.979L343.724 83.2863H378.504V59.6196H322.938V83.4921L354.631 114.979H375.417ZM346.811 170.339H326.025L352.162 196.475L357.307 201.826H322.733V225.698H378.298V201.62L362.451 185.979L346.811 170.339ZM410.197 114.979V149.553L404.64 144.202L378.504 118.066V139.057L394.144 154.698L409.991 170.544H433.863V114.979H410.197ZM322.938 146.466L291.657 114.979H267.785V170.133H291.451V135.765L323.144 167.457V146.466H322.938Z" fill="#93EAFF"/>
</svg>
