<svg width="718" height="425" viewBox="0 0 718 425" fill="none" xmlns="http://www.w3.org/2000/svg">
<g clip-path="url(#clip0_436_416)">
<path fill-rule="evenodd" clip-rule="evenodd" d="M80.6648 217.025C78.2251 216.451 73.2024 214.873 67.8926 211.572C73.6329 208.271 78.7992 207.697 80.6648 207.554C80.9518 205.401 81.3823 203.392 81.9563 201.383C80.0907 199.948 76.503 197.078 73.2024 192.773C78.5121 192.342 83.1044 193.06 85.4005 193.49C86.5486 191.481 87.9836 189.615 89.7057 187.75C88.7012 186.028 86.8356 182.583 85.6875 177.848C89.9927 179.713 93.1499 182.009 94.7285 183.301C96.8811 181.722 99.1772 180.431 101.473 179.283C101.473 177.274 101.473 173.686 102.334 169.381C105.348 172.538 107.214 175.552 107.931 177.13C110.801 176.556 113.815 176.269 116.972 176.413C117.546 174.834 118.694 172.107 120.703 168.807C122.138 172.538 122.712 175.552 122.999 177.13C126.157 177.848 129.17 178.852 132.04 180.287C136.633 176.413 140.938 174.691 145.961 173.399C145.961 167.085 145.1 160.914 141.799 154.743C138.498 153.164 134.911 152.016 131.323 151.155C127.592 153.164 124.578 155.461 121.995 157.9C120.129 155.03 117.69 152.016 114.676 149.29C113.241 149.29 110.514 149.146 105.205 150.007C102.621 153.308 100.756 156.609 99.3207 159.909C96.1636 157.9 92.2889 156.178 87.8401 155.03C85.257 156.178 82.8174 157.47 80.3777 158.905C79.5167 163.066 79.2297 166.941 79.3732 170.529C75.642 169.811 71.3368 169.524 66.7445 170.098C65.1659 171.82 63.5874 173.686 62.1523 175.695C62.4393 180.861 63.7309 185.31 65.5965 189.185C61.2912 190.189 56.8425 192.055 52.6808 194.925C52.1068 196.791 51.6762 198.8 51.2457 200.665C53.8288 205.114 57.1295 208.702 60.4302 211.428C57.1295 214.155 53.8288 217.886 50.8152 222.909C51.1022 225.062 51.5327 227.071 52.1068 229.08H52.2503C55.6944 221.905 59.8562 217.169 63.8744 214.012C72.0543 219.608 80.0907 221.187 81.2388 221.331C81.0953 220.039 80.8083 218.747 80.6648 217.025ZM135.198 156.035C138.068 160.34 139.072 165.65 139.359 168.663C136.776 169.668 132.758 171.533 128.883 174.691C128.309 171.964 127.305 167.946 125.152 163.353C127.735 160.77 131.036 158.187 135.198 156.035ZM110.084 153.164C113.528 156.035 116.111 159.479 117.977 162.636C114.963 166.511 113.097 170.242 112.093 172.825C110.658 170.242 108.075 166.798 104.2 163.353C105.492 160.053 107.357 156.465 110.084 153.164ZM85.544 160.196C90.5668 161.201 94.4415 163.066 97.7422 165.363C96.3071 170.385 96.0201 174.834 96.0201 177.704C93.4369 175.839 89.7057 173.543 84.8265 171.964C84.396 168.52 84.5395 164.502 85.544 160.196ZM80.2342 175.982C81.2388 181.579 83.1044 185.884 84.5395 188.611C81.2388 188.037 76.216 187.606 70.6192 188.324C68.7536 184.736 67.3186 180.287 67.0315 175.265C71.9108 174.691 76.3595 175.121 80.2342 175.982ZM55.1204 198.943C59.2821 195.93 63.8744 194.351 68.0361 193.49C71.0497 198.226 74.7809 201.67 77.3641 203.823C74.0634 204.397 69.1842 205.688 64.0179 208.989C60.8607 206.549 57.7035 203.249 55.1204 198.943Z" fill="white" stroke="#2DB24A" stroke-width="0.31068"/>
<path fill-rule="evenodd" clip-rule="evenodd" d="M108.075 177.13C107.214 175.552 105.492 172.395 102.478 169.381C101.473 173.686 101.473 177.417 101.617 179.283C101.473 179.283 104.344 177.848 108.075 177.13Z" fill="#43B02A" stroke="#43B02A" stroke-width="0.31068"/>
<path fill-rule="evenodd" clip-rule="evenodd" d="M94.7285 183.158C93.15 181.866 90.1363 179.57 85.6876 177.705C86.8356 182.44 88.7012 185.885 89.7058 187.607C89.7058 187.894 91.7149 185.454 94.7285 183.158Z" fill="#43B02A" stroke="#43B02A" stroke-width="0.31068"/>
<path fill-rule="evenodd" clip-rule="evenodd" d="M112.093 172.826C113.098 170.242 114.963 166.511 117.977 162.637C116.111 159.336 113.528 156.035 110.084 153.165C107.357 156.609 105.492 160.053 104.2 163.498C108.075 166.798 110.514 170.242 112.093 172.826Z" fill="#43B02A" stroke="#43B02A" stroke-width="0.31068"/>
<path fill-rule="evenodd" clip-rule="evenodd" d="M85.5441 193.49C83.248 193.06 78.6558 192.342 73.346 192.773C76.5032 197.222 80.0909 200.092 82.1 201.383C81.9565 201.527 83.1045 197.652 85.5441 193.49Z" fill="#43B02A" stroke="#43B02A" stroke-width="0.31068"/>
<path fill-rule="evenodd" clip-rule="evenodd" d="M64.1614 208.989C69.3277 205.688 74.207 204.253 77.5076 203.823C74.9245 201.67 71.1933 198.226 68.1797 193.49C63.8744 194.351 59.4257 196.073 55.264 198.944C57.7036 203.249 60.8608 206.549 64.1614 208.989Z" fill="#43B02A" stroke="#43B02A" stroke-width="0.31068"/>
<path fill-rule="evenodd" clip-rule="evenodd" d="M80.6647 207.698C78.6556 207.841 73.6329 208.272 67.8926 211.716C73.2024 215.017 78.2251 216.595 80.6647 217.169C80.2342 214.012 80.2342 210.711 80.6647 207.698Z" fill="#43B02A" stroke="#43B02A" stroke-width="0.31068"/>
<path fill-rule="evenodd" clip-rule="evenodd" d="M97.7421 165.363C94.585 163.21 90.5668 161.345 85.544 160.197C84.5394 164.502 84.3959 168.52 84.683 171.964C89.5622 173.543 93.2934 175.839 95.8765 177.705C95.8765 174.835 96.3071 170.386 97.7421 165.363Z" fill="#43B02A" stroke="#43B02A" stroke-width="0.31068"/>
<path fill-rule="evenodd" clip-rule="evenodd" d="M141.943 154.887C141.943 154.887 145.961 167.229 146.104 173.543C141.225 174.691 136.92 176.413 132.184 180.432C134.767 181.723 137.063 183.302 139.216 185.167C141.512 187.176 143.665 188.037 146.678 186.602C148.4 185.454 158.015 175.552 159.02 174.261C161.316 171.821 160.742 167.803 158.302 165.937C152.275 160.34 141.943 154.887 141.943 154.887Z" fill="#43B02A" stroke="#43B02A" stroke-width="0.31068"/>
<path fill-rule="evenodd" clip-rule="evenodd" d="M52.8243 194.926C57.1295 192.056 61.4347 190.19 65.74 189.186C63.8744 185.311 62.5828 180.862 62.2958 175.696C58.1341 181.58 54.8334 188.181 52.8243 194.926Z" fill="#43B02A" stroke="#43B02A" stroke-width="0.31068"/>
<path fill-rule="evenodd" clip-rule="evenodd" d="M84.3959 188.611C82.9608 185.885 81.0952 181.436 80.0907 175.983C76.216 175.122 71.9108 174.691 66.888 175.409C67.175 180.431 68.6101 184.737 70.4757 188.468C76.216 187.607 81.0952 188.037 84.3959 188.611Z" fill="#43B02A" stroke="#43B02A" stroke-width="0.31068"/>
<path fill-rule="evenodd" clip-rule="evenodd" d="M66.8881 170.242C71.4803 169.668 75.7855 169.955 79.5167 170.672C79.3732 167.085 79.6603 163.21 80.5213 159.048C82.9609 157.613 85.4006 156.322 87.9837 155.174C92.5759 156.322 96.3071 158.044 99.4643 160.053C100.899 156.752 102.765 153.452 105.348 150.151C92.2889 152.16 79.9473 157.9 70.4758 166.798C67.4621 169.524 64.7355 172.682 62.2958 175.982C63.7309 173.83 65.3095 171.964 66.8881 170.242Z" fill="#43B02A" stroke="#43B02A" stroke-width="0.31068"/>
<path fill-rule="evenodd" clip-rule="evenodd" d="M52.1068 197.795C52.3938 196.79 52.5373 195.929 52.8243 194.925C52.5373 195.929 52.2503 196.934 52.1068 197.795Z" fill="#43B02A" stroke="#43B02A" stroke-width="0.31068"/>
<path fill-rule="evenodd" clip-rule="evenodd" d="M60.7172 211.573C57.4165 208.846 54.1159 205.258 51.5327 200.81C50.0976 208.128 50.0976 215.878 51.2457 223.053C53.9723 218.03 57.273 214.443 60.7172 211.573Z" fill="#43B02A" stroke="#43B02A" stroke-width="0.31068"/>
<path fill-rule="evenodd" clip-rule="evenodd" d="M157.154 248.597C148.113 239.987 146.248 234.39 138.642 240.274C117.833 256.634 87.8401 246.875 81.5258 221.474C80.3777 221.331 72.3413 219.752 64.1614 214.155C60.1431 217.312 55.9814 222.192 52.5372 229.224H52.3937C65.4529 278.59 129.027 290.071 158.446 259.217C163.325 254.05 158.876 250.463 157.154 248.597Z" fill="#43B02A" stroke="#43B02A" stroke-width="0.31068"/>
<path fill-rule="evenodd" clip-rule="evenodd" d="M135.198 156.036C131.036 158.045 127.735 160.628 125.152 163.355C127.305 167.947 128.309 172.108 128.883 174.692C132.902 171.534 136.92 169.669 139.359 168.664C139.072 165.794 138.068 160.484 135.198 156.036Z" fill="#43B02A" stroke="#43B02A" stroke-width="0.31068"/>
<path fill-rule="evenodd" clip-rule="evenodd" d="M120.847 168.807C118.838 171.964 117.69 174.834 117.116 176.413C119.125 176.557 121.134 176.844 123.143 177.274C123 175.552 122.282 172.538 120.847 168.807Z" fill="#43B02A" stroke="#43B02A" stroke-width="0.31068"/>
<path fill-rule="evenodd" clip-rule="evenodd" d="M136.776 152.878C136.059 152.591 135.198 152.304 134.48 152.161C135.341 152.304 136.059 152.591 136.776 152.878Z" fill="#43B02A" stroke="#43B02A" stroke-width="0.31068"/>
<path fill-rule="evenodd" clip-rule="evenodd" d="M122.139 157.9C124.722 155.46 127.735 153.164 131.467 151.155C126.157 149.864 120.703 149.29 114.82 149.29C117.833 152.016 120.273 155.03 122.139 157.9Z" fill="#43B02A" stroke="#43B02A" stroke-width="0.31068"/>
<mask id="mask0_436_416" style="mask-type:luminance" maskUnits="userSpaceOnUse" x="61" y="225" width="92" height="44">
<path d="M75.4985 228.075C80.0907 240.274 96.1636 256.49 115.968 256.49C126.874 256.49 136.776 252.615 144.526 246.014C145.1 245.727 150.409 251.754 152.562 254.05C152.993 254.624 152.993 254.768 152.993 254.768C126.874 277.585 82.5304 274.285 61.5782 234.82C63.3003 229.08 65.74 225.636 65.74 225.636C71.3368 227.932 75.4985 228.075 75.4985 228.075Z" fill="white"/>
</mask>
<g mask="url(#mask0_436_416)">
<mask id="mask1_436_416" style="mask-type:luminance" maskUnits="userSpaceOnUse" x="49" y="147" width="114" height="130">
<path d="M162.034 147.424H49.5237V276.581H162.034V147.424Z" fill="white"/>
</mask>
<g mask="url(#mask1_436_416)">
<path d="M162.034 216.452H52.2503V278.16H162.034V216.452Z" fill="white" stroke="#2DB24A" stroke-width="0.31068"/>
</g>
<path d="M162.034 147.424H49.5237V276.581H162.034V147.424Z" fill="white" stroke="#2DB24A" stroke-width="0.31068"/>
</g>
<path fill-rule="evenodd" clip-rule="evenodd" d="M75.4985 228.075C80.0907 240.274 96.1636 256.49 115.968 256.49C126.874 256.49 136.776 252.615 144.526 246.014C145.1 245.727 150.409 251.754 152.562 254.05C152.993 254.624 152.993 254.768 152.993 254.768C126.874 277.585 82.5304 274.285 61.5782 234.82C63.3003 229.08 65.74 225.636 65.74 225.636C71.3368 227.932 75.4985 228.075 75.4985 228.075Z" fill="white" stroke="#2DB24A" stroke-width="0.31068"/>
<path fill-rule="evenodd" clip-rule="evenodd" d="M231.778 149.147C267.081 149.147 295.209 177.561 295.209 212.721C295.209 247.88 266.938 276.008 231.778 276.008C196.619 276.008 168.491 248.024 168.491 212.721C168.491 177.418 196.475 149.147 231.778 149.147ZM231.778 253.19C254.022 253.19 272.391 234.964 272.391 212.864C272.391 190.764 254.022 172.108 231.778 172.108C209.535 172.108 191.453 190.621 191.453 212.864C191.453 235.108 209.535 253.19 231.778 253.19Z" fill="#43B02A"/>
<path fill-rule="evenodd" clip-rule="evenodd" d="M314.295 152.304C314.295 150.582 315.874 149.147 317.596 149.147H322.045L395.377 227.072H395.52V154.313C395.52 152.591 396.956 151.013 398.821 151.013H415.037C416.76 151.013 418.338 152.591 418.338 154.313V272.994C418.338 274.716 416.76 276.151 415.037 276.151H410.876L337.113 195.213H336.969V270.985C336.969 272.707 335.534 274.286 333.669 274.286H317.596C315.874 274.286 314.295 272.707 314.295 270.985V152.304Z" fill="#43B02A"/>
<path fill-rule="evenodd" clip-rule="evenodd" d="M445.748 154.312C445.748 152.59 447.183 151.012 448.905 151.012H490.666C524.677 151.012 552.518 178.709 552.518 212.576C552.518 246.731 524.677 274.428 490.666 274.428H448.905C447.183 274.428 445.748 272.85 445.748 271.128V154.312ZM488.657 252.759C511.618 252.759 528.265 235.538 528.265 212.433C528.265 189.472 511.474 172.251 488.657 172.251H468.566V252.759H488.657Z" fill="#43B02A"/>
<path fill-rule="evenodd" clip-rule="evenodd" d="M550.365 269.693L605.185 151.013C605.759 150.008 606.62 149.003 608.198 149.003H609.921C611.643 149.003 612.36 149.864 612.934 151.013L667.18 269.693C668.185 271.989 666.893 274.286 664.166 274.286H648.811C646.228 274.286 644.936 273.281 643.645 270.698L635.034 251.611H582.367L573.757 270.698C573.039 272.42 571.461 274.286 568.59 274.286H553.235C550.795 274.286 549.36 271.989 550.365 269.693ZM626.567 232.238L608.916 193.491H608.342L591.121 232.238H626.567Z" fill="#43B02A"/>
</g>
<defs>
<clipPath id="clip0_436_416">
<rect width="617.631" height="128" fill="white" transform="translate(50 149)"/>
</clipPath>
</defs>
</svg>
