<svg width="718" height="425" viewBox="0 0 718 425" fill="none" xmlns="http://www.w3.org/2000/svg">
<path fill-rule="evenodd" clip-rule="evenodd" d="M101.08 86.6785C105.856 101.675 211.984 164.807 266.946 164.118C296.892 163.742 311.885 183.68 311.786 217.312L261.752 256.073L261.888 285.289L486.522 285.261L486.462 258.505L436.599 217.354C437.978 139.57 488.896 105.698 556.427 100.98L556.486 67.0521L266.81 67L266.887 74.3202H239.444L239.347 86.6703L101.08 86.6785Z" fill="black" stroke="white" stroke-width="7.8724"/>
<path fill-rule="evenodd" clip-rule="evenodd" d="M262.485 255.806L329.248 256.312L329.367 285.276" fill="black"/>
<path d="M262.485 255.806L329.248 256.312L329.367 285.276" stroke="white" stroke-width="7.8724"/>
<path fill-rule="evenodd" clip-rule="evenodd" d="M486.44 258.479L419.216 258.538L419.173 285.26" fill="black"/>
<path d="M486.44 258.479L419.216 258.538L419.173 285.26" stroke="white" stroke-width="7.8724"/>
<path fill-rule="evenodd" clip-rule="evenodd" d="M328.052 258.355C357.182 227.233 392.049 232.905 419.095 258.671Z" fill="black"/>
<path d="M328.052 258.355C357.182 227.233 392.049 232.905 419.095 258.671" stroke="white" stroke-width="7.8724"/>
<path fill-rule="evenodd" clip-rule="evenodd" d="M239.518 76.9004V130.169Z" fill="black"/>
<path d="M239.518 76.9004V130.169" stroke="white" stroke-width="7.8724"/>
<path fill-rule="evenodd" clip-rule="evenodd" d="M266.787 76.9004L266.941 163.959Z" fill="black"/>
<path d="M266.787 76.9004L266.941 163.959" stroke="white" stroke-width="7.8724"/>
<path fill-rule="evenodd" clip-rule="evenodd" d="M439.166 197.909L406.706 197.968Z" fill="black"/>
<path d="M439.166 197.909L406.706 197.968" stroke="white" stroke-width="7.8724"/>
<path fill-rule="evenodd" clip-rule="evenodd" d="M436.62 217.489L416.49 217.431Z" fill="black"/>
<path d="M436.62 217.489L416.49 217.431" stroke="white" stroke-width="7.8724"/>
<path d="M120.994 325.779L127.27 318.139C122.563 313.296 115.333 310.227 108.443 310.227C93.9822 310.227 83 320.595 83 334.374C83 348.221 93.7775 358.794 108.034 358.794C114.991 358.794 122.29 355.451 127.338 350.267L120.994 343.378C117.584 346.788 112.877 348.971 108.58 348.971C100.394 348.971 94.0504 342.559 94.0504 334.237C94.0504 325.915 100.394 319.572 108.58 319.572C113.013 319.572 117.72 322.027 120.994 325.779Z" fill="black" stroke="black" stroke-width="2.5186"/>
<path d="M158.284 310.227C143.686 310.227 132.636 320.527 132.636 334.442C132.636 348.289 143.686 358.794 158.284 358.794C172.881 358.794 183.932 348.221 183.932 334.442C183.932 320.595 172.881 310.227 158.284 310.227ZM158.42 319.64C166.401 319.64 172.881 326.052 172.881 334.442C172.881 342.832 166.401 349.38 158.42 349.38C150.439 349.38 143.686 342.832 143.686 334.442C143.686 326.052 150.371 319.64 158.42 319.64Z" fill="black" stroke="black" stroke-width="2.5186"/>
<path d="M194.209 310.568V358.316H204.509V327.689L227.633 358.316H237.456V310.568H227.224V341.263L204.032 310.568H194.209Z" fill="black" stroke="black" stroke-width="2.5186"/>
<path d="M271.298 310.568H251.039V358.316H270.889C285.964 358.316 296.4 348.494 296.4 334.442C296.4 320.322 286.1 310.568 271.298 310.568ZM271.571 349.244H261.817V319.64H271.094C279.279 319.64 285.418 325.711 285.418 334.51C285.418 343.241 279.552 349.244 271.571 349.244Z" fill="black" stroke="black" stroke-width="2.5186"/>
<path d="M340.471 358.316H351.999L331.603 310.568H320.485L299.748 358.316H310.867L314.618 349.039H336.719L340.471 358.316ZM318.165 340.377L325.737 321.823L333.24 340.377H318.165Z" fill="black" stroke="black" stroke-width="2.5186"/>
<path d="M358.806 333.964V340.922H376.405V333.964H358.806Z" fill="black" stroke="black" stroke-width="2.5186"/>
<path d="M388.623 310.568V358.316H399.401V340.24H420.956V331.236H399.401V319.504H422.866L422.934 310.568H388.623Z" fill="black" stroke="black" stroke-width="2.5186"/>
<path d="M454.501 310.227C439.904 310.227 428.853 320.527 428.853 334.442C428.853 348.289 439.904 358.794 454.501 358.794C469.098 358.794 480.149 348.221 480.149 334.442C480.149 320.595 469.098 310.227 454.501 310.227ZM454.637 319.64C462.618 319.64 469.098 326.052 469.098 334.442C469.098 342.832 462.618 349.38 454.637 349.38C446.657 349.38 439.904 342.832 439.904 334.442C439.904 326.052 446.588 319.64 454.637 319.64Z" fill="black" stroke="black" stroke-width="2.5186"/>
<path d="M531.968 358.316L521.804 342.559C527.602 339.831 530.74 334.51 530.74 327.143C530.74 316.571 523.646 310.568 511.163 310.568H490.426V358.316H501.204V344.674H511.163H512.186L519.758 358.316H531.968ZM501.204 319.504H511.163C517.097 319.504 520.508 322.164 520.508 327.484C520.508 332.941 517.097 335.67 511.163 335.67H501.204V319.504Z" fill="black" stroke="black" stroke-width="2.5186"/>
<path d="M575.053 346.788C571.983 348.357 568.573 349.38 565.708 349.38C557.25 349.38 550.633 342.9 550.633 334.442C550.633 326.052 557.181 319.572 565.64 319.572C570.278 319.572 575.189 321.618 578.736 324.892L584.807 317.184C579.964 312.955 572.734 310.227 565.64 310.227C550.77 310.227 539.583 320.663 539.583 334.442C539.583 348.289 550.565 358.794 565.026 358.794C571.642 358.794 579.35 356.27 584.398 352.586V334.237H575.053V346.788Z" fill="black" stroke="black" stroke-width="2.5186"/>
<path d="M596.893 310.568V358.316H634V349.381H607.67V338.808H630.658V329.872H607.67V319.504H633.25V310.568H596.893Z" fill="black" stroke="black" stroke-width="2.5186"/>
</svg>
