<svg width="718" height="425" viewBox="0 0 718 425" fill="none" xmlns="http://www.w3.org/2000/svg">
<path d="M175.813 91.9998C125.561 91.9998 116.137 163.572 144.399 163.572C172.671 163.583 226.064 91.9998 175.813 91.9998Z" fill="black"/>
<path d="M92.3663 154.71C107.415 155.628 123.931 97.2694 95.648 100.94C67.3647 104.61 77.3071 153.793 92.3663 154.71Z" fill="black"/>
<path d="M23.385 190.981C34.0938 186.274 24.7668 140.179 6.55534 152.744C-11.6345 165.31 12.6762 195.687 23.385 190.981Z" fill="black"/>
<path d="M53.5468 166.854C66.2959 164.253 66.9868 111.983 44.263 121.364C21.5283 130.734 40.8193 169.456 53.5468 166.854Z" fill="black"/>
<path d="M120.099 283.841C122.355 301.114 107.426 309.642 92.8089 298.501C46.2601 263.061 169.876 245.389 161.725 196.973C154.957 156.782 31.6543 169.154 17.6098 232.035C8.11004 274.568 56.7315 333.575 107.469 333.575C132.427 333.575 161.218 311.034 166.605 282.481C170.728 260.707 118.21 269.43 120.099 283.841Z" fill="black"/>
<path d="M432.522 176.591C419.87 176.937 409.873 181.482 402.522 190.204C394.911 199.283 391.079 211.827 391.079 227.825C391.079 243.78 394.911 256.281 402.522 265.36C410.165 274.439 420.669 278.973 434.065 278.973C447.495 278.973 458.02 274.439 465.63 265.36C473.241 256.281 477.041 243.77 477.041 227.825C477.041 211.827 473.241 199.283 465.63 190.204C458.02 181.125 447.495 176.591 434.065 176.591C433.536 176.591 433.029 176.581 432.522 176.591ZM433.461 195.029C433.666 195.019 433.86 195.029 434.065 195.029C440.672 195.029 445.789 197.89 449.405 203.612C453.022 209.344 454.846 217.429 454.846 227.825C454.846 238.178 453.022 246.209 449.405 251.931C445.789 257.663 440.672 260.545 434.065 260.545C427.502 260.545 422.428 257.663 418.801 251.931C415.185 246.199 413.36 238.178 413.36 227.825C413.36 217.429 415.185 209.344 418.801 203.612C422.309 198.063 427.189 195.202 433.461 195.029Z" fill="black"/>
<path d="M289.562 269.721C278.41 279.081 261.829 278.973 254.92 278.973C241.005 278.973 229.983 274.385 221.843 265.22C213.715 256.011 209.645 243.543 209.645 227.804C209.645 211.891 213.79 199.38 222.07 190.258C230.35 181.136 241.696 176.58 256.097 176.58C261.656 176.58 266.967 177.196 272.041 178.426C277.147 179.657 281.962 181.492 286.474 183.91L280.677 201.053C278.14 199.661 275.236 198.29 272.538 197.329C267.95 195.785 263.34 195.019 258.72 195.019C250.138 195.019 243.52 197.858 238.857 203.547C234.226 209.182 231.915 217.267 231.915 227.804C231.915 238.242 234.15 246.306 238.63 251.995C243.11 257.685 249.835 260.524 257.716 260.524C265.715 260.524 270.681 258.505 273.326 256.378V239.3H255.989V222.244H289.562" fill="black"/>
<path d="M304.286 178.372H317.877L360.831 237.68V178.372H379.161V277.05H365.57L322.616 217.742V277.05H304.286V178.372Z" fill="black"/>
<path d="M491.183 178.373H518.603L537.634 239.981L556.774 178.373H579.951L590.423 277.051H570.052L563.769 215.346L544.522 277.354H530.866L511.618 213.252L505.335 277.051H484.911L495.382 178.373" fill="black"/>
<path d="M605.126 178.373H663.268V197.61H626.673V218.078H654.805V235.22H626.673V257.826H664.499V277.062H605.126V178.373Z" fill="black"/>
<path d="M682.333 158.952H698.191V161.089H691.541V177.692H688.993V161.089H682.343L682.333 158.952Z" fill="black"/>
<path d="M700.857 158.952H704.636L709.418 171.701L714.222 158.952H718V177.692H715.528V161.241L710.692 174.098H708.144L703.308 161.241V177.692H700.846V158.952" fill="black"/>
</svg>
