<svg width="718" height="425" viewBox="0 0 718 425" fill="none" xmlns="http://www.w3.org/2000/svg">
<path d="M286.916 110.084V113.831H302.992V156.186H307.384V113.831H323.46V110.084H286.916Z" fill="#003764"/>
<path d="M359.556 110.084V130.101H332.181V110.084H327.795V156.186H332.181V133.847H359.556V156.186H363.942V110.084H359.556Z" fill="#003764"/>
<path d="M373.251 110.084V156.186H405.399V152.439H377.637V134.234H403.335V130.488H377.637V113.831H405.076V110.084H373.251Z" fill="#003764"/>
<path d="M286.916 270.583V316.679H291.307V294.727H313.388V290.981H291.307V274.329H316.161V270.583H286.916Z" fill="#003764"/>
<path d="M340.895 313.903C353.032 313.903 358.197 303.701 358.197 293.628C358.197 283.561 353.032 273.359 340.895 273.359C328.694 273.359 323.528 283.561 323.528 293.628C323.528 303.701 328.694 313.903 340.895 313.903ZM340.895 269.613C355.359 269.613 362.589 280.976 362.589 293.628C362.589 306.286 355.359 317.649 340.895 317.649C326.366 317.649 319.137 306.286 319.137 293.628C319.137 280.976 326.366 269.613 340.895 269.613Z" fill="#003764"/>
<path d="M368.988 270.583H373.38V299.118C373.38 309.772 378.346 313.905 386.871 313.905C395.46 313.905 400.427 309.772 400.427 299.118V270.583H404.818V300.086C404.818 309.578 399.717 317.651 386.871 317.651C374.154 317.651 368.988 309.578 368.988 300.086V270.583Z" fill="#003764"/>
<path d="M413.607 270.583H418.514L445.373 309.578H445.502V270.583H449.888V316.679H444.986L418.127 277.683H417.998V316.679H413.607V270.583Z" fill="#003764"/>
<path d="M463.52 312.934H472.884C486.117 312.934 491.863 307.446 491.863 293.627C491.863 279.813 486.117 274.325 472.884 274.325H463.52V312.934ZM459.129 270.579H475.077C489.025 270.901 496.254 278.394 496.254 293.627C496.254 308.865 489.025 316.352 475.077 316.675H459.129V270.579Z" fill="#003764"/>
<path d="M509.884 298.602H528.025L519.113 274.974L509.884 298.602ZM516.855 270.583H521.763L539.839 316.679H535.13L529.513 302.349H508.529L502.977 316.679H498.263L516.855 270.583Z" fill="#003764"/>
<path d="M534.682 270.579V274.325H550.758V316.68H555.15V274.325H571.227V270.579H534.682Z" fill="#003764"/>
<path d="M575.877 270.583H580.268V316.679H575.877V270.583Z" fill="#003764"/>
<path d="M609.192 313.903C621.328 313.903 626.494 303.701 626.494 293.628C626.494 283.561 621.328 273.359 609.192 273.359C596.99 273.359 591.825 283.561 591.825 293.628C591.825 303.701 596.99 313.903 609.192 313.903ZM609.192 269.613C623.656 269.613 630.885 280.976 630.885 293.628C630.885 306.286 623.656 317.649 609.192 317.649C594.663 317.649 587.434 306.286 587.434 293.628C587.434 280.976 594.663 269.613 609.192 269.613Z" fill="#003764"/>
<path d="M637.673 270.583H642.58L669.439 309.578H669.568V270.583H673.954V316.679H669.052L642.193 277.683H642.064V316.679H637.673V270.583Z" fill="#003764"/>
<path d="M286.917 169.912H312.33V231.251H348.832V252.391H286.917V169.912Z" fill="#003764"/>
<path d="M365.461 169.914H390.874V252.393H365.461V169.914Z" fill="#003764"/>
<path d="M409.816 169.912H435.805L459.831 214.04H460.067V169.912H484.094V252.391H459.374L434.074 207.338H433.843V252.391H409.816V169.912Z" fill="#003764"/>
<path d="M577.995 220.506C577.995 243.495 565.869 254.353 540.451 254.353C515.043 254.353 502.794 243.495 502.794 220.506V169.912H528.212V214.847C528.212 223.162 528.094 233.788 540.569 233.788C552.582 233.788 552.582 223.162 552.582 214.847V169.912H577.995V220.506Z" fill="#003764"/>
<path d="M618.419 208.493L591.27 169.912H621.074L633.55 192.32L645.794 169.912H673.981L647.53 208.724L676.985 252.391H646.369L632.281 227.784L617.726 252.391H588.615L618.419 208.493Z" fill="#003764"/>
<path d="M85.132 275.209V192.289H43.5886V316.677H168.031V275.209H85.132Z" fill="#0096D6"/>
<path d="M250.928 109.299H43.6198V171.51H85.0717V150.95H209.476V275.209H188.772V316.678H250.928V109.299Z" fill="#003764"/>
</svg>
