<svg width="718" height="425" viewBox="0 0 718 425" fill="none" xmlns="http://www.w3.org/2000/svg">
<g filter="url(#filter0_d_435_328)">
<path d="M530.897 212.603C530.627 212.539 530.382 212.398 530.192 212.197C529.646 210.777 528.811 209.485 527.74 208.404C526.67 207.323 525.386 206.475 523.971 205.916L523.901 205.86C523.844 202.988 521.597 201.26 520.317 199.03C513.645 187.4 507.974 175.591 510.912 161.478C511.817 157.127 514.627 153.642 515.492 149.363L515.597 149.275C516.61 149.046 517.532 148.524 518.249 147.774C518.967 147.024 519.447 146.08 519.632 145.058C520.047 144.702 520.463 144.345 520.879 143.988C523.048 144.138 524.459 142.609 525.959 141.493C530.946 137.946 536.157 134.724 541.559 131.848C554.601 124.527 567.819 122.441 582.25 128.303C587.751 130.538 592.724 133.849 598.426 135.537C598.826 135.906 599.227 136.274 599.627 136.643C599.603 136.988 599.641 137.335 599.739 137.667C605.957 149.504 608.202 161.326 599.723 173.16C599.55 173.402 599.645 173.836 599.615 174.18C599.232 174.563 598.849 174.946 598.465 175.328C594.687 176.75 591.017 177.744 587.064 175.485C582.048 172.997 576.747 171.13 571.279 169.926C568.121 169.032 564.509 167.733 561.526 170.806L561.31 171.018C557.992 174.303 561.24 176.386 562.988 178.25C571.157 186.96 582.612 190.465 592.512 196.451C593.561 197.491 594.609 198.531 595.657 199.571C598.847 206.291 602.691 212.668 605.575 219.562C610.385 231.057 612.333 242.278 607.055 254.415C604.593 260.075 601.846 265.703 599.904 271.615L599.914 271.601C599.276 271.829 598.676 272.152 598.133 272.557C587.542 283.345 574.218 286.991 559.619 287.447C544.641 288.251 529.625 286.894 515.034 283.42L514.959 283.341C515.472 279.576 512.956 276.805 511.796 273.583C509.6 267.481 504.829 261.961 507.273 254.762C510.078 246.863 513.496 239.195 517.496 231.829C519.24 228.504 520.638 227.691 524.309 229.787C533.831 235.223 542.746 241.901 553.815 244.369C560.877 245.943 566.277 244.333 569.803 238.676C572.723 233.99 571.388 230.045 566.057 228.558C562.712 227.572 559.466 226.281 556.359 224.701C547.916 220.577 539.39 216.624 530.897 212.603ZM554.412 269.158C557.422 269.158 560.953 269.365 564.452 269.121C577.109 268.24 587.423 263.227 593.993 251.873C597.674 245.058 599.338 237.335 598.792 229.609C598.38 214.041 592.122 202.369 577.824 195.359C571.059 192.042 564.432 188.437 557.807 184.843C551.956 181.881 547.331 176.96 544.737 170.937C540.894 161.778 545.909 152.306 555.621 151.248C564.553 150.274 573.65 150.065 582.064 153.827C585.811 155.502 586.866 154.177 588.322 151.179C593.555 140.401 593.605 140.35 582.427 136.248C581.769 136.007 581.163 135.618 580.498 135.403C572.001 132.647 563.512 129.174 554.454 132.883C545.18 136.589 536.348 141.319 528.124 146.986C524.252 149.667 521.092 153.253 518.919 157.431C516.747 161.61 515.626 166.256 515.655 170.965C515.684 175.675 516.861 180.307 519.085 184.458C521.309 188.61 524.512 192.157 528.416 194.79C535.378 199.629 543.41 202.289 550.925 205.998C559.229 210.097 568.155 213.128 574.041 220.978C580.277 229.294 580.077 240.622 573.139 245.607C570.325 247.726 567.067 249.179 563.611 249.857C560.155 250.536 556.59 250.423 553.184 249.526C543.535 246.901 534.396 242.676 526.146 237.027C523.22 235.158 521.66 235.093 520.352 238.79C518.617 244.109 516.417 249.266 513.777 254.2C510.89 259.277 513.379 261.198 517.472 262.721C529.153 267.591 541.773 269.79 554.412 269.158ZM550.582 283.124C556.497 282.641 561.221 282.35 565.917 281.817C567.454 281.643 569.374 280.975 569.708 279.358C570.141 277.256 567.762 277.294 566.54 276.527C564.599 275.674 562.459 275.377 560.359 275.667C551.789 275.453 543.269 275.934 534.702 273.882C528.915 272.496 523.351 270.403 517.536 269.223C516.522 269.018 515.179 267.668 514.496 269.666C513.795 271.721 519.109 279.597 521.521 279.88C531.596 281.062 541.683 282.139 550.582 283.124ZM578.596 160.593C577.331 160.889 575.818 161.23 574.311 161.596C573.038 161.906 571.205 161.681 571.491 163.795C571.722 165.507 573.191 165.858 574.648 165.89C576.54 166.065 578.403 166.477 580.193 167.116C582.677 167.8 586.159 171.385 587.691 167.545C589.166 163.85 584.528 163.006 581.888 161.647C580.82 161.21 579.72 160.858 578.596 160.593Z" fill="#4035A7"/>
<path d="M400.063 282.727C399.333 283.494 398.603 284.261 397.873 285.028C392.163 287.638 386.491 290.335 380.729 292.826C379.074 293.669 377.238 294.095 375.381 294.068C373.523 294.042 371.701 293.563 370.07 292.673C363.185 288.799 356.757 284.163 350.907 278.853C349.608 277.663 348.623 276.17 348.04 274.507C347.458 272.844 347.296 271.063 347.57 269.322C348.266 262.548 349.698 255.87 351.843 249.407C356.337 236.321 359.838 222.956 363.11 209.532C367.079 193.244 371.055 176.954 374.662 160.584C376.432 152.554 380.172 145.201 381.923 137.204L382.011 137.108C390.569 132.647 399.882 131.197 409.277 129.539C420.837 127.498 432.225 122.968 443.275 130.943C443.372 131.013 443.609 130.888 443.78 130.855L443.833 130.909C443.783 131.594 443.844 132.281 444.013 132.946C454.913 157.385 465.842 181.81 476.799 206.223C482.977 219.927 490.639 232.9 496.8 246.631C498.954 251.431 497.078 253.871 493.144 255.026C481.291 258.507 470.838 264.954 459.713 269.967C454.054 272.518 448.544 278.126 441.302 273.671C439.207 271.561 437.112 269.451 435.018 267.341C435.181 265.723 434.066 264.765 433.111 263.755C429.295 259.568 427.05 254.187 426.756 248.53C425.715 240.554 424.053 232.672 421.785 224.955C421.219 222.636 420.662 219.711 417.21 220.411C414.297 221.037 411.446 221.923 408.692 223.061C406.846 223.801 405.273 225.262 405.931 227.571C408.112 235.229 408.001 243.189 408.963 250.992C410.35 262.247 413.442 274.354 400.4 281.765C400.177 281.892 400.17 282.398 400.063 282.727ZM354.687 272.889C358.288 276.366 362.214 274.524 365.766 273.145C372.658 270.586 379.274 267.336 385.511 263.443C394.056 257.932 395.154 260.773 392.871 248.499C392.684 246.93 392.636 245.348 392.73 243.771C392.704 233.949 392.686 224.126 392.676 214.303L393.719 213.26C400.748 211.468 406.562 206.95 413.358 204.583C421.113 201.882 421.83 202.145 424.748 209.947C429.003 221.324 430.15 233.423 432.911 245.145C433.962 249.608 435.828 249.555 439.191 248.362C442.802 247.081 446.52 246.106 450.154 244.887C457.433 242.933 464.509 240.289 471.284 236.99C474.329 235.274 475.605 233.892 473.693 230.016C468.191 218.855 463.303 207.39 458.187 196.04C449.327 176.385 440.428 156.748 431.666 137.051C429.941 133.174 428.115 131.193 423.322 132.789C415.529 135.384 407.218 135.99 399.253 137.869C393.332 139.265 385.918 138.852 383.234 146.747C380.253 156.432 377.933 166.309 376.29 176.308C373.183 192.282 368.685 207.899 364.924 223.702C361.334 238.786 357.126 253.723 353.234 268.737C352.847 270.228 352.356 271.933 354.511 272.686L354.687 272.889ZM484.714 248.014C484.507 247.061 484.108 246.16 483.541 245.366C482.973 244.573 482.249 243.904 481.414 243.4C480.579 242.897 479.649 242.569 478.682 242.438C477.716 242.307 476.732 242.375 475.793 242.638C471.306 244.478 466.857 246.416 462.422 248.381C455.554 251.424 447.823 251.42 440.961 254.513C439.298 255.263 437.604 255.94 437.475 257.95C437.254 261.426 446.834 268.056 449.977 266.572C460.633 261.542 471.259 256.447 481.853 251.287C483.21 250.63 484.925 250.116 484.714 248.014ZM375.193 287.2C377.467 287.123 392.404 279.77 396.225 277.073C400.328 274.178 399.995 271.41 395.52 268.991C394.311 268.455 392.982 268.253 391.669 268.405C390.357 268.557 389.109 269.058 388.055 269.856C382.013 273.297 375.578 275.996 368.89 277.897C367.111 278.332 365.688 279.592 366.789 281.254C368.786 284.181 371.769 286.291 375.193 287.2Z" fill="#4035A7"/>
<path d="M125.991 276.63C125.616 276.253 125.242 275.877 124.867 275.501C122.34 268.631 117.467 263.01 114.931 256.065C109.888 242.258 105.383 228.606 105.367 213.489C105.353 200.537 107.996 188.132 110.261 175.64C111.262 170.115 112.019 164.067 115.208 159.23C124.681 144.863 135.42 132.053 153.392 127.595C167.568 124.079 179.938 125.453 190.369 136.782C196.943 144.059 202.306 152.344 206.253 161.321C213.045 176.483 217.565 192.564 219.668 209.044C221.455 222.298 217.984 235.047 213.369 247.51C210.184 256.758 204.885 265.134 197.893 271.973C190.901 278.812 182.41 283.926 173.095 286.906C159.33 291.505 145.413 287.694 132.842 280.247C130.619 278.931 128.874 276.699 125.991 276.63ZM121.391 208.122C121.084 224.479 129.574 245.38 148.861 261.221C157.428 268.258 167.534 273.171 178.918 270.946C199.185 266.986 209.285 246.8 212.272 232.283C214.554 219.485 213.901 206.337 210.364 193.828C206.157 176.924 200.475 160.721 190.248 146.36C174.36 124.05 144.282 126.421 132.048 150.996C124.399 166.36 121.672 182.749 121.391 208.122ZM119.316 165.522C117.116 167.075 115.61 169.427 115.119 172.076C114.414 175.996 112.942 179.777 112.22 183.696C110.457 193.254 107.511 202.687 109.758 212.662C111.135 218.775 111.67 225.055 113.109 231.191C115.567 243.324 120.153 254.925 126.655 265.459C131.017 272.112 134.754 272.949 142.215 270.273C147.007 268.555 145.603 266.859 142.86 264.903C137.757 260.893 133.417 255.998 130.047 250.453C123.031 239.986 118.395 228.109 116.464 215.657C114.606 204.07 114.586 192.262 116.405 180.668C117.106 175.944 119.557 171.535 119.316 165.522Z" fill="#4035A7"/>
<path d="M341.825 174.58C342.787 188.913 338.349 203.088 329.383 214.313C325.752 218.372 321.514 221.844 316.819 224.605C313.343 226.934 313.156 228.679 315.301 232.208C321.632 242.09 327.219 252.428 332.016 263.138C336.399 273.574 336.568 283.661 323.875 290.254C318.587 293.001 313.507 296.126 308.027 298.538C303.903 300.353 300.987 300.018 298.146 296.004C292.336 287.792 288.2 278.68 283.21 270.033C282.443 268.703 282.235 265.922 280.022 266.644C278.136 267.259 278.679 269.769 278.929 271.388C279.933 279.049 279.78 286.818 278.474 294.433C277.424 301.638 273.85 304.131 266.883 302.227C261.588 300.906 256.117 300.434 250.674 300.828C248.039 301.006 245.404 300.477 243.042 299.295C240.68 298.114 238.676 296.323 237.238 294.107C234.186 290.312 231.974 285.912 230.748 281.198C229.521 276.485 229.309 271.565 230.124 266.763C232.329 251.921 233.615 236.855 235.554 221.931C238.529 199.035 241.361 176.113 245.155 153.318C246.098 147.654 247.274 141.982 247.893 136.223C248.996 125.971 254.319 121.617 265.014 121.061C269.928 121.096 274.812 121.836 279.515 123.26C291.242 126.027 303.512 126.357 314.823 130.903C333.722 138.497 341.54 150.03 341.819 170.368C341.838 171.773 341.821 173.179 341.825 174.58ZM276.862 279.169H276.914C276.914 276.182 276.692 273.175 276.976 270.216C277.262 267.238 275.271 262.414 278.557 261.724C282.206 260.957 283.467 265.938 284.986 268.915C289.288 277.885 294.231 286.534 299.777 294.795C301.821 297.687 303.74 298.827 307.182 296.77C310.753 294.636 314.759 293.24 318.42 291.24C333.85 282.813 335.796 277.612 329.068 261.241C324.539 251.022 319.119 241.222 312.871 231.953C310.593 228.371 311.104 226.377 314.168 224.211C316.025 222.898 317.854 221.545 319.655 220.152C324.496 216.685 328.651 212.348 331.907 207.362C338.755 195.619 341.63 181.98 340.104 168.472C338.527 147.973 329.19 135.841 308.857 131.109C296.281 128.182 283.453 126.336 270.867 123.449C265.072 122.12 260.079 123.988 255.157 125.874C249.334 128.105 250.218 134.424 249.409 139.038C246.546 155.362 244.408 171.815 242.047 188.227C240.181 201.191 238.173 214.141 236.624 227.144C234.702 243.275 233.23 259.459 231.473 275.609C230.93 280.603 238.763 295.419 243.363 297.508C244.335 297.916 245.39 298.082 246.44 297.993C253.617 297.786 260.79 298.52 267.777 300.176C273.896 301.303 276.476 299.23 276.815 292.868C277.057 288.314 276.862 283.736 276.862 279.169Z" fill="#837CC6"/>
<path d="M125.99 276.63C128.874 276.699 130.619 278.931 132.841 280.247C145.413 287.694 159.329 291.505 173.094 286.906C182.409 283.926 190.901 278.813 197.892 271.973C204.884 265.134 210.183 256.758 213.368 247.511C217.984 235.048 221.454 222.298 219.667 209.044C217.564 192.564 213.044 176.484 206.253 161.321C202.305 152.344 196.942 144.059 190.368 136.783C179.937 125.453 167.567 124.079 153.391 127.596C135.419 132.054 124.68 144.863 115.208 159.23C112.019 164.067 111.262 170.116 110.26 175.64C107.995 188.132 105.352 200.537 105.366 213.489C105.382 228.606 109.887 242.258 114.93 256.065C117.467 263.01 122.339 268.631 124.866 275.501C119.434 271.9 117.599 265.872 114.855 260.498C104.625 240.469 102.013 218.973 104.33 197.018C105.51 185.514 107.902 174.167 111.468 163.166C115.107 152.082 123.877 144.731 131.847 136.767C140.907 127.713 152.546 125.155 164.3 123.486C173.63 122.162 181.807 126.447 188.742 132.571C200.122 142.619 206.682 155.805 211.737 169.732C217.668 186.072 223.047 202.753 221.367 220.415C218.754 247.892 208.365 270.277 182.635 284.926C165.614 294.618 140.096 288.605 128.202 279.397C127.293 278.694 126.042 278.092 125.99 276.63Z" fill="#837CC6"/>
<path d="M381.923 137.205C380.172 145.201 376.432 152.554 374.662 160.584C371.055 176.954 367.079 193.244 363.11 209.532C359.838 222.956 356.337 236.321 351.843 249.407C349.698 255.87 348.266 262.548 347.57 269.322C347.297 271.063 347.458 272.844 348.04 274.507C348.623 276.17 349.608 277.663 350.907 278.853C356.757 284.163 363.185 288.799 370.07 292.673C371.701 293.563 373.524 294.042 375.381 294.068C377.238 294.095 379.074 293.669 380.729 292.826C386.491 290.335 392.163 287.638 397.873 285.028C391.851 291.303 383.891 294.015 375.875 296.098C371.583 297.213 368.069 293.574 364.582 291.311C359.169 288.042 354.09 284.25 349.418 279.989C347.822 278.469 346.638 276.567 345.98 274.463C345.322 272.359 345.211 270.123 345.657 267.964C347.582 257.117 350.41 246.45 354.108 236.073C357.321 226.076 359.395 215.813 361.79 205.617C364.222 195.257 367.243 185.033 369.57 174.651C371.286 165.553 373.631 156.584 376.591 147.81C377.976 144.121 378.66 139.987 381.923 137.205Z" fill="#837CC6"/>
<path d="M441.302 273.671C448.544 278.126 454.055 272.518 459.713 269.967C470.838 264.954 481.291 258.507 493.145 255.026C497.078 253.871 498.954 251.431 496.8 246.631C490.639 232.9 482.977 219.927 476.799 206.223C465.802 181.828 454.874 157.403 444.013 132.946C443.844 132.281 443.783 131.594 443.833 130.909C447.335 132.353 447.268 136.037 448.517 138.767C464.266 173.183 478.7 208.208 496.391 241.724C497.127 243.118 497.775 244.562 498.406 246.008C500.75 251.377 499.693 255.019 494.029 256.707C479.267 261.106 466.282 269.225 452.483 275.63C448.435 277.509 444.157 279.256 441.302 273.671Z" fill="#837CC6"/>
<path d="M530.897 212.603C539.39 216.624 547.916 220.577 556.358 224.701C559.466 226.282 562.712 227.573 566.056 228.558C571.388 230.045 572.722 233.99 569.802 238.676C566.277 244.334 560.877 245.943 553.815 244.369C542.745 241.901 533.831 235.223 524.309 229.787C520.638 227.691 519.24 228.505 517.495 231.829C513.496 239.195 510.078 246.863 507.273 254.762C504.828 261.961 509.6 267.481 511.796 273.583C512.955 276.805 515.472 279.576 514.958 283.341C510.602 276.84 507.341 269.668 505.308 262.111C503.421 255.081 507.546 248.863 510.068 242.601C511.761 238.394 514.134 234.465 516.096 230.361C518.043 226.289 520.67 225.823 524.623 227.847C532.099 231.676 538.562 237.342 546.688 239.953C550.175 241.073 553.669 242.181 557.198 243.158C558.84 243.485 560.54 243.382 562.131 242.857C563.722 242.333 565.15 241.405 566.276 240.165C567.309 239.477 568.125 238.51 568.63 237.376C569.135 236.242 569.308 234.988 569.129 233.759C568.588 231.165 566.181 230.679 564.006 229.875C553.144 225.469 542.569 220.387 532.343 214.658C531.683 214.314 531.371 213.303 530.897 212.603Z" fill="#837CC6"/>
<path d="M400.063 282.727C400.17 282.398 400.177 281.891 400.4 281.765C413.442 274.354 410.35 262.247 408.963 250.992C408.001 243.188 408.112 235.229 405.931 227.571C405.273 225.262 406.846 223.801 408.692 223.061C411.446 221.923 414.297 221.036 417.21 220.411C420.661 219.711 421.219 222.636 421.785 224.954C424.053 232.672 425.715 240.554 426.756 248.53C427.05 254.187 429.295 259.568 433.111 263.755C434.066 264.765 435.181 265.722 435.018 267.341C428.314 262.713 425.814 256.083 424.849 248.203C423.7 240.613 422.155 233.088 420.222 225.659C419.273 221.545 416.241 222.833 413.492 223.458C410.392 224.162 407.92 224.854 408.328 229.144C409.322 239.599 411.739 249.914 411.447 260.495C411.389 262.601 411.458 264.71 411.454 266.818C411.438 275.377 408.492 279.488 400.063 282.727Z" fill="#837CC6"/>
<path d="M515.033 283.42C529.625 286.895 544.641 288.251 559.618 287.448C574.218 286.992 587.541 283.345 598.132 272.557C598.675 272.152 599.276 271.83 599.913 271.601C598.389 277.118 593.509 279.439 589.202 281.724C575.231 289.137 560.161 290.852 544.526 289.397C537.026 289.023 529.557 288.185 522.161 286.889C519.452 286.295 516.485 286.492 515.033 283.42Z" fill="#837CC6"/>
<path d="M598.426 135.537C592.724 133.849 587.751 130.538 582.25 128.303C567.819 122.441 554.601 124.528 541.559 131.848C536.157 134.724 530.946 137.946 525.958 141.493C524.459 142.609 523.048 144.138 520.879 143.988C520.82 142.711 521.87 142.163 522.659 141.589C531.754 134.79 541.744 129.28 552.347 125.214C562.67 121.388 572.626 122.943 582.448 126.548C588.203 128.66 594.498 130.074 598.426 135.537Z" fill="#837CC6"/>
<path d="M599.904 271.615C601.846 265.703 604.593 260.075 607.054 254.416C612.333 242.278 610.384 231.058 605.575 219.562C602.691 212.668 598.846 206.291 595.657 199.571C596.351 199.704 597.001 200.004 597.552 200.446C598.103 200.888 598.538 201.458 598.818 202.107C605.693 214.672 613.539 227.249 611.757 242.241C610.5 252.806 607.715 263.389 599.904 271.615Z" fill="#837CC6"/>
<path d="M443.78 130.855C443.609 130.888 443.372 131.013 443.275 130.943C432.225 122.968 420.837 127.498 409.278 129.539C399.882 131.197 390.569 132.647 382.012 137.108C385.508 132.092 391.131 130.57 396.458 129.754C406.634 128.194 416.647 126.039 426.702 123.922C433.47 122.497 438.907 126.49 443.78 130.855Z" fill="#837CC6"/>
<path d="M515.492 149.363C514.627 153.642 511.817 157.127 510.911 161.478C507.973 175.591 513.645 187.4 520.317 199.03C521.597 201.26 523.843 202.988 523.901 205.86C517.064 200.072 514.617 191.789 511.228 183.979C509.108 179.256 508.05 174.125 508.129 168.948C508.209 163.771 509.424 158.675 511.689 154.019C512.537 152.141 513.141 150.029 515.492 149.363Z" fill="#837CC6"/>
<path d="M592.512 196.451C582.612 190.465 571.157 186.96 562.988 178.25C561.24 176.386 557.992 174.302 561.31 171.018C562.099 176.644 566.411 179.561 570.569 182.263C575.636 185.556 581.154 188.148 586.363 191.235C588.668 192.601 591.531 193.464 592.512 196.451Z" fill="#837CC6"/>
<path d="M599.616 174.181C599.646 173.836 599.55 173.402 599.723 173.161C608.203 161.327 605.958 149.504 599.739 137.668C599.642 137.336 599.604 136.989 599.627 136.643C605.705 139.783 605.476 146.028 606.57 151.413C608.101 158.946 607.661 166.319 602.033 172.422C601.357 173.155 600.863 174.205 599.616 174.181Z" fill="#837CC6"/>
<path d="M561.525 170.807C564.509 167.733 568.121 169.032 571.279 169.926C576.747 171.13 582.047 172.997 587.063 175.485C591.017 177.745 594.687 176.751 598.465 175.329C596.157 179.356 592.996 179.81 588.824 178.168C580.016 174.703 571.408 170.343 561.525 170.807Z" fill="#837CC6"/>
<path d="M523.971 205.916C525.386 206.476 526.67 207.323 527.74 208.404C528.811 209.485 529.646 210.777 530.192 212.197C528.709 211.76 527.361 210.955 526.273 209.857C525.186 208.759 524.394 207.403 523.971 205.916Z" fill="#837CC6"/>
<path d="M519.632 145.059C519.447 146.08 518.967 147.024 518.249 147.774C517.532 148.524 516.61 149.046 515.597 149.275C515.675 148.213 516.12 147.211 516.856 146.442C517.593 145.672 518.574 145.183 519.632 145.059Z" fill="#837CC6"/>
<path d="M554.412 269.159C541.773 269.791 529.152 267.591 517.472 262.722C513.379 261.199 510.89 259.278 513.777 254.201C516.416 249.266 518.617 244.11 520.352 238.79C521.66 235.094 523.22 235.158 526.146 237.027C534.396 242.677 543.535 246.902 553.184 249.526C556.59 250.423 560.155 250.536 563.611 249.858C567.067 249.179 570.325 247.726 573.139 245.608C580.077 240.622 580.277 229.294 574.041 220.978C568.154 213.129 559.229 210.097 550.925 205.999C543.41 202.29 535.378 199.63 528.416 194.791C524.512 192.157 521.308 188.61 519.085 184.459C516.861 180.307 515.684 175.675 515.655 170.966C515.626 166.256 516.747 161.61 518.919 157.432C521.092 153.253 524.252 149.668 528.124 146.986C536.348 141.319 545.18 136.589 554.454 132.884C563.512 129.174 572.001 132.647 580.498 135.403C581.163 135.618 581.769 136.007 582.427 136.249C593.605 140.35 593.555 140.401 588.322 151.179C586.866 154.177 585.811 155.502 582.064 153.827C573.65 150.065 564.553 150.275 555.621 151.248C545.909 152.306 540.894 161.778 544.737 170.937C547.331 176.96 551.956 181.882 557.807 184.843C564.432 188.437 571.059 192.042 577.824 195.359C592.122 202.369 598.38 214.041 598.792 229.609C599.338 237.336 597.674 245.058 593.993 251.873C587.423 263.227 577.109 268.24 564.452 269.121C560.953 269.365 557.422 269.159 554.412 269.159Z" fill="#CCF575"/>
<path d="M550.581 283.124C541.682 282.139 531.595 281.062 521.521 279.88C519.108 279.597 513.795 271.721 514.496 269.666C515.178 267.668 516.522 269.017 517.536 269.223C523.351 270.402 528.914 272.496 534.702 273.882C543.269 275.934 551.789 275.452 560.359 275.667C562.459 275.377 564.599 275.674 566.54 276.527C567.762 277.294 570.141 277.256 569.708 279.358C569.374 280.975 567.454 281.643 565.917 281.817C561.221 282.35 556.497 282.641 550.581 283.124Z" fill="#837CC6"/>
<path d="M578.597 160.594C579.72 160.858 580.82 161.211 581.888 161.648C584.528 163.006 589.166 163.85 587.692 167.545C586.16 171.385 582.677 167.801 580.193 167.116C578.403 166.477 576.54 166.065 574.648 165.891C573.191 165.858 571.722 165.508 571.491 163.795C571.206 161.681 573.038 161.906 574.311 161.596C575.818 161.23 577.331 160.889 578.597 160.594Z" fill="#837CC6"/>
<path d="M393.719 213.26C393.371 213.607 393.024 213.955 392.676 214.303C390.838 214.742 390.869 216.238 390.883 217.631C390.99 228.311 390.628 239.029 391.466 249.653C391.909 255.266 391.149 258.885 385.726 261.338C375.631 265.902 366.627 273.292 354.687 272.888L354.512 272.685C356.643 263.997 358.613 255.267 360.93 246.63C369.387 215.107 377.018 183.387 383.821 151.469C384.17 148.701 385.454 146.136 387.46 144.197C389.465 142.258 392.073 141.062 394.851 140.807C403.982 139.073 413.139 137.365 422.123 135.025C426.411 133.908 428.357 134.716 430.178 138.778C443.675 168.89 457.32 198.936 471.111 228.916C472.949 232.922 472.067 235.202 468.057 236.566C458.092 239.954 448.117 243.316 438.171 246.761C435.737 247.604 435.093 246.465 434.712 244.369C433.863 239.708 432.886 235.071 431.917 230.433C430.626 222.64 428.659 214.974 426.038 207.523C423.399 200.907 420.609 199.71 414.25 202.261C413.248 202.586 412.266 202.97 411.31 203.413C405.423 206.653 398.207 207.528 393.719 213.26ZM393.037 178.89C392.537 189.133 394.595 190.603 402.813 187.71C403.802 187.361 404.856 187.196 405.847 186.853C419.087 182.275 419.797 180.303 415.964 166.596C412.664 154.795 410.478 157.007 401.47 159.767C400.162 160.289 398.991 161.105 398.049 162.152C397.107 163.198 396.417 164.447 396.034 165.803C394.285 169.959 393.271 174.387 393.037 178.89Z" fill="#FCFCFD"/>
<path d="M393.719 213.26C398.207 207.528 405.424 206.653 411.31 203.413C412.266 202.97 413.248 202.586 414.25 202.261C420.609 199.71 423.399 200.907 426.038 207.523C428.659 214.974 430.626 222.64 431.917 230.433C432.886 235.071 433.863 239.708 434.712 244.369C435.093 246.465 435.737 247.605 438.171 246.761C448.117 243.316 458.092 239.954 468.057 236.566C472.067 235.202 472.949 232.922 471.111 228.916C457.353 198.922 443.709 168.876 430.177 138.778C428.357 134.717 426.411 133.908 422.123 135.025C413.139 137.366 403.982 139.073 394.851 140.808C392.073 141.062 389.465 142.258 387.459 144.197C385.454 146.136 384.17 148.701 383.821 151.469C377.077 183.396 369.447 215.117 360.93 246.63C358.613 255.267 356.643 263.998 354.512 272.685C352.356 271.932 352.847 270.227 353.234 268.736C357.126 253.723 361.334 238.785 364.924 223.701C368.685 207.899 373.183 192.281 376.29 176.307C377.933 166.308 380.253 156.432 383.234 146.747C385.918 138.852 393.333 139.265 399.253 137.868C407.218 135.989 415.529 135.384 423.322 132.788C428.115 131.192 429.941 133.173 431.666 137.05C440.428 156.748 449.327 176.385 458.187 196.039C463.303 207.39 468.191 218.854 473.693 230.015C475.605 233.891 474.329 235.273 471.284 236.989C464.509 240.289 457.433 242.933 450.154 244.886C446.52 246.105 442.802 247.081 439.191 248.362C435.828 249.554 433.962 249.607 432.911 245.144C430.151 233.422 429.003 221.324 424.748 209.946C421.83 202.144 421.113 201.881 413.358 204.582C406.562 206.949 400.748 211.468 393.719 213.26Z" fill="#837CC6"/>
<path d="M484.71 248.011C484.925 250.116 483.21 250.63 481.853 251.287C471.247 256.421 460.622 261.517 449.978 266.572C446.835 268.056 437.254 261.426 437.475 257.95C437.604 255.94 439.298 255.263 440.962 254.513C447.824 251.42 455.554 251.424 462.423 248.381C466.857 246.416 471.306 244.478 475.793 242.638C476.732 242.375 477.715 242.307 478.681 242.438C479.647 242.569 480.577 242.896 481.412 243.399C482.247 243.902 482.97 244.571 483.537 245.364C484.104 246.157 484.503 247.058 484.71 248.011Z" fill="#837CC6"/>
<path d="M375.193 287.2C371.769 286.291 368.786 284.18 366.789 281.254C365.688 279.592 367.111 278.332 368.89 277.897C375.578 275.996 382.013 273.296 388.055 269.856C389.109 269.058 390.357 268.557 391.669 268.405C392.982 268.253 394.311 268.455 395.52 268.991C399.995 271.41 400.328 274.178 396.225 277.073C392.404 279.77 377.467 287.123 375.193 287.2Z" fill="#837CC6"/>
<path d="M354.687 272.889C366.627 273.292 375.631 265.903 385.725 261.338C391.149 258.885 391.909 255.267 391.466 249.653C390.628 239.029 390.99 228.311 390.882 217.632C390.868 216.238 390.838 214.742 392.676 214.303C392.692 224.125 392.71 233.948 392.73 243.77C392.636 245.347 392.683 246.93 392.871 248.498C395.154 260.772 394.055 257.931 385.511 263.442C379.274 267.335 372.658 270.586 365.765 273.144C362.214 274.523 358.288 276.366 354.687 272.889Z" fill="#837CC6"/>
<path d="M121.391 208.122C121.672 182.749 124.399 166.36 132.048 150.996C144.282 126.421 174.36 124.05 190.248 146.36C200.475 160.721 206.157 176.924 210.364 193.828C213.902 206.337 214.554 219.485 212.272 232.283C209.285 246.8 199.185 266.986 178.918 270.946C167.534 273.171 157.429 268.258 148.861 261.222C129.574 245.38 121.084 224.479 121.391 208.122ZM148.193 182.511C148.077 192.15 149.137 201.766 151.348 211.149C152.636 218.259 155.985 224.834 160.979 230.057C162.956 232.061 165.376 233.572 168.046 234.466C170.715 235.361 173.557 235.613 176.342 235.204C179.127 234.795 181.777 233.735 184.076 232.11C186.375 230.486 188.258 228.342 189.574 225.854C195.727 214.637 195.182 203.029 191.606 191.21C187.715 178.348 182.504 166.123 173.204 156.2C165.492 147.972 154.486 150.686 150.878 161.26C148.786 168.14 147.878 175.326 148.193 182.511Z" fill="#D04485"/>
<path d="M119.316 165.521C119.557 171.535 117.106 175.944 116.404 180.668C114.586 192.262 114.606 204.07 116.464 215.657C118.394 228.109 123.031 239.986 130.047 250.453C133.417 255.998 137.757 260.893 142.859 264.903C145.602 266.859 147.007 268.555 142.215 270.273C134.753 272.949 131.017 272.112 126.655 265.459C120.153 254.925 115.566 243.324 113.109 231.191C111.67 225.055 111.135 218.775 109.758 212.662C107.511 202.687 110.456 193.254 112.219 183.695C112.942 179.777 114.413 175.996 115.119 172.076C115.609 169.427 117.116 167.075 119.316 165.521Z" fill="#837CC6"/>
<path d="M276.862 279.169C276.862 283.736 277.057 288.314 276.815 292.868C276.476 299.231 273.896 301.303 267.777 300.176C260.79 298.521 253.617 297.787 246.44 297.993C245.39 298.083 244.335 297.916 243.363 297.508C238.763 295.42 230.929 280.603 231.473 275.61C233.23 259.459 234.702 243.275 236.624 227.145C238.173 214.141 240.181 201.192 242.047 188.227C244.408 171.816 246.546 155.363 249.409 139.038C250.218 134.425 249.334 128.106 255.157 125.875C260.079 123.989 265.072 122.12 270.867 123.45C283.454 126.337 296.281 128.183 308.857 131.11C329.19 135.842 338.527 147.974 340.104 168.473C341.63 181.98 338.755 195.62 331.907 207.363C328.651 212.348 324.496 216.685 319.655 220.153C317.853 221.542 316.024 222.895 314.168 224.212C311.104 226.378 310.593 228.372 312.871 231.954C319.119 241.222 324.539 251.023 329.068 261.242C335.796 277.612 333.85 282.814 318.42 291.241C314.758 293.241 310.753 294.636 307.182 296.771C303.74 298.828 301.822 297.688 299.777 294.795C294.231 286.535 289.288 277.886 284.986 268.916C283.467 265.938 282.206 260.958 278.557 261.725C275.271 262.415 277.262 267.239 276.976 270.216C276.692 273.175 276.914 276.183 276.914 279.169L276.862 279.169ZM237.667 275.661C237.541 276.233 237.548 276.825 237.686 277.393C237.825 277.962 238.091 278.491 238.466 278.94C238.841 279.389 239.313 279.747 239.848 279.985C240.382 280.223 240.964 280.335 241.548 280.314C246.414 280.908 251.279 281.566 256.164 281.942C265.047 282.626 265.299 282.572 266.167 273.474C267.764 256.745 269.04 239.986 270.443 223.239C270.572 221.695 270.196 219.706 272.086 219.198C273.962 218.694 274.743 220.511 275.491 221.869C279.108 228.44 282.796 234.976 286.25 241.633C292.188 253.077 298.093 264.543 303.753 276.126C305.759 280.233 307.79 280.711 311.4 278.028C314.66 275.674 318.103 273.583 321.696 271.776C322.307 271.508 322.855 271.116 323.304 270.624C323.754 270.131 324.095 269.55 324.306 268.917C324.517 268.285 324.593 267.615 324.529 266.951C324.465 266.287 324.262 265.645 323.934 265.064C321.8 259.35 319.313 253.773 316.488 248.366C311.793 239.785 306.597 231.477 301.564 223.082C301.028 222.438 300.633 221.689 300.403 220.883C300.174 220.077 300.115 219.233 300.231 218.403C300.346 217.573 300.634 216.777 301.075 216.065C301.517 215.353 302.102 214.741 302.794 214.268C304.767 212.516 306.626 210.64 308.36 208.65C317.34 199.047 326.488 189.535 331.552 177.093C333.543 173.181 334.561 168.846 334.518 164.456C333.359 152.654 319.315 138.527 307.56 136.527C294.298 134.269 281.069 131.813 267.844 129.341C260.836 128.031 257.801 130.644 256.532 137.479C254.554 148.14 253.138 158.872 251.508 169.577C249.667 181.675 247.801 193.772 246.22 205.906C244.413 219.778 243.074 233.711 241.215 247.576C239.959 256.939 240.43 266.511 237.667 275.661ZM246.302 286.129C244.141 286.81 241.035 285.1 240.508 287.556C240.027 289.795 242.124 291.938 244.304 293.424C245.825 294.301 247.574 294.697 249.324 294.561C254.231 294.738 259.14 294.902 264.042 295.178C265.975 295.287 268.42 297.028 269.255 293.861C269.442 293.256 269.48 292.614 269.366 291.991C269.251 291.368 268.987 290.783 268.597 290.284C268.206 289.785 267.7 289.389 267.123 289.129C266.546 288.868 265.914 288.752 265.282 288.789C258.768 288.55 252.481 286.894 246.302 286.129ZM301.408 288.198C301.761 287.552 301.956 286.832 301.979 286.096C302.001 285.36 301.85 284.63 301.537 283.964C296.169 270.833 289.977 258.054 282.999 245.704C282.172 244.121 281.739 240.607 278.907 242.339C276.354 243.901 279.028 246.12 279.839 247.777C283.968 256.214 288.218 264.593 292.586 272.913C295.215 277.934 296.95 283.502 301.408 288.198Z" fill="#4035A7"/>
<path d="M393.036 178.891C393.27 174.388 394.285 169.959 396.034 165.803C396.417 164.448 397.106 163.199 398.049 162.152C398.991 161.106 400.161 160.29 401.469 159.767C410.477 157.007 412.664 154.795 415.964 166.596C419.797 180.304 419.087 182.276 405.847 186.854C404.855 187.197 403.802 187.362 402.813 187.71C394.595 190.603 392.537 189.133 393.036 178.891ZM402.066 174.389C402.425 175.945 401.302 178.406 404.076 178.436C404.523 178.452 404.968 178.379 405.386 178.22C405.804 178.062 406.186 177.822 406.51 177.514C406.833 177.205 407.092 176.836 407.272 176.427C407.451 176.017 407.546 175.576 407.553 175.129C407.58 174.052 407.204 173.003 406.498 172.188C405.793 171.373 404.809 170.85 403.739 170.722C401.362 170.551 402.631 173.117 402.066 174.389Z" fill="#4035A7"/>
<path d="M148.195 182.511C147.878 175.326 148.785 168.14 150.878 161.259C154.485 150.686 165.491 147.971 173.203 156.199C182.504 166.123 187.715 178.348 191.606 191.21C195.181 203.029 195.726 214.637 189.574 225.854C188.258 228.342 186.374 230.486 184.075 232.11C181.776 233.735 179.127 234.795 176.342 235.204C173.557 235.613 170.714 235.36 168.045 234.466C165.376 233.572 162.955 232.061 160.979 230.056C155.985 224.834 152.636 218.259 151.348 211.148C149.137 201.766 148.078 192.15 148.195 182.511ZM164.913 225.002C165.965 228.626 167.602 229.327 170.193 227.262L172.158 226.04C173.192 226.065 174.222 226.188 175.233 226.408C182.959 228.83 184.825 228.033 188.363 220.771C189.093 219.271 189.716 217.588 188.419 216.402C186.957 215.064 185.487 216.534 184.173 217.279C181.598 218.738 180.568 221.97 177.64 223.052L177.33 222.715C175.794 219.366 181.455 216.974 178.564 213.444L178.754 209.309C181.489 207.148 181.477 204.982 178.77 202.808L178.533 199.738C180.424 197.083 179.392 195.431 176.684 194.354L176.358 192.363C176.716 190.133 176.406 187.848 175.466 185.795C174.527 183.742 173 182.013 171.08 180.827C170.843 180.682 170.661 180.463 170.563 180.203C171.317 177.806 170.228 176.765 167.922 176.622L167.927 176.628C167.717 172.448 164.062 172.363 161.394 171.578C159.255 170.949 156.795 171.339 156.494 174.523C154.098 181.771 155.938 189.219 155.446 196.557C153.823 199.327 153.906 201.62 157.246 203.005L157.614 206.046C155.761 208.668 157.271 210.15 159.435 211.411L159.732 213.427C159.577 218.128 160.481 222.355 164.916 225.003L164.913 225.002Z" fill="#4035A7"/>
<path d="M237.667 275.661C240.43 266.51 239.959 256.938 241.215 247.575C243.074 233.71 244.413 219.777 246.22 205.905C247.801 193.771 249.667 181.674 251.509 169.576C253.138 158.871 254.554 148.139 256.532 137.478C257.801 130.643 260.836 128.03 267.844 129.34C281.069 131.812 294.298 134.269 307.56 136.526C319.315 138.527 333.359 152.654 334.518 164.456C334.561 168.845 333.543 173.18 331.552 177.092C326.488 189.534 317.34 199.047 308.36 208.649C306.626 210.639 304.767 212.515 302.794 214.267C302.102 214.74 301.517 215.352 301.076 216.064C300.634 216.776 300.346 217.572 300.231 218.402C300.115 219.232 300.174 220.077 300.403 220.882C300.633 221.688 301.028 222.437 301.564 223.081C306.597 231.476 311.793 239.784 316.488 248.365C319.313 253.772 321.8 259.349 323.934 265.063C324.262 265.644 324.465 266.287 324.529 266.95C324.593 267.614 324.517 268.284 324.306 268.916C324.095 269.549 323.754 270.13 323.304 270.623C322.854 271.115 322.306 271.508 321.695 271.775C318.103 273.583 314.66 275.673 311.399 278.027C307.79 280.71 305.759 280.232 303.753 276.125C298.093 264.542 292.188 253.077 286.25 241.632C282.796 234.975 279.108 228.439 275.491 221.868C274.744 220.51 273.962 218.693 272.086 219.197C270.196 219.705 270.572 221.694 270.443 223.238C269.04 239.985 267.764 256.744 266.167 273.473C265.299 282.571 265.046 282.625 256.164 281.941C251.279 281.565 246.414 280.907 241.548 280.313C240.964 280.334 240.382 280.222 239.848 279.984C239.314 279.746 238.841 279.388 238.466 278.939C238.092 278.49 237.825 277.961 237.686 277.393C237.548 276.824 237.541 276.232 237.667 275.661ZM269.287 181.17C269.287 184.282 269.288 186.211 269.287 188.14C269.286 195.525 270.412 196.664 277.825 196.474C283.543 196.379 289.158 194.944 294.221 192.284C299.283 189.624 303.65 185.813 306.972 181.158C314.341 171.5 314.512 154.033 301.982 148.399C293.273 144.482 284.246 145.283 275.32 147.397C274.181 147.674 273.175 148.342 272.478 149.285C271.781 150.228 271.437 151.385 271.505 152.555C272.14 162.596 268.772 172.33 269.287 181.17Z" fill="#5EBAB4"/>
<path d="M246.301 286.129C252.481 286.894 258.768 288.549 265.281 288.788C265.914 288.751 266.545 288.868 267.123 289.128C267.7 289.389 268.206 289.785 268.596 290.284C268.987 290.782 269.251 291.368 269.366 291.991C269.48 292.614 269.442 293.255 269.255 293.86C268.42 297.028 265.975 295.287 264.042 295.178C259.14 294.902 254.231 294.738 249.324 294.56C247.574 294.696 245.824 294.3 244.304 293.424C242.123 291.937 240.027 289.795 240.508 287.556C241.035 285.1 244.141 286.809 246.301 286.129Z" fill="#837CC6"/>
<path d="M301.408 288.197C296.95 283.502 295.215 277.933 292.586 272.913C288.229 264.59 283.98 256.211 279.839 247.777C279.028 246.12 276.354 243.9 278.907 242.339C281.739 240.607 282.172 244.121 282.999 245.704C289.977 258.054 296.169 270.833 301.537 283.963C301.85 284.63 302.001 285.36 301.979 286.096C301.956 286.831 301.761 287.551 301.408 288.197Z" fill="#837CC6"/>
<path d="M402.066 174.389C402.631 173.117 401.362 170.551 403.739 170.722C404.809 170.85 405.793 171.372 406.499 172.187C407.204 173.003 407.58 174.051 407.553 175.129C407.547 175.576 407.451 176.017 407.272 176.426C407.093 176.836 406.834 177.205 406.51 177.513C406.186 177.821 405.804 178.061 405.386 178.22C404.968 178.378 404.523 178.452 404.077 178.436C401.302 178.405 402.425 175.945 402.066 174.389Z" fill="#837CC6"/>
<path d="M176.359 192.362C176.467 193.026 176.576 193.69 176.684 194.353C176.464 195.334 176.52 196.357 176.847 197.307C177.173 198.258 177.757 199.099 178.533 199.738C178.612 200.761 178.691 201.784 178.77 202.808C178.23 204.94 178.224 207.173 178.754 209.308L178.564 213.444L172.158 226.039L170.193 227.261C168.255 227.02 166.425 226.236 164.913 225.001L164.916 225.003C163.228 221.126 162.556 216.795 159.732 213.426L159.436 211.41C159.697 210.436 159.664 209.406 159.339 208.451C159.015 207.496 158.414 206.659 157.614 206.045C157.491 205.032 157.369 204.018 157.247 203.005C157.456 201.864 157.402 200.69 157.09 199.573C156.778 198.456 156.216 197.424 155.446 196.557C155.939 189.219 154.098 181.77 156.494 174.523C160.839 172.325 164.332 174.752 167.927 176.628L167.922 176.622C168.003 178.404 169.305 179.288 170.563 180.203C170.661 180.462 170.843 180.682 171.08 180.826C172.685 184.742 173.517 189.011 176.359 192.362Z" fill="#FCFCFD"/>
<path d="M172.158 226.039L178.564 213.444C181.455 216.973 175.794 219.366 177.333 222.719C176.8 223.073 176.069 223.311 175.783 223.806C175.725 223.922 175.705 224.052 175.724 224.179C175.744 224.307 175.802 224.425 175.892 224.518C175.982 224.61 176.098 224.672 176.225 224.696C176.352 224.719 176.483 224.702 176.6 224.647C177.09 224.36 177.305 223.603 177.64 223.051C180.568 221.97 181.598 218.738 184.173 217.278C185.487 216.534 186.957 215.064 188.419 216.402C189.716 217.588 189.093 219.271 188.363 220.77C184.825 228.032 182.959 228.83 175.234 226.407C174.222 226.188 173.192 226.065 172.158 226.039Z" fill="#837CC6"/>
<path d="M194.851 163.45C191.257 161.574 187.763 159.147 183.418 161.344C183.719 158.161 186.18 157.771 188.318 158.4C190.986 159.184 194.641 159.27 194.851 163.45Z" fill="#837CC6"/>
<path d="M176.358 192.362C173.517 189.011 172.685 184.742 171.08 180.826C173.001 182.013 174.527 183.742 175.466 185.795C176.406 187.848 176.716 190.133 176.358 192.362Z" fill="#837CC6"/>
<path d="M159.732 213.427C162.555 216.796 163.228 221.127 164.915 225.004C160.48 222.355 159.577 218.128 159.732 213.427Z" fill="#837CC6"/>
<path d="M155.446 196.557C156.216 197.424 156.778 198.456 157.09 199.573C157.402 200.69 157.456 201.864 157.247 203.005C153.906 201.62 153.823 199.326 155.446 196.557Z" fill="#837CC6"/>
<path d="M178.533 199.738C177.757 199.099 177.173 198.258 176.846 197.307C176.52 196.357 176.464 195.334 176.684 194.354C179.391 195.431 180.424 197.083 178.533 199.738Z" fill="#837CC6"/>
<path d="M178.754 209.308C178.224 207.173 178.23 204.94 178.77 202.808C181.477 204.981 181.489 207.148 178.754 209.308Z" fill="#837CC6"/>
<path d="M157.613 206.045C158.414 206.659 159.014 207.496 159.339 208.451C159.663 209.406 159.697 210.436 159.435 211.41C157.27 210.15 155.761 208.668 157.613 206.045Z" fill="#837CC6"/>
<path d="M164.913 225.001C166.425 226.236 168.255 227.019 170.192 227.261C167.602 229.327 165.965 228.626 164.913 225.001Z" fill="#837CC6"/>
<path d="M170.563 180.202C169.305 179.287 168.003 178.404 167.922 176.622C170.229 176.765 171.317 177.805 170.563 180.202Z" fill="#837CC6"/>
<path d="M269.287 181.171C268.772 172.331 272.14 162.597 271.505 152.556C271.437 151.386 271.781 150.228 272.478 149.286C273.175 148.343 274.181 147.675 275.32 147.397C284.246 145.284 293.273 144.483 301.982 148.399C314.511 154.034 314.34 171.501 306.971 181.159C303.65 185.814 299.283 189.624 294.22 192.284C289.158 194.945 283.543 196.38 277.825 196.475C270.412 196.664 269.286 195.526 269.287 188.141C269.287 186.212 269.287 184.282 269.287 181.171ZM294.954 163.846C291.549 163.397 288.711 164.568 288.573 168.936C288.42 173.825 288.59 178.724 288.612 183.618C288.625 186.42 289.829 187.032 292.22 185.647C296.421 183.098 299.836 179.438 302.088 175.071C305.861 168.264 303.302 163.997 294.954 163.846ZM275.72 173.719H275.669C275.669 177.584 275.633 181.448 275.684 185.312C275.711 187.375 275.361 190.072 278.434 189.99C281.241 189.915 282.013 187.62 282.011 185.077C282.008 180.335 281.857 175.582 282.127 170.854C282.236 167.709 281.445 164.599 279.848 161.889C279.164 160.606 278.394 158.995 276.974 159.169C275.035 159.406 275.793 161.4 275.757 162.655C275.652 166.341 275.72 170.031 275.72 173.719Z" fill="#4035A7"/>
<path d="M177.64 223.051C177.304 223.602 177.09 224.36 176.6 224.647C176.483 224.702 176.352 224.719 176.225 224.695C176.098 224.672 175.982 224.61 175.892 224.517C175.802 224.425 175.744 224.307 175.724 224.179C175.705 224.052 175.725 223.921 175.783 223.806C176.069 223.311 176.8 223.073 177.333 222.719L177.64 223.051Z" fill="#4035A7"/>
<path d="M294.954 163.845C303.302 163.996 305.862 168.264 302.088 175.07C299.836 179.437 296.421 183.097 292.22 185.646C289.829 187.032 288.625 186.42 288.612 183.618C288.59 178.724 288.42 173.825 288.574 168.936C288.711 164.568 291.549 163.397 294.954 163.845Z" fill="#FCFCFD"/>
<path d="M275.72 173.72C275.72 170.031 275.653 166.341 275.757 162.655C275.793 161.4 275.035 159.406 276.974 159.169C278.395 158.995 279.164 160.606 279.848 161.889C281.446 164.599 282.237 167.709 282.128 170.854C281.858 175.582 282.009 180.335 282.012 185.077C282.013 187.62 281.241 189.915 278.434 189.99C275.361 190.072 275.711 187.375 275.684 185.312C275.634 181.448 275.67 177.584 275.67 173.72H275.72Z" fill="#837CC6"/>
</g>
<defs>
<filter id="filter0_d_435_328" x="97.7048" y="115" width="522.357" height="200.278" filterUnits="userSpaceOnUse" color-interpolation-filters="sRGB">
<feFlood flood-opacity="0" result="BackgroundImageFix"/>
<feColorMatrix in="SourceAlpha" type="matrix" values="0 0 0 0 0 0 0 0 0 0 0 0 0 0 0 0 0 0 127 0" result="hardAlpha"/>
<feOffset dy="2.29525"/>
<feGaussianBlur stdDeviation="1.14762"/>
<feComposite in2="hardAlpha" operator="out"/>
<feColorMatrix type="matrix" values="0 0 0 0 0 0 0 0 0 0 0 0 0 0 0 0 0 0 0.25 0"/>
<feBlend mode="normal" in2="BackgroundImageFix" result="effect1_dropShadow_435_328"/>
<feBlend mode="normal" in="SourceGraphic" in2="effect1_dropShadow_435_328" result="shape"/>
</filter>
</defs>
</svg>
