<svg width="718" height="425" viewBox="0 0 718 425" fill="none" xmlns="http://www.w3.org/2000/svg">
<path d="M463.442 102.984H254.129V108.867H463.442V102.984Z" fill="#452391"/>
<path d="M376.744 172.652V166.769H383.866C390.059 166.769 398.729 166.769 402.444 166.459C406.779 165.84 410.804 163.982 413.901 161.195C418.545 157.17 421.332 150.977 421.022 144.785V127.445C421.022 114.44 431.86 103.603 444.864 103.603H463.133V109.486H445.174C435.266 109.486 427.215 117.537 427.215 127.445V144.785C427.525 152.835 424.119 160.266 418.236 165.53C414.21 169.555 408.947 172.032 403.373 172.652C399.348 172.961 390.988 172.961 384.176 172.961L376.744 172.652Z" fill="#452391"/>
<path d="M338.969 172.652H333.705C329.37 172.652 325.035 172.652 320.7 172.343C315.127 171.723 309.863 169.246 305.838 165.221C299.955 159.957 296.549 152.216 296.858 144.475V127.136C296.858 117.228 288.808 109.177 278.9 109.177H254.129V103.294H278.9C291.904 103.294 302.432 113.822 302.742 126.826V144.166C302.742 150.359 305.219 156.551 309.863 160.577C312.96 163.673 316.985 165.531 321.32 165.84C325.345 166.15 329.68 166.46 333.705 166.15H338.969V172.652Z" fill="#452391"/>
<path d="M358.476 189.062C347.639 189.062 338.659 180.392 338.659 169.865V169.555C338.659 158.718 347.329 150.048 357.857 150.048H358.476C369.313 150.048 377.983 158.718 377.983 169.555C378.293 180.082 369.313 188.752 358.476 189.062Z" fill="#99C941"/>
<path d="M483.259 85.9541C494.096 85.9541 502.766 94.6239 502.457 105.461C502.457 116.298 493.477 124.968 482.64 124.968C471.803 124.968 463.133 116.298 463.133 105.461C462.823 94.9335 471.493 86.2637 482.021 85.9541H483.259Z" fill="#452391"/>
<path d="M233.073 84.0962C244.84 84.0962 254.438 93.6949 254.438 105.151C254.129 116.918 244.84 126.207 233.073 126.516C221.307 126.826 211.399 117.846 211.089 106.08V105.461C211.089 93.6949 220.688 84.4058 232.454 84.0962H233.073Z" fill="#973896"/>
<path d="M358.476 191.539C346.09 190.92 336.801 180.392 337.421 168.007C338.04 156.55 347.019 147.571 358.476 146.952C364.359 146.952 369.932 149.429 373.958 153.764C378.293 157.789 380.46 163.362 380.77 169.245C380.46 181.321 370.552 191.23 358.476 191.539ZM358.476 152.215C349.187 152.215 341.446 159.647 341.446 168.936C341.446 173.58 343.304 177.915 346.4 181.012C349.496 184.108 353.831 185.966 358.476 185.966C367.765 185.966 375.506 178.225 375.506 168.936C375.506 164.601 373.958 160.266 370.552 156.86C367.455 154.073 363.12 152.215 358.476 152.215Z" fill="#452391"/>
<path d="M482.95 127.754C477.067 127.754 471.493 125.587 467.158 121.252C463.133 116.917 460.656 111.344 460.656 105.461C460.656 93.3849 470.564 83.4766 482.64 83.4766H482.95C495.025 83.4766 504.934 93.3849 505.243 105.461C504.934 117.536 495.025 127.445 482.95 127.754ZM482.95 88.4307C473.661 88.4307 465.92 96.1716 465.92 105.461C465.92 110.105 467.777 114.44 470.874 117.536C473.97 120.633 478.305 122.491 482.95 122.491C492.239 122.491 499.98 114.75 499.98 105.461C499.98 96.1716 492.239 88.4307 482.95 88.4307Z" fill="#452391"/>
<path d="M232.455 129.303C225.952 129.303 220.069 126.826 215.425 122.182C210.78 117.537 208.303 111.344 208.303 104.842C208.303 91.8372 218.831 81.3096 232.145 81H232.455C238.647 81 244.84 83.4771 249.175 88.1216C253.819 92.4565 256.296 98.6492 256.296 104.842C256.296 118.466 245.769 129.303 232.455 129.303ZM232.455 86.8831C222.237 86.8831 213.876 95.2432 213.876 105.461C213.876 110.415 215.734 115.37 219.45 119.085C222.856 122.491 227.81 124.659 232.764 124.349C243.292 124.349 251.652 115.679 251.652 105.461C251.652 95.2432 243.292 86.8831 233.074 86.5734L232.455 86.8831Z" fill="#452391"/>
<path d="M69.4829 312.489C63.5998 314.347 57.7167 316.824 52.4529 319.92H57.0974C62.9805 316.514 69.4829 313.418 76.2948 311.56C76.9141 311.56 77.843 311.56 78.4623 311.56L69.4829 312.489Z" fill="#452391"/>
<path d="M41.6156 329.209C49.3565 323.945 58.3359 320.849 67.625 320.229C84.0357 320.229 99.2078 345 118.715 345C132.648 345 145.034 335.711 148.749 322.087L148.13 321.778C142.866 331.067 132.958 336.64 122.121 336.021C101.685 336.021 94.8729 315.895 67.9346 315.895C57.407 315.895 47.8083 320.849 41.6156 329.209Z" fill="#452391"/>
<path d="M97.969 298.555L98.5883 297.936C104.162 290.814 106.948 281.835 106.948 272.856C106.948 270.688 106.639 268.83 106.329 266.663C105.71 261.399 103.852 256.445 101.375 251.8V252.11C95.1823 240.653 83.4162 233.222 70.4115 232.913H68.5537C55.549 233.532 43.7828 240.653 37.5901 252.11V251.8C34.8034 256.755 32.9456 262.018 32.3263 267.592C32.3263 269.45 32.3263 270.998 32.0167 272.856C31.3974 293.911 48.1177 311.56 69.1729 312.489C80.3198 312.179 90.8474 307.225 97.6594 298.246L97.969 298.555ZM65.767 238.176H74.4367C90.2281 240.963 96.4209 258.612 96.4209 272.856C96.7305 281.525 94.2534 290.195 89.2992 297.626L88.9896 298.246C84.6547 304.129 77.5331 307.535 70.1018 307.535C68.8633 307.535 67.6248 307.535 66.3862 307.535H63.9091C61.432 306.915 58.955 305.677 56.7875 304.129C47.4984 296.388 42.5443 284.931 43.1636 272.856C43.1636 258.612 49.3562 241.273 65.1477 238.486L65.767 238.176Z" fill="#452391"/>
<path d="M166.708 307.844C166.708 308.463 166.089 308.773 164.85 308.773H153.703C152.775 308.773 152.155 308.154 151.846 307.534L149.988 303.509C149.988 302.89 149.369 302.89 148.749 303.509C145.343 307.844 140.08 310.321 134.506 310.012C130.171 310.321 126.146 308.463 123.05 305.367C119.953 301.651 118.405 297.007 118.715 292.362V269.759C119.024 267.282 117.476 265.424 114.999 264.805L112.522 264.186C111.283 263.876 110.664 263.257 110.664 262.947C110.664 262.637 111.283 262.018 112.522 262.018H128.004C128.933 262.018 129.552 262.018 129.552 262.637C129.552 263.257 128.933 263.257 128.004 264.186C126.765 266.043 126.456 268.52 126.765 270.688V293.911C126.146 298.865 129.552 303.2 134.506 304.129C135.435 304.438 136.364 304.438 136.983 304.129C139.77 304.129 142.557 303.2 144.724 301.651C147.201 300.413 149.059 297.936 149.059 295.149V269.759C149.369 267.282 147.82 265.114 145.343 264.805L142.866 264.186C141.628 263.876 141.008 263.257 141.008 262.947C141.008 262.637 141.628 262.018 143.176 262.018H156.181C157.109 262.018 157.729 262.637 157.729 263.257L157.419 270.378V300.723C157.109 303.2 158.658 305.367 161.135 305.677L164.231 306.296C166.089 306.915 166.708 307.225 166.708 307.844Z" fill="#452391"/>
<path d="M215.321 307.844C215.321 308.463 214.702 308.773 213.463 308.773H202.316C201.387 308.773 200.768 308.463 200.459 307.535L199.53 305.986C199.53 305.677 199.22 305.367 198.91 305.367C198.291 305.367 197.981 305.677 197.362 305.986C193.337 308.773 188.383 310.321 183.119 310.012C179.713 310.012 176.307 309.083 173.52 306.915C170.734 304.748 169.495 301.342 169.495 297.936C169.185 292.982 172.282 288.337 177.236 286.479C179.403 285.55 181.88 284.931 184.357 284.312C188.383 283.383 191.479 282.764 192.408 282.454C196.433 281.216 198.291 279.358 198.291 276.881V272.546C198.291 270.069 197.053 267.901 194.575 266.663C192.408 265.734 190.241 265.115 188.073 265.115C184.667 264.805 181.571 265.734 179.094 267.901C176.617 270.378 175.378 273.475 174.759 276.881C174.759 277.19 174.449 277.5 174.14 277.5C173.83 277.5 173.52 277.19 173.52 276.881V263.257C173.52 262.637 173.52 262.328 174.759 262.328L181.88 261.709C184.358 261.399 186.525 261.089 189.002 261.089C193.647 260.78 198.291 262.018 202.007 264.495C205.413 267.901 207.271 272.855 206.961 277.81V301.342C206.961 304.129 208.199 305.986 210.367 306.296L213.773 306.915C214.702 306.915 215.321 307.225 215.321 307.844ZM198.91 297.317V286.17C198.91 285.241 198.601 284.931 197.672 285.241L183.429 289.576C180.332 290.195 177.855 292.982 177.855 296.078C177.855 302.58 180.642 305.677 186.525 305.677C189.621 305.677 192.718 305.057 195.504 303.2C197.672 301.961 198.91 299.794 198.91 297.317Z" fill="#452391"/>
<path d="M269.817 307.845C269.817 308.464 269.198 308.774 267.959 308.774H252.787C251.858 308.774 251.239 308.774 251.239 307.845L252.787 306.297C254.026 304.439 254.335 301.962 254.026 299.795V276.572C254.026 269.76 250.62 266.664 243.808 266.664C241.021 266.664 238.544 267.593 236.067 269.141C233.59 270.379 231.732 272.856 231.732 275.643V301.033C231.422 303.51 232.97 305.678 235.447 305.987L237.925 306.607C239.163 306.916 239.782 307.226 239.782 307.845C239.782 308.464 238.854 308.774 237.615 308.774H217.798C216.56 308.774 215.94 308.774 215.94 307.845C215.94 306.916 216.56 306.916 217.798 306.607L220.275 305.987C222.443 305.368 223.991 303.201 223.681 301.033V269.76C223.681 266.973 222.443 265.115 219.966 264.806L215.321 264.187C214.083 264.187 213.463 263.567 213.463 262.948C213.463 262.329 214.083 262.019 215.321 262.019H228.016C228.945 262.019 229.564 262.638 229.874 263.258L231.732 267.283C231.732 267.902 232.351 267.902 232.97 267.283C236.376 262.948 241.64 260.781 247.214 261.09C251.549 260.781 255.883 262.638 258.67 265.735C261.766 269.45 263.315 274.095 263.005 278.739V301.033C262.695 303.51 264.244 305.678 266.721 305.987L269.198 306.607C269.507 306.916 269.817 307.226 269.817 307.845Z" fill="#452391"/>
<path d="M309.14 295.769C309.14 305.058 303.257 310.012 291.801 310.012C286.537 310.012 281.273 309.083 276.009 307.845C275.081 307.845 274.461 306.606 274.152 304.748C274.152 303.51 274.152 301.962 274.152 300.723C274.152 298.865 274.152 296.698 273.532 294.84C273.532 293.911 273.532 293.602 274.152 293.602C274.771 293.602 275.081 293.911 275.39 294.84C276.319 298.556 278.796 301.962 281.892 304.129C285.298 305.677 289.014 306.606 292.73 306.297C294.897 306.297 297.065 305.677 298.922 304.439C300.78 303.2 302.019 301.342 302.328 298.865C302.328 295.769 299.851 292.982 295.207 291.124L281.892 285.241C277.558 283.384 274.771 279.049 274.771 274.404C274.771 265.734 280.035 261.399 290.253 261.399C295.207 261.399 300.161 261.709 304.806 262.328C305.425 262.328 305.734 262.638 306.044 263.257V274.404C306.044 275.333 306.044 275.643 305.425 275.643C304.806 275.643 304.806 275.333 304.496 274.714C303.567 271.308 301.709 268.521 298.922 266.663C295.826 265.425 292.42 264.805 289.014 264.805C283.131 264.805 280.344 266.973 280.344 271.617C280.344 274.094 282.821 276.572 287.466 278.739L301.09 284.622C305.734 286.48 308.831 290.815 309.14 295.769Z" fill="#452391"/>
<path d="M341.033 307.844C341.033 308.464 340.414 308.773 339.175 308.773H315.643C314.404 308.773 313.785 308.773 313.785 307.844C313.785 306.915 314.404 306.915 315.643 306.606L319.049 305.986C321.526 305.677 322.765 303.819 322.765 301.032V269.759C323.074 267.282 321.526 265.115 319.049 264.805L315.333 264.186C314.095 264.186 313.475 263.566 313.475 262.947C313.475 262.328 314.095 262.018 315.333 262.018H329.577C330.815 262.018 331.125 262.637 331.125 263.257L330.505 270.378V301.032C330.505 304.129 331.744 305.677 334.221 305.986L338.866 306.606C340.104 306.606 341.033 307.225 341.033 307.844ZM331.434 243.44C331.434 244.988 330.815 246.536 329.577 247.775C328.338 249.014 326.79 249.633 325.242 249.633C324.003 249.633 322.765 249.323 321.836 248.394C320.907 247.465 320.597 246.536 320.597 245.298C320.597 243.75 321.216 242.202 322.455 240.963C323.693 239.724 325.242 239.105 326.79 239.105C328.957 238.796 331.125 240.344 331.434 242.821C331.434 243.13 331.434 243.44 331.434 243.44Z" fill="#452391"/>
<path d="M393.361 265.734C393.361 266.354 393.052 266.973 392.123 266.973L380.047 267.282C385.621 274.094 384.692 284.003 378.189 289.576C374.164 292.673 369.21 294.53 363.946 294.221H360.85C356.515 294.221 354.038 295.769 354.038 298.556C354.038 301.342 355.586 302.271 358.682 302.271H371.997C376.331 301.962 380.357 302.891 384.072 304.748C387.169 307.225 389.026 311.251 388.717 315.276C388.717 321.469 385.001 326.733 379.428 328.9C374.164 331.377 368.281 332.925 362.088 332.616C357.753 332.616 353.418 331.687 349.703 329.519C345.987 327.352 343.82 323.327 343.82 318.682C343.82 313.728 346.297 309.083 350.941 306.916C349.393 305.677 348.155 303.51 348.155 301.652C347.845 298.246 350.012 294.84 353.109 293.602C353.418 293.602 353.728 293.292 353.728 292.982C353.728 292.673 353.728 292.363 353.109 292.363C347.226 290.196 343.2 284.622 343.2 278.12C343.2 273.475 345.368 268.831 349.084 266.044C353.109 262.948 358.063 261.399 363.327 261.399C366.733 261.399 369.829 262.019 372.925 263.257L391.504 262.638C392.123 262.638 392.742 262.948 392.742 263.567L393.361 265.734ZM382.215 316.515C382.215 314.037 381.286 311.87 379.428 310.322C376.331 308.774 372.925 308.464 369.519 308.464H353.109C350.941 309.083 349.703 311.56 349.703 315.586C349.703 319.301 352.18 322.398 355.586 323.636C358.992 325.184 362.707 325.804 366.423 325.804C376.951 325.804 382.215 322.707 382.215 316.515ZM375.712 278.739C375.712 269.76 371.377 265.115 363.017 265.115C357.753 264.496 352.799 267.902 352.18 273.475C352.18 274.404 352.18 275.333 352.18 276.262C351.87 279.978 353.109 283.384 355.586 286.17C358.063 288.957 361.469 290.196 365.185 289.886C368.281 290.196 371.068 288.957 373.235 286.79C374.783 284.622 375.712 281.526 375.712 278.739Z" fill="#452391"/>
<path d="M445.69 307.845C445.69 308.464 445.071 308.774 443.832 308.774H428.35C427.421 308.774 426.802 308.774 426.802 307.845L428.35 306.296C429.589 304.748 429.899 302.581 429.589 300.723V276.881C429.589 270.069 426.183 266.973 419.061 266.973C416.275 266.973 413.797 267.902 411.63 269.14C409.153 270.379 407.605 272.856 407.295 275.643V301.342C406.985 303.819 408.534 305.987 411.011 306.296L413.488 306.916C414.726 307.225 415.346 307.535 415.346 308.154C415.346 308.774 414.726 309.083 413.488 309.083H393.362C392.123 309.083 391.504 309.083 391.504 308.154C391.504 307.225 392.123 307.225 393.362 306.916L395.839 306.296C398.006 305.677 399.554 303.51 399.245 301.342V244.06C399.245 241.273 398.006 239.415 395.529 239.106L390.884 238.486C389.646 238.486 389.027 237.867 389.027 237.248C389.027 236.628 389.646 236.319 390.884 236.319H406.057C407.295 236.319 407.605 236.938 407.605 237.557L407.295 244.679V266.353C407.295 266.663 407.295 266.663 407.295 266.973H407.605C411.011 262.638 416.275 260.47 421.848 260.78C426.183 260.47 430.518 262.019 433.614 265.425C436.711 269.14 438.259 273.785 437.949 278.429V300.723C437.639 303.2 439.188 305.368 441.665 305.677L444.142 306.296C445.071 307.225 445.69 307.535 445.69 307.845Z" fill="#452391"/>
<path d="M478.202 305.986C478.511 306.295 478.511 306.605 478.202 306.915C475.415 308.772 472.319 309.701 469.222 309.392C459.933 309.392 455.598 305.986 455.598 299.483V267.591H446.929C446.309 267.591 446 267.281 446 266.972V266.662V263.256C446 262.637 446 262.017 446.929 262.017H453.431C454.669 262.017 455.598 261.089 456.527 259.54L461.791 247.155C461.791 246.536 462.41 246.226 463.029 246.226C463.649 246.226 463.958 246.845 463.958 247.465V262.017H476.034C476.654 262.017 476.963 262.327 476.963 262.946V266.662C476.963 267.281 476.963 267.591 476.034 267.591H463.339V297.316C463.339 303.199 465.816 306.295 470.461 306.295C472.628 306.295 474.796 305.986 476.963 304.747C477.273 304.438 477.582 304.438 478.202 304.747V305.986Z" fill="#452391"/>
<path d="M549.728 291.124L546.941 307.534C546.941 308.154 546.012 308.773 545.393 308.773H502.044C500.805 308.773 500.186 308.773 500.186 307.844C500.186 306.915 500.805 306.915 502.044 306.605C504.211 305.986 505.759 303.819 505.45 301.651V249.632C505.45 246.846 504.211 244.988 501.734 244.678L497.09 244.059C495.851 244.059 495.232 243.44 495.232 242.821C495.232 242.201 495.851 241.892 497.09 241.892H522.17C523.409 241.892 524.028 241.892 524.028 242.511C524.028 243.13 523.409 243.749 522.17 243.749L518.454 244.369C515.977 244.678 514.429 246.846 514.739 249.323V301.961C514.739 303.199 515.668 303.819 517.216 303.819H531.459C535.794 304.128 539.819 302.89 542.916 299.793C545.083 296.697 546.631 293.291 547.56 289.575C547.56 288.647 548.18 288.027 549.108 288.027C549.728 288.647 550.037 289.575 549.728 291.124Z" fill="#452391"/>
<path d="M597.721 307.845C597.721 308.464 597.102 308.774 595.863 308.774H584.717C583.788 308.774 583.168 308.154 582.859 307.535L581.93 305.987C581.62 305.368 581.311 305.368 580.691 305.368C580.072 305.368 579.762 305.677 579.143 305.987C575.118 308.774 570.164 310.322 564.9 310.012C561.494 310.012 558.088 309.083 555.301 306.916C552.514 304.748 550.966 301.342 551.276 297.936C550.966 292.982 554.372 288.338 559.017 286.48C561.184 285.551 563.661 284.932 566.138 284.312C570.473 283.383 573.26 282.764 574.189 282.455C578.214 281.216 580.072 279.358 580.072 276.881V272.546C580.072 270.069 578.833 267.902 576.666 266.663C574.499 265.734 572.331 265.115 570.164 265.115C566.758 264.805 563.661 265.734 561.184 267.902C558.707 270.379 557.469 273.475 556.849 276.881C556.849 277.191 556.54 277.5 556.23 277.5C555.92 277.5 555.611 277.5 555.611 276.881V263.567C555.611 262.947 555.611 262.638 556.849 262.638L563.971 262.019C566.448 261.709 568.615 261.399 571.093 261.399C575.737 261.09 580.382 262.328 584.407 264.805C587.813 268.211 589.671 273.165 589.051 278.12V301.652C589.051 304.439 590.29 306.296 592.767 306.606L596.173 307.225C597.102 306.916 597.721 307.225 597.721 307.845ZM581.001 297.317V286.17C581.001 285.241 580.691 284.932 579.762 285.241L565.209 289.576C562.113 290.195 559.636 292.982 559.636 296.078C559.636 302.581 562.423 305.677 568.306 305.677C571.402 305.677 574.499 305.058 577.285 303.2C579.453 301.962 581.001 299.794 581.001 297.317Z" fill="#452391"/>
<path d="M644.476 285.551C644.786 292.053 642.618 298.246 638.593 303.2C635.187 307.225 629.923 309.702 624.35 310.012C621.254 310.012 618.157 309.702 615.061 308.774C613.513 308.154 611.655 307.845 610.107 307.535C608.868 307.535 607.63 307.845 606.701 308.154L604.533 309.083C603.604 309.083 603.295 308.774 603.295 307.845C603.295 307.535 603.604 306.916 603.914 306.606C604.224 305.987 604.533 305.058 604.533 304.439V244.06C604.533 241.273 603.295 239.415 600.818 239.106L596.173 238.486C594.934 238.486 594.315 237.867 594.315 237.248C594.315 236.628 594.934 236.319 596.173 236.319H611.345C612.584 236.319 612.893 236.938 612.893 237.557L612.584 244.679V265.734C612.584 266.044 612.584 266.353 612.893 266.353C613.203 266.663 613.513 266.663 613.513 266.353C616.609 262.948 620.944 260.78 625.279 260.78C630.233 260.47 635.187 262.638 638.593 266.353C642.928 271.927 645.095 278.739 644.476 285.551ZM636.116 285.551C636.116 272.856 631.781 266.353 623.421 266.353C619.086 266.353 615.061 268.831 612.893 272.546C612.584 273.165 612.274 274.094 612.274 275.023V294.221C611.964 297.317 612.893 300.413 614.751 302.89C617.228 305.058 620.325 305.987 623.731 305.677C627.446 305.677 631.162 303.51 632.71 300.413C635.187 295.769 636.426 290.815 636.116 285.551Z" fill="#452391"/>
<path d="M685.967 295.769C685.967 305.058 680.084 310.012 668.628 310.012C663.364 310.012 658.1 309.083 652.836 307.845C651.907 307.845 651.288 306.606 650.978 304.748C650.669 303.51 650.669 301.962 650.978 300.723C650.978 298.865 650.978 296.698 650.359 294.84C650.359 293.911 650.359 293.602 650.978 293.602C651.598 293.602 652.217 293.911 652.217 294.84C653.146 298.556 655.623 301.962 658.719 304.129C662.125 305.677 665.841 306.606 669.557 306.297C671.724 306.297 673.891 305.677 675.749 304.439C677.607 303.2 678.846 301.342 678.846 298.865C678.846 295.769 676.368 292.982 671.724 291.124L658.41 285.241C654.075 283.384 651.288 279.049 651.288 274.404C651.288 265.734 656.552 261.399 666.77 261.399C671.724 261.399 676.988 262.019 681.942 262.638C682.561 262.638 682.871 262.948 683.181 263.567V274.714C683.181 275.643 683.18 275.952 682.561 275.952C681.942 275.952 681.942 275.643 681.632 275.023C680.703 271.617 678.846 268.831 676.059 266.973C672.963 265.734 669.557 265.115 666.151 265.115C660.267 265.115 657.481 267.282 657.481 271.927C657.481 274.404 659.958 276.881 664.602 279.049C672.963 282.764 677.607 284.622 678.226 284.932C682.871 286.79 685.658 291.124 685.967 295.769Z" fill="#452391"/>
</svg>
