<svg xmlns="http://www.w3.org/2000/svg" width="102" height="99" fill="none"><g clip-path="url(#a)"><path fill="#300" d="M84.778 0H17.062C7.767 0 .232 7.535.232 16.83v65.182c0 9.295 7.535 16.83 16.83 16.83h67.716c9.295 0 16.83-7.535 16.83-16.83V16.83c0-9.295-7.535-16.83-16.83-16.83Z"/><path fill="#FF9A00" d="M49.358 59.317h-15.71l-3.196 9.929a.8.8 0 0 1-.816.612H21.68c-.453 0-.612-.25-.476-.749l13.602-39.171c.136-.408.272-.872.408-1.394.178-.908.269-1.83.272-2.754a.42.42 0 0 1 .476-.476h10.813c.317 0 .498.113.544.34l15.437 43.524c.136.453 0 .68-.408.68h-8.84a.629.629 0 0 1-.68-.476l-3.469-10.065Zm-13.261-8.569h10.745l-.153-.505-.246-.801-.175-.563-.28-.885-.596-1.864-.523-1.653-1.36-4.304a132.41 132.41 0 0 1-.974-3.223l-.248-.875-.291-1.035-.444-1.603-.083-.302h-.068a54.97 54.97 0 0 1-1.241 4.843l-1.01 3.245-.555 1.793-.56 1.816c-.101.327-.202.652-.303.972l-.3.95-.3.927-.298.905-.296.882c-.098.29-.197.576-.294.859l-.147.421Zm35.838-18.226a4.933 4.933 0 0 1-3.74-1.496 5.38 5.38 0 0 1-1.428-3.876 4.99 4.99 0 0 1 1.53-3.774 5.255 5.255 0 0 1 3.63-1.464l.144.001c1.633 0 2.914.488 3.843 1.462a5.25 5.25 0 0 1 1.394 3.775 5.31 5.31 0 0 1-1.462 3.877 5.217 5.217 0 0 1-3.765 1.5l-.146-.005Zm-4.692 36.656V36.67c0-.408.18-.612.544-.612h8.365c.362 0 .544.204.544.612v32.507c0 .453-.181.68-.544.68h-8.297c-.386 0-.59-.204-.61-.61l-.002-.07Z"/></g><defs><clipPath id="a"><path fill="#fff" d="M.232 0h101.376v99H.232z"/></clipPath></defs></svg>