<svg xmlns="http://www.w3.org/2000/svg" width="99" height="99" fill="none"><g fill="#00C4CC" clip-path="url(#a)"><path d="M45.934.118c-.374.04-1.543.177-2.574.299-4.156.474-8.87 1.722-13.006 3.465C15.384 10.137 4.118 23.86 1.01 39.6.278 43.343.1 45.183.1 49.5c0 5.565.554 9.405 2.02 14.258C6.908 79.636 19.383 92.09 35.302 96.9c4.792 1.447 8.653 2 14.197 2 5.565 0 9.405-.553 14.257-2.018C79.637 92.09 92.09 79.616 96.9 63.696c1.447-4.791 2-8.652 2-14.196 0-2.357-.118-5.048-.257-6.04-1.604-11.444-6.317-21.067-14.175-28.928C76.624 6.732 67.04 2 55.834.396c-1.544-.218-8.692-.418-9.9-.278ZM29.798 31.303c1.052.317 1.544.614 2.257 1.326 1.387 1.408 1.704 2.179 1.704 4.297 0 1.586-.06 1.882-.535 2.713-.912 1.543-3.03 2.97-4.495 3.008-1.03.022-.988-.434.14-1.621 1.504-1.565 1.721-2.158 1.721-4.497-.018-2.256-.296-3.027-1.345-3.661-.872-.534-1.821-.495-3.208.157-3.604 1.725-7.505 7.466-9.028 13.348-2.02 7.84 1.563 14.115 7.463 13.046 1.722-.317 4.97-1.979 6.378-3.287 1.166-1.067 1.166-1.088 1.284-2.414.26-2.774 2.217-5.544 4.834-6.831 1.205-.596 1.504-.653 3.127-.653 1.544 0 1.9.079 2.653.492 2.395 1.37 1.9 4.556-.692 4.556-1.505 0-2.278-.773-1.188-1.186 1.07-.396.67-1.883-.574-2.219-1.465-.377-3.13.614-4.178 2.514-1.269 2.297-1.327 5.03-.121 6.276 1.17 1.247 2.634.26 3.764-2.575.593-1.444 1.444-2.218 2.436-2.218.87 0 1.03.536.652 2.16-.556 2.514-.178 3.167 1.386 2.397.514-.24 1.366-.791 1.88-1.187l.97-.774.656-3.426c.713-3.84.987-4.357 2.453-4.631 1.408-.26 1.725.434 1.208 2.63l-.278 1.23 1.03-1.051c2.435-2.495 5.426-3.722 6.457-2.692.553.553.492 1.248-.299 3.7-.375 1.17-.892 3.014-1.127 4.062-.356 1.583-.378 1.96-.178 2.218.634.752 2.573-.022 4.296-1.705l1.01-.988.12-2.2c.117-2.534.353-3.443 1.027-4.256.634-.752 1.783-1.305 2.396-1.148.614.16.614.752.06 2.496-.773 2.395-.692 7.918.1 7.918.317 0 1.94-1.701 2.97-3.127l.77-1.052-.613-.63c-1.07-1.13-1.326-1.862-1.326-3.705 0-1.344.1-1.84.434-2.496.557-1.027 1.427-1.778 2.457-2.078 1.087-.336 2.435.218 2.988 1.208.556 1.01.417 3.267-.297 4.813l-.513 1.127h.692c.952 0 1.327-.236 3.03-1.84.892-.851 1.922-1.585 2.692-1.942 3.03-1.423 6.596-.692 7.188 1.486.495 1.743-.592 2.97-2.496 2.83-1.365-.098-1.622-.456-.83-1.125 1.425-1.191 0-2.714-2.04-2.16-1.109.298-2.356 1.543-3.008 2.99-1.309 2.891-.614 6.296 1.265 6.296.752 0 2.081-1.486 2.595-2.93.613-1.665 1.9-2.713 2.87-2.336.535.197.575.731.24 2.414-.378 1.844-.436 3.566-.14 4.357.118.296.475.852.813 1.227.63.712.653.97.117 1.308-.257.178-.595.1-1.425-.356-1.149-.596-2.14-1.665-2.496-2.675l-.217-.592-.792.592c-.457.317-1.169.674-1.584.792-1.643.435-3.664-.692-4.612-2.592-.379-.735-.496-2.891-.218-3.723.157-.456.157-.456-.478-.139-.335.179-1.048.375-1.6.435-.913.101-1.053.2-1.961 1.348-1.287 1.6-3.566 3.762-4.496 4.218-1.979.988-2.632.71-3.148-1.33l-.357-1.365-.852.752c-1.088.952-3.266 2.1-4.514 2.378-1.187.257-2.456-.12-2.97-.913-.77-1.187-.513-3.7.713-7.088.91-2.513.258-2.552-2.039-.157-1.703 1.8-2.435 3.088-2.91 5.088-.494 2.079-1.09 2.83-2.434 3.148-.813.179-1.191-.317-1.03-1.405l.117-.873-.752.517c-1.07.731-2.417 1.405-3.348 1.662-.93.257-2.157-.019-2.453-.535-.535-.91-.535-.91-1.365-.257-1.804 1.466-4.378 1.049-5.683-.891l-.418-.613-1.305 1.208c-3.764 3.445-8.474 4.988-11.96 3.919-4.436-1.344-6.89-5.148-6.85-10.632.019-5.505 2.454-11.305 6.553-15.602 2.318-2.417 4.496-3.843 6.714-4.377 1.601-.396 2.574-.376 4.096.099Z"/><path d="M69.933 45.382c-.435.435-.275 2.178.279 3.287.277.574.574 1.03.673 1.03.078 0 .256-.456.396-1.012.495-2.057-.396-4.257-1.348-3.305Z"/></g><defs><clipPath id="a"><path fill="#fff" d="M0 0h99v99H0z"/></clipPath></defs></svg>