<svg xmlns="http://www.w3.org/2000/svg" width="99" height="99" fill="none"><path fill="#1572B6" d="M18.26 84.153 11.31 6.187H87.69l-6.958 77.954-31.278 8.671-31.194-8.659Z"/><path fill="#33A9DC" d="m49.5 86.186 25.276-7.008 5.946-66.614H49.5v73.622Z"/><path fill="#fff" d="M49.5 40.81h12.653l.873-9.792H49.5v-9.563h23.977l-.23 2.565L70.9 50.372H49.5V40.81Z"/><path fill="#EBEBEB" d="m49.559 65.643-.044.013-10.648-2.878-.681-7.626h-9.6l1.34 15.014 19.586 5.44.047-.013v-9.95Z"/><path fill="#fff" d="m61.34 49.967-1.15 12.805-10.665 2.877v9.95l19.602-5.433.146-1.615 1.661-18.584H61.34Z"/><path fill="#EBEBEB" d="M49.535 21.455v9.563H26.437l-.192-2.15-.436-4.848-.229-2.565h23.955Zm-.034 19.355v9.562H38.985l-.191-2.15-.434-4.848-.229-2.564h11.37Z"/></svg>