<svg width="253" height="253" viewBox="0 0 253 253" fill="none" xmlns="http://www.w3.org/2000/svg">
<path d="M113.85 56.9253C104.375 56.9253 95.6087 59.898 88.3982 64.958C87.9302 57.7096 86.273 51.4225 83.2244 45.8565C92.8538 40.5276 103.707 37.8035 114.712 37.9534C125.716 38.1034 136.491 41.1221 145.972 46.7114C155.453 52.3007 163.311 60.267 168.77 69.8232C174.229 79.3794 177.101 90.1947 177.1 101.2H205.575C211.444 101.2 217.073 103.531 221.224 107.68C225.376 111.829 227.709 117.456 227.713 123.325V192.9C227.714 195.809 227.143 198.69 226.03 201.379C224.917 204.067 223.286 206.509 221.229 208.566C219.172 210.624 216.729 212.255 214.041 213.368C211.353 214.48 208.472 215.052 205.563 215.05H135.988C130.116 215.05 124.486 212.718 120.334 208.566C116.182 204.415 113.85 198.784 113.85 192.913V164.45C105.05 164.461 96.3461 162.63 88.297 159.074C88.4615 154.773 88.55 150.257 88.55 145.475V144.691C88.55 142.578 88.55 140.15 88.5121 137.518C95.9412 142.708 104.788 145.486 113.85 145.475V123.338C113.85 111.118 123.768 101.2 135.988 101.2H158.125C158.125 89.4578 153.46 78.1963 145.157 69.8931C136.854 61.59 125.593 56.9253 113.85 56.9253ZM174.203 120.175C171.137 129.889 165.776 138.721 158.573 145.924C151.371 153.126 142.539 158.487 132.825 161.553V192.913C132.825 194.658 134.242 196.075 135.988 196.075H205.563C206.401 196.075 207.206 195.742 207.799 195.149C208.392 194.556 208.725 193.752 208.725 192.913V123.338C208.725 122.499 208.392 121.695 207.799 121.102C207.206 120.508 206.401 120.175 205.563 120.175H174.203ZM153.862 120.175H135.988C135.149 120.175 134.344 120.508 133.751 121.102C133.158 121.695 132.825 122.499 132.825 123.338V141.212C142.045 136.823 149.473 129.395 153.862 120.175ZM57.9497 26.8815C58.9997 27.7999 59.7166 29.0397 59.9889 30.4079C60.2611 31.776 60.0734 33.1958 59.455 34.4462C59.348 34.8163 59.2926 35.1995 59.2906 35.5847C59.2906 36.3817 59.493 37.8997 61.4031 39.7972C62.3266 40.7206 63.035 41.3784 63.8066 42.0995C64.4391 42.6814 65.1096 43.2886 65.9572 44.1235C67.6017 45.6921 69.3347 47.539 70.8906 49.8539C74.1164 54.6989 75.9 60.7582 75.9 69.5753C75.9 80.3657 71.9026 89.5623 65.6662 95.2042L66.4758 96.1403C70.0178 100.492 72.0797 106.134 73.37 111.7C75.9 122.705 75.9 135.937 75.9 145.159V145.475C75.9 180.731 71.1057 200.73 65.8306 212.166C63.1741 217.922 60.3532 221.59 57.9117 223.893C56.9192 224.845 55.8247 225.685 54.6481 226.397C54.1093 226.722 53.5469 227.005 52.9656 227.245C52.9656 227.245 51.5361 227.7 50.6 227.7C49.6639 227.7 48.2345 227.245 48.2345 227.245C47.6469 227.019 47.0833 226.735 46.552 226.397C45.3754 225.685 44.2809 224.845 43.2883 223.893C40.8469 221.578 38.0259 217.922 35.3694 212.166C30.0944 200.73 25.3 180.731 25.3 145.475V145.159C25.3 135.925 25.3 122.705 27.83 111.7C29.1203 106.134 31.1823 100.492 34.7243 96.1403C34.9773 95.824 35.2556 95.5078 35.5339 95.2042C29.2974 89.5623 25.3 80.3657 25.3 69.5753C25.3 65.4514 26.4006 60.5305 27.9186 55.9892C29.4366 51.4352 31.5618 46.7294 34.0159 42.9344C36.938 38.0009 41.0493 33.8643 44.2371 31.0813C45.9848 29.5443 47.8087 28.0962 49.7019 26.7424L50.2585 26.3629C51.4185 25.5897 52.8014 25.2213 54.1922 25.3151C55.5831 25.4089 56.9041 25.9596 57.9497 26.8815Z" fill="black"/>
</svg>
