<svg xmlns="http://www.w3.org/2000/svg" width="66" height="99" fill="none"><g clip-path="url(#a)"><path fill="#0ACF83" d="M16.5 99C25.608 99 33 91.608 33 82.5V66H16.5C7.392 66 0 73.392 0 82.5S7.392 99 16.5 99Z"/><path fill="#A259FF" d="M0 49.5C0 40.392 7.392 33 16.5 33H33v33H16.5C7.392 66 0 58.608 0 49.5Z"/><path fill="#F24E1E" d="M0 16.5C0 7.392 7.392 0 16.5 0H33v33H16.5C7.392 33 0 25.608 0 16.5Z"/><path fill="#FF7262" d="M33 0h16.5C58.608 0 66 7.392 66 16.5S58.608 33 49.5 33H33V0Z"/><path fill="#1ABCFE" d="M66 49.5C66 58.608 58.608 66 49.5 66S33 58.608 33 49.5 40.392 33 49.5 33 66 40.392 66 49.5Z"/></g><defs><clipPath id="a"><path fill="#fff" d="M0 0h66v99H0z"/></clipPath></defs></svg>