<svg width="253" height="253" viewBox="0 0 253 253" fill="none" xmlns="http://www.w3.org/2000/svg">
<path d="M84.9503 177.312L34.6982 127.06L84.9503 76.8074C86.144 75.6281 87.0917 74.2236 87.7386 72.6753C88.3854 71.127 88.7185 69.4657 88.7185 67.7878C88.7185 66.1098 88.3854 64.4485 87.7386 62.9002C87.0917 61.3519 86.144 59.9474 84.9503 58.7681C83.771 57.5745 82.3665 56.6267 80.8183 55.9799C79.27 55.3331 77.6087 55 75.9307 55C74.2527 55 72.5915 55.3331 71.0432 55.9799C69.4949 56.6267 68.0904 57.5745 66.9111 58.7681L7.76819 117.911C6.57369 119.103 5.62602 120.519 4.97942 122.078C4.33282 123.637 4 125.308 4 126.995C4 128.683 4.33282 130.354 4.97942 131.912C5.62602 133.471 6.57369 134.887 7.76819 136.079L66.9111 195.351C71.9363 200.376 79.9251 200.376 84.9503 195.351C86.144 194.172 87.0917 192.767 87.7386 191.219C88.3854 189.671 88.7185 188.009 88.7185 186.331C88.7185 184.653 88.3854 182.992 87.7386 181.444C87.0917 179.895 86.144 178.491 84.9503 177.312ZM169.992 177.312L220.245 127.06L169.992 76.8074C168.799 75.6281 167.851 74.2236 167.204 72.6753C166.557 71.127 166.224 69.4657 166.224 67.7878C166.224 66.1098 166.557 64.4485 167.204 62.9002C167.851 61.3519 168.799 59.9474 169.992 58.7681C171.172 57.5745 172.576 56.6267 174.124 55.9799C175.673 55.3331 177.334 55 179.012 55C180.69 55 182.351 55.3331 183.9 55.9799C185.448 56.6267 186.852 57.5745 188.032 58.7681L247.175 117.911C252.2 122.936 252.2 131.054 247.175 136.079L188.032 195.351C186.852 196.545 185.448 197.492 183.9 198.139C182.351 198.786 180.69 199.119 179.012 199.119C177.334 199.119 175.673 198.786 174.124 198.139C172.576 197.492 171.172 196.545 169.992 195.351C168.799 194.172 167.851 192.767 167.204 191.219C166.557 189.671 166.224 188.009 166.224 186.331C166.224 184.653 166.557 182.992 167.204 181.444C167.851 179.895 168.799 178.491 169.992 177.312Z" fill="black"/>
</svg>
