<svg xmlns="http://www.w3.org/2000/svg" width="99" height="99" fill="none"><g clip-path="url(#a)"><path fill="#F7DF1E" d="M0 0h99v99H0V0Z"/><path fill="#000" d="m26.032 82.731 7.576-4.584c1.461 2.59 2.79 4.784 5.98 4.784 3.057 0 4.985-1.196 4.985-5.848V45.451h9.303v31.764c0 9.636-5.648 14.022-13.89 14.022-7.442 0-11.762-3.855-13.955-8.506m32.898-.996 7.575-4.386c1.995 3.256 4.587 5.648 9.171 5.648 3.856 0 6.314-1.927 6.314-4.585 0-3.19-2.526-4.32-6.779-6.18l-2.325-.998C66.173 68.378 61.72 64.79 61.72 57.213c0-6.978 5.317-12.294 13.624-12.294 5.914 0 10.167 2.06 13.224 7.443l-7.244 4.652c-1.595-2.858-3.322-3.987-5.98-3.987-2.725 0-4.453 1.728-4.453 3.987 0 2.79 1.727 3.921 5.715 5.649l2.325.997c7.909 3.39 12.361 6.844 12.361 14.62 0 8.373-6.579 12.958-15.417 12.958-8.64 0-14.221-4.12-16.946-9.503"/></g><defs><clipPath id="a"><path fill="#fff" d="M0 0h99v99H0z"/></clipPath></defs></svg>