<svg xmlns="http://www.w3.org/2000/svg" width="99" height="99" fill="none"><g clip-path="url(#a)"><path fill="#000" d="M46.258.027c-.213.019-.89.087-1.5.135C30.697 1.43 17.526 9.016 9.184 20.675 4.539 27.158 1.568 34.512.445 42.301.048 45.02 0 45.823 0 49.51c0 3.686.048 4.49.445 7.208 2.69 18.588 15.92 34.205 33.861 39.991 3.213 1.035 6.6 1.742 10.452 2.168 1.5.164 7.984.164 9.484 0 6.648-.736 12.28-2.38 17.835-5.216.852-.435 1.017-.551.9-.648-.077-.058-3.706-4.925-8.06-10.808L57 71.513l-9.92-14.679c-5.457-8.07-9.948-14.668-9.986-14.668-.04-.01-.078 6.512-.097 14.475-.03 13.943-.039 14.504-.213 14.833-.252.474-.445.668-.852.88-.31.156-.58.185-2.042.185h-1.674l-.445-.281a1.809 1.809 0 0 1-.648-.706l-.204-.436.02-19.4.029-19.41.3-.378c.155-.203.484-.464.716-.59.397-.193.551-.213 2.226-.213 1.974 0 2.303.078 2.816.639.145.155 5.516 8.244 11.942 17.988 6.425 9.743 15.213 23.048 19.529 29.58l7.838 11.872.397-.262c3.513-2.283 7.23-5.534 10.171-8.921 6.261-7.19 10.297-15.956 11.652-25.303C98.952 54 99 53.196 99 49.51c0-3.687-.048-4.49-.445-7.209-2.69-18.588-15.92-34.205-33.862-39.99C61.53 1.284 58.162.577 54.388.151c-.929-.096-7.326-.203-8.129-.125Zm20.265 29.937c.464.232.842.678.977 1.142.077.252.097 5.631.077 17.755l-.029 17.398-3.067-4.703-3.078-4.702V44.207c0-8.176.039-12.772.097-12.995.155-.541.493-.967.958-1.219.397-.203.542-.222 2.061-.222 1.433 0 1.684.019 2.004.193Z"/></g><defs><clipPath id="a"><path fill="#fff" d="M0 0h99v99H0z"/></clipPath></defs></svg>