<svg width="253" height="253" viewBox="0 0 253 253" fill="none" xmlns="http://www.w3.org/2000/svg">
<path d="M36.8744 24.0115L24 36.8859L52.3236 76.5518C53.516 78.2222 55.0904 79.5833 56.9156 80.5216C58.7408 81.46 60.7639 81.9484 62.8162 81.9462H63.7174C65.4102 81.9448 67.0865 82.2773 68.6506 82.9246C70.2147 83.5719 71.6357 84.5213 72.8325 85.7184L107.271 120.157L73.5792 154.326C67.8166 152.63 61.7379 152.299 55.8254 153.362C49.9129 154.424 44.3293 156.849 39.5175 160.445C34.7056 164.041 30.7979 168.709 28.1044 174.079C25.4109 179.448 24.0056 185.371 24 191.378C24.0077 196.914 25.2051 202.382 27.511 207.414C29.8169 212.446 33.1774 216.924 37.365 220.544C41.5525 224.164 46.4691 226.841 51.7818 228.395C57.0945 229.949 62.679 230.342 68.1571 229.549C73.6352 228.756 78.8788 226.795 83.5327 223.798C88.1866 220.801 92.142 216.839 95.131 212.181C98.12 207.522 100.073 202.275 100.857 196.796C101.641 191.316 101.238 185.732 99.6756 180.422L133.844 146.73L146.307 159.192L142.38 170.96C141.625 173.228 141.517 175.661 142.067 177.987C142.618 180.313 143.805 182.44 145.495 184.13L187.595 226.229C188.788 227.429 190.206 228.381 191.768 229.031C193.33 229.68 195.005 230.015 196.697 230.015C198.389 230.015 200.064 229.68 201.626 229.031C203.188 228.381 204.606 227.429 205.799 226.229L226.218 205.811C227.417 204.618 228.37 203.199 229.019 201.637C229.669 200.075 230.003 198.4 230.003 196.708C230.003 195.017 229.669 193.341 229.019 191.779C228.37 190.217 227.417 188.799 226.218 187.606L184.119 145.507C182.429 143.816 180.302 142.629 177.976 142.079C175.65 141.529 173.216 141.637 170.948 142.391L159.181 146.318L146.822 133.959L181.325 99.9317C187.049 101.46 193.047 101.653 198.857 100.496C204.667 99.3389 210.134 96.8632 214.836 93.2595C219.538 89.6559 223.35 85.0204 225.977 79.7107C228.605 74.401 229.977 68.5588 229.99 62.6346C229.99 59.1585 229.552 55.8241 228.677 52.6312L201.126 80.1953L178.492 75.509L173.806 52.8887L201.37 25.3247C194.813 23.5617 187.907 23.5584 181.349 25.3151C174.79 27.0719 168.81 30.5266 164.012 35.331C159.215 40.1354 155.768 46.1198 154.02 52.6809C152.272 59.2419 152.285 66.1478 154.057 72.7024L120.069 107.18L85.7069 72.844C83.2923 70.4301 81.9354 67.156 81.9347 63.7418V62.8277C81.9349 60.7776 81.4455 58.7571 80.5072 56.9343C79.5689 55.1115 78.2089 53.5391 76.5403 52.348L36.8744 24.0115ZM161.061 161.072C161.659 160.473 162.369 159.997 163.151 159.672C163.933 159.348 164.771 159.181 165.618 159.181C166.465 159.181 167.303 159.348 168.085 159.672C168.867 159.997 169.578 160.473 170.176 161.072L207.692 198.601C208.864 199.815 209.513 201.441 209.498 203.129C209.484 204.817 208.807 206.431 207.613 207.625C206.42 208.818 204.805 209.495 203.117 209.51C201.429 209.524 199.803 208.876 198.589 207.703L161.061 170.187C160.461 169.589 159.985 168.879 159.661 168.097C159.336 167.315 159.169 166.476 159.169 165.63C159.169 164.783 159.336 163.944 159.661 163.162C159.985 162.38 160.461 161.67 161.061 161.072ZM62.6231 165.63L68.6869 168.745L75.4975 169.08L79.1924 174.809L84.9215 178.504L85.2563 185.315L88.3719 191.378L85.2563 197.442L84.9215 204.253L79.1924 207.948L75.4975 213.677L68.6869 214.011L62.6231 217.127L56.5593 214.011L49.7487 213.677L46.0538 207.948L40.3247 204.253L39.99 197.442L36.8744 191.378L39.99 185.315L40.3247 178.504L46.0538 174.809L49.7487 169.08L56.5593 168.745L62.6231 165.63Z" fill="black"/>
</svg>
