<svg xmlns="http://www.w3.org/2000/svg" width="99" height="99" fill="none"><g clip-path="url(#a)"><path fill="#38BDF8" d="M49.504 19.802c-13.2 0-21.447 6.597-24.75 19.797 4.948-6.598 10.725-9.072 17.323-7.422 3.768.938 6.46 3.67 9.442 6.697C56.37 43.8 61.988 49.5 74.254 49.5c13.2 0 21.447-6.598 24.75-19.802-4.95 6.602-10.725 9.077-17.324 7.427-3.767-.94-6.456-3.67-9.442-6.698-4.85-4.924-10.464-10.625-22.734-10.625ZM24.754 49.5c-13.2 0-21.448 6.598-24.75 19.802 4.948-6.603 10.724-9.077 17.323-7.427 3.768.94 6.46 3.67 9.442 6.698 4.852 4.924 10.469 10.625 22.735 10.625 13.2 0 21.447-6.597 24.75-19.797-4.95 6.598-10.725 9.072-17.324 7.422-3.767-.938-6.456-3.67-9.442-6.697C42.638 55.2 37.024 49.5 24.754 49.5Z"/></g><defs><clipPath id="a"><path fill="#fff" d="M0 0h99v99H0z"/></clipPath></defs></svg>