<svg width="253" height="253" viewBox="0 0 253 253" fill="none" xmlns="http://www.w3.org/2000/svg">
<path d="M126.5 42.167C137.683 42.167 148.409 46.6095 156.316 54.5173C164.224 62.4251 168.667 73.1504 168.667 84.3337C168.667 95.517 164.224 106.242 156.316 114.15C148.409 122.058 137.683 126.5 126.5 126.5C115.317 126.5 104.591 122.058 96.6836 114.15C88.7758 106.242 84.3333 95.517 84.3333 84.3337C84.3333 73.1504 88.7758 62.4251 96.6836 54.5173C104.591 46.6095 115.317 42.167 126.5 42.167ZM126.5 147.584C173.094 147.584 210.833 166.453 210.833 189.75V210.834H42.1666V189.75C42.1666 166.453 79.9058 147.584 126.5 147.584Z" fill="black"/>
</svg>
