<svg xmlns="http://www.w3.org/2000/svg" width="99" height="99" fill="none"><g clip-path="url(#a)"><path fill="#4353FF" d="M75.797 0H23.203C10.388 0 0 10.388 0 23.203v52.594C0 88.612 10.388 99 23.203 99h52.594C88.612 99 99 88.612 99 75.797V23.203C99 10.388 88.612 0 75.797 0Z"/><path fill="#fff" d="M65.396 40S60.054 56.74 59.66 58.16c-.158-1.395-4.053-31.476-4.053-31.476-9.106 0-13.949 6.474-16.528 13.317 0 0-6.5 16.79-7.027 18.185-.026-1.316-1-18.028-1-18.028-.553-8.395-8.211-13.474-14.422-13.474l7.474 45.556c9.527-.026 14.66-6.474 17.344-13.343 0 0 5.71-14.817 5.948-15.475.052.632 4.105 28.818 4.105 28.818 9.554 0 14.712-6.027 17.475-12.633l13.396-32.923c-9.448 0-14.422 6.447-16.975 13.317Z"/></g><defs><clipPath id="a"><path fill="#fff" d="M0 0h99v99H0z"/></clipPath></defs></svg>